<svg width="365" height="350" viewBox="0 0 365 350" fill="none" xmlns="http://www.w3.org/2000/svg">
<g opacity="0.5">
<path fill-rule="evenodd" clip-rule="evenodd" d="M18.9387 0H93.8325C103.302 0 111.91 7.73726 111.91 17.1939V88.5487C111.91 98.0053 103.302 106.602 92.9717 106.602H18.9387C8.60849 107.462 0 98.865 0 89.4084V17.1939C0 7.73726 8.60849 0 18.9387 0Z" fill="#EFF5F8"/>
<path fill-rule="evenodd" clip-rule="evenodd" d="M18.9387 121.217H93.8325C104.163 121.217 112.771 128.955 112.771 139.271V210.626C112.771 220.082 104.163 228.679 93.8325 228.679H18.9387C8.60849 228.679 0 220.082 0 210.626V139.271C0 128.955 8.60849 121.217 18.9387 121.217Z" fill="#EFF5F8"/>
<path fill-rule="evenodd" clip-rule="evenodd" d="M18.9387 242.434H93.8325C104.163 242.434 112.771 250.171 112.771 260.488V331.843C112.771 341.299 104.163 349.896 93.8325 349.896H18.9387C8.60849 349.896 0 342.159 0 331.843V260.488C0 250.171 8.60849 242.434 18.9387 242.434Z" fill="#EFF5F8"/>
<path fill-rule="evenodd" clip-rule="evenodd" d="M144.623 121.217H219.517C229.847 121.217 238.455 128.955 238.455 139.271V210.626C238.455 220.082 229.847 228.679 219.517 228.679H144.623C134.292 228.679 125.684 220.942 125.684 210.626V139.271C126.545 128.955 134.292 121.217 144.623 121.217Z" fill="#EFF5F8"/>
<path fill-rule="evenodd" clip-rule="evenodd" d="M144.623 242.434H219.517C229.847 242.434 238.455 250.171 238.455 260.488V331.843C238.455 341.299 229.847 349.896 219.517 349.896H144.623C134.292 349.896 125.684 342.159 125.684 331.843V260.488C126.545 250.171 134.292 242.434 144.623 242.434Z" fill="#EFF5F8"/>
<path fill-rule="evenodd" clip-rule="evenodd" d="M271.167 242.434H346.061C356.392 242.434 365 250.171 365 260.488V331.843C365 341.299 356.392 349.896 346.061 349.896H271.167C260.837 349.896 252.229 342.159 252.229 331.843V260.488C252.229 250.171 260.837 242.434 271.167 242.434Z" fill="#EFF5F8"/>
</g>
</svg>
