<svg width="40" height="40" viewBox="0 0 40 40" fill="none" xmlns="http://www.w3.org/2000/svg">
<g filter="url(#filter0_i_94_17934)">
<path d="M15.4975 5C11.5675 5 8.3725 8.195 8.3725 12.125C8.3725 15.98 11.3875 19.1 15.3175 19.235C15.4375 19.22 15.5575 19.22 15.6475 19.235C15.6775 19.235 15.6925 19.235 15.7225 19.235C15.7375 19.235 15.7375 19.235 15.7525 19.235C19.5925 19.1 22.6075 15.98 22.6225 12.125C22.6225 8.195 19.4275 5 15.4975 5Z" fill="#FF7A57"/>
<path d="M23.1175 23.225C18.9325 20.435 12.1075 20.435 7.8925 23.225C5.9875 24.5 4.9375 26.225 4.9375 28.07C4.9375 29.915 5.9875 31.625 7.8775 32.885C9.9775 34.295 12.7375 35 15.4975 35C18.2575 35 21.0175 34.295 23.1175 32.885C25.0075 31.61 26.0575 29.9 26.0575 28.04C26.0425 26.195 25.0075 24.485 23.1175 23.225Z" fill="#FF7A57"/>
</g>
<path d="M31.9841 13.0111C32.2241 15.9211 30.1541 18.4711 27.2891 18.8161C27.2741 18.8161 27.2741 18.8161 27.2591 18.8161H27.2141C27.1241 18.8161 27.0341 18.8161 26.9591 18.8461C25.5041 18.9211 24.1691 18.4561 23.1641 17.6011C24.7091 16.2211 25.5941 14.1511 25.4141 11.9011C25.3091 10.6861 24.8891 9.57613 24.2591 8.63113C24.8291 8.34613 25.4891 8.16613 26.1641 8.10613C29.1041 7.85113 31.7291 10.0411 31.9841 13.0111Z" fill="#002B45"/>
<path d="M34.9844 26.8856C34.8644 28.3406 33.9344 29.6006 32.3744 30.4556C30.8744 31.2806 28.9844 31.6706 27.1094 31.6256C28.1894 30.6506 28.8194 29.4356 28.9394 28.1456C29.0894 26.2856 28.2044 24.5006 26.4344 23.0756C25.4294 22.2806 24.2594 21.6506 22.9844 21.1856C26.2994 20.2256 30.4694 20.8706 33.0344 22.9406C34.4144 24.0506 35.1194 25.4456 34.9844 26.8856Z" fill="#002B45"/>
<defs>
<filter id="filter0_i_94_17934" x="4.9375" y="5" width="21.1191" height="30" filterUnits="userSpaceOnUse" color-interpolation-filters="sRGB">
<feFlood flood-opacity="0" result="BackgroundImageFix"/>
<feBlend mode="normal" in="SourceGraphic" in2="BackgroundImageFix" result="shape"/>
<feColorMatrix in="SourceAlpha" type="matrix" values="0 0 0 0 0 0 0 0 0 0 0 0 0 0 0 0 0 0 127 0" result="hardAlpha"/>
<feOffset/>
<feGaussianBlur stdDeviation="4"/>
<feComposite in2="hardAlpha" operator="arithmetic" k2="-1" k3="1"/>
<feColorMatrix type="matrix" values="0 0 0 0 1 0 0 0 0 0.208333 0 0 0 0 0 0 0 0 1 0"/>
<feBlend mode="normal" in2="shape" result="effect1_innerShadow_94_17934"/>
</filter>
</defs>
</svg>
