<svg width="40" height="40" viewBox="0 0 40 40" fill="none" xmlns="http://www.w3.org/2000/svg">
<path d="M35.419 30.7809L32.669 31.4309C32.0524 31.5809 31.569 32.0476 31.4357 32.6642L30.8524 35.1142C30.5357 36.4476 28.8357 36.8642 27.9524 35.8142L22.969 30.0809C22.569 29.6142 22.7857 28.8809 23.3857 28.7309C26.3357 28.0142 28.9857 26.3642 30.9357 24.0142C31.2524 23.6309 31.819 23.5809 32.169 23.9309L35.869 27.6309C37.1357 28.8976 36.6857 30.4809 35.419 30.7809Z" fill="#002B45"/>
<path d="M4.50125 30.7809L7.25125 31.4309C7.86791 31.5809 8.35125 32.0476 8.48458 32.6642L9.06791 35.1142C9.38458 36.4476 11.0846 36.8642 11.9679 35.8142L16.9512 30.0809C17.3512 29.6142 17.1346 28.8809 16.5346 28.7309C13.5846 28.0142 10.9346 26.3642 8.98458 24.0142C8.66791 23.6309 8.10125 23.5809 7.75125 23.9309L4.05125 27.6309C2.78458 28.8976 3.23458 30.4809 4.50125 30.7809Z" fill="#002B45"/>
<g filter="url(#filter0_i_94_17923)">
<path d="M19.9987 3.32812C13.5487 3.32812 8.33203 8.54479 8.33203 14.9948C8.33203 17.4115 9.0487 19.6281 10.282 21.4781C12.082 24.1448 14.932 26.0281 18.2487 26.5115C18.8154 26.6115 19.3987 26.6615 19.9987 26.6615C20.5987 26.6615 21.182 26.6115 21.7487 26.5115C25.0654 26.0281 27.9154 24.1448 29.7154 21.4781C30.9487 19.6281 31.6654 17.4115 31.6654 14.9948C31.6654 8.54479 26.4487 3.32812 19.9987 3.32812ZM25.0987 14.6281L23.7154 16.0115C23.482 16.2448 23.3487 16.6948 23.432 17.0281L23.832 18.7448C24.1487 20.0948 23.432 20.6281 22.232 19.9115L20.5654 18.9281C20.2654 18.7448 19.7654 18.7448 19.4654 18.9281L17.7987 19.9115C16.5987 20.6115 15.882 20.0948 16.1987 18.7448L16.5987 17.0281C16.6654 16.7115 16.5487 16.2448 16.3154 16.0115L14.8987 14.6281C14.082 13.8115 14.3487 12.9948 15.482 12.8115L17.2654 12.5115C17.5654 12.4615 17.9154 12.1948 18.0487 11.9281L19.032 9.96146C19.5654 8.89479 20.432 8.89479 20.9654 9.96146L21.9487 11.9281C22.082 12.1948 22.432 12.4615 22.7487 12.5115L24.532 12.8115C25.6487 12.9948 25.9154 13.8115 25.0987 14.6281Z" fill="#FF7A57"/>
</g>
<defs>
<filter id="filter0_i_94_17923" x="8.33203" y="3.32812" width="23.334" height="23.333" filterUnits="userSpaceOnUse" color-interpolation-filters="sRGB">
<feFlood flood-opacity="0" result="BackgroundImageFix"/>
<feBlend mode="normal" in="SourceGraphic" in2="BackgroundImageFix" result="shape"/>
<feColorMatrix in="SourceAlpha" type="matrix" values="0 0 0 0 0 0 0 0 0 0 0 0 0 0 0 0 0 0 127 0" result="hardAlpha"/>
<feOffset/>
<feGaussianBlur stdDeviation="2"/>
<feComposite in2="hardAlpha" operator="arithmetic" k2="-1" k3="1"/>
<feColorMatrix type="matrix" values="0 0 0 0 1 0 0 0 0 0.208333 0 0 0 0 0 0 0 0 1 0"/>
<feBlend mode="normal" in2="shape" result="effect1_innerShadow_94_17923"/>
</filter>
</defs>
</svg>
