<svg width="40" height="40" viewBox="0 0 40 40" fill="none" xmlns="http://www.w3.org/2000/svg">
<g filter="url(#filter0_i_94_17914)">
<path d="M21.1874 6.22984L23.9161 11.7251C24.2882 12.4744 25.2805 13.2238 26.1073 13.3487L31.048 14.1813C34.2108 14.7225 34.955 17.0122 32.6811 19.3018L28.8361 23.1943C28.1952 23.8396 27.8231 25.1093 28.0298 26.0252L29.1255 30.8335C29.9937 34.6219 27.9885 36.0998 24.6603 34.1223L20.0297 31.3539C19.1822 30.8543 17.8178 30.8543 16.9703 31.3539L12.319 34.1015C8.99082 36.0789 6.98563 34.6011 7.85386 30.8127L8.94948 26.0044C9.1562 25.1093 8.7841 23.8396 8.14327 23.1735L4.31892 19.3227C2.04499 17.033 2.78919 14.7225 5.95202 14.2021L10.8927 13.3695C11.7195 13.2238 12.7118 12.4952 13.0839 11.7459L15.8126 6.25066C17.2803 3.25326 19.7197 3.25326 21.1874 6.22984Z" fill="#FF7A57"/>
</g>
<defs>
<filter id="filter0_i_94_17914" x="3" y="4" width="31" height="31" filterUnits="userSpaceOnUse" color-interpolation-filters="sRGB">
<feFlood flood-opacity="0" result="BackgroundImageFix"/>
<feBlend mode="normal" in="SourceGraphic" in2="BackgroundImageFix" result="shape"/>
<feColorMatrix in="SourceAlpha" type="matrix" values="0 0 0 0 0 0 0 0 0 0 0 0 0 0 0 0 0 0 127 0" result="hardAlpha"/>
<feOffset/>
<feGaussianBlur stdDeviation="4"/>
<feComposite in2="hardAlpha" operator="arithmetic" k2="-1" k3="1"/>
<feColorMatrix type="matrix" values="0 0 0 0 1 0 0 0 0 0.208333 0 0 0 0 0 0 0 0 1 0"/>
<feBlend mode="normal" in2="shape" result="effect1_innerShadow_94_17914"/>
</filter>
</defs>
</svg>
