<svg width="40" height="40" viewBox="0 0 40 40" fill="none" xmlns="http://www.w3.org/2000/svg">
<path d="M37.7931 15.0451C37.6171 14.8259 37.3544 14.698 37.0788 14.698H33.5752C32.7105 12.3708 31.5841 10.0907 30.3038 9.23002C25.8747 6.25666 14.1269 6.25666 9.6978 9.23002C8.41655 10.0916 7.29477 12.3746 6.42554 14.698H2.92192C2.64355 14.698 2.38177 14.8259 2.20755 15.0451C2.03242 15.2633 1.96237 15.5521 2.01952 15.8296L2.53847 18.3956C2.62696 18.833 3.00488 19.1453 3.44087 19.1453H4.47878C3.47682 20.3249 2.99105 21.8101 2.9846 23.2964C2.97815 25.1325 3.66118 26.7918 4.91016 27.9657C4.92399 27.9779 4.93782 27.9864 4.95072 27.9986V31.589C4.95072 32.3669 5.57015 33 6.33337 33H9.56507C10.3283 33 10.9477 32.3669 10.9477 31.589V30.1461H29.0521V31.589C29.0521 32.3669 29.6715 33 30.4347 33H33.6664C34.4278 33 35.0491 32.3669 35.0491 31.589V28.0692C36.3745 26.8303 37.0078 25.1259 37.0161 23.4243C37.0216 21.8873 36.5137 20.3475 35.4528 19.1434H36.5598C36.9977 19.1434 37.3756 18.8311 37.4622 18.3928L37.9821 15.8277C38.0356 15.5521 37.9683 15.2652 37.7931 15.0451ZM11.2159 11.5863C14.7463 9.21497 25.2535 9.21497 28.782 11.5863C29.4678 12.0454 30.3499 13.9012 31.1583 16.1738H8.84148C9.64803 13.9022 10.5302 12.0472 11.2159 11.5863ZM7.08092 23.65C7.08092 22.1168 8.29949 20.8751 9.80104 20.8751C11.3044 20.8751 12.5212 22.1168 12.5212 23.65C12.5212 25.1833 11.3044 26.4259 9.80104 26.4259C8.29949 26.4259 7.08092 25.1833 7.08092 23.65ZM30.2347 26.4259C28.7331 26.4259 27.5146 25.1833 27.5146 23.65C27.5146 22.1168 28.7331 20.8751 30.2347 20.8751C31.7381 20.8751 32.9548 22.1168 32.9548 23.65C32.9548 25.1833 31.7362 26.4259 30.2347 26.4259Z" fill="#002B45"/>
</svg>
