<svg width="40" height="40" viewBox="0 0 40 40" fill="none" xmlns="http://www.w3.org/2000/svg">
<path fill-rule="evenodd" clip-rule="evenodd" d="M31.6726 11.3509C33.5018 10.8796 34.8533 9.21881 34.8533 7.24242C34.8533 4.8994 32.9539 3 30.6109 3C28.5008 3 26.7505 4.54048 26.4233 6.55814L11.4535 6.11957C11.1843 4.94044 10.1291 4.06061 8.86843 4.06061C7.40404 4.06061 6.21692 5.24773 6.21692 6.71212C6.21692 8.15778 7.37386 9.33322 8.81237 9.36305L8.45771 29.5168C8.41799 29.5157 8.37812 29.5152 8.33813 29.5152C5.9951 29.5152 4.0957 31.4145 4.0957 33.7576C4.0957 36.1006 5.9951 38 8.33813 38C10.6693 38 12.5614 36.1197 12.5804 33.793L29.8495 29.6853C30.3457 30.7251 31.4068 31.4435 32.6357 31.4435C34.3397 31.4435 35.7211 30.0621 35.7211 28.3581C35.7211 26.7971 34.5618 25.5069 33.0573 25.3013L31.6726 11.3509ZM27.8428 10.4575L21.0254 18.7038L21.8428 19.3796L28.7316 11.0469C29.298 11.3273 29.936 11.4848 30.6109 11.4848C30.6139 11.4848 30.617 11.4848 30.6201 11.4848L31.9952 25.3393C31.5435 25.4346 31.1283 25.6288 30.7732 25.8981L22.2203 20.3938L21.6464 21.2857L30.0409 26.6881C29.7304 27.1694 29.5503 27.7427 29.5503 28.3581C29.5503 28.4609 29.5553 28.5625 29.5651 28.6628L12.4559 32.7324C12.2826 32.0342 11.9364 31.4042 11.4653 30.8907L18.5366 22.3372L17.7192 21.6614L10.6567 30.2042C10.3085 29.9765 9.92474 29.7986 9.5156 29.6807L9.87662 9.16524C10.0128 9.1092 10.1434 9.04214 10.2671 8.96517L16.7001 16.4486L17.5044 15.7572L11.0387 8.2358C11.2563 7.92644 11.4094 7.56845 11.4786 7.18137L26.3848 7.61807C26.4842 8.75095 27.0289 9.7561 27.8428 10.4575Z" fill="#002B45"/>
<g filter="url(#filter0_i_94_17885)">
<circle cx="19.476" cy="19.433" r="6.89394" fill="#FF7A57"/>
</g>
<defs>
<filter id="filter0_i_94_17885" x="12.582" y="12.5391" width="13.7871" height="13.7881" filterUnits="userSpaceOnUse" color-interpolation-filters="sRGB">
<feFlood flood-opacity="0" result="BackgroundImageFix"/>
<feBlend mode="normal" in="SourceGraphic" in2="BackgroundImageFix" result="shape"/>
<feColorMatrix in="SourceAlpha" type="matrix" values="0 0 0 0 0 0 0 0 0 0 0 0 0 0 0 0 0 0 127 0" result="hardAlpha"/>
<feOffset/>
<feGaussianBlur stdDeviation="4"/>
<feComposite in2="hardAlpha" operator="arithmetic" k2="-1" k3="1"/>
<feColorMatrix type="matrix" values="0 0 0 0 1 0 0 0 0 0.208333 0 0 0 0 0 0 0 0 1 0"/>
<feBlend mode="normal" in2="shape" result="effect1_innerShadow_94_17885"/>
</filter>
</defs>
</svg>
