<svg width="40" height="40" viewBox="0 0 40 40" fill="none" xmlns="http://www.w3.org/2000/svg">
<g filter="url(#filter0_i_94_17891)">
<rect x="17.8027" y="30.9141" width="4.3871" height="6.58064" rx="1.277" fill="#18415A"/>
</g>
<g filter="url(#filter1_i_94_17891)">
<path d="M2.45117 11.5C2.45117 7.72877 2.45117 5.84315 3.62274 4.67157C4.79432 3.5 6.67994 3.5 10.4512 3.5H29.548C33.3192 3.5 35.2048 3.5 36.3764 4.67157C37.5479 5.84315 37.5479 7.72876 37.5479 11.5V21.143C37.5479 24.9142 37.5479 26.7998 36.3764 27.9714C35.2048 29.143 33.3192 29.143 29.5479 29.143H10.4512C6.67993 29.143 4.79432 29.143 3.62274 27.9714C2.45117 26.7998 2.45117 24.9142 2.45117 21.143V11.5Z" fill="#002B45"/>
</g>
<path d="M6.3043 12.5859C6.3043 11.1533 6.30568 10.1443 6.40834 9.38073C6.50848 8.63587 6.69416 8.22268 6.9926 7.92424C7.29104 7.6258 7.70423 7.44012 8.44909 7.33998C9.21266 7.23732 10.2217 7.23594 11.6543 7.23594H28.3809C29.8135 7.23594 30.8225 7.23732 31.5861 7.33998C32.331 7.44012 32.7442 7.6258 33.0426 7.92424C33.341 8.22268 33.5267 8.63587 33.6269 9.38073C33.7295 10.1443 33.7309 11.1533 33.7309 12.5859V20.021C33.7309 21.4536 33.7295 22.4627 33.6269 23.2262C33.5267 23.9711 33.341 24.3843 33.0426 24.6827C32.7442 24.9812 32.331 25.1668 31.5861 25.267C30.8225 25.3696 29.8135 25.371 28.3809 25.371H11.6543C10.2217 25.371 9.21265 25.3696 8.44909 25.267C7.70423 25.1668 7.29104 24.9812 6.9926 24.6827C6.69416 24.3843 6.50848 23.9711 6.40834 23.2262C6.30568 22.4627 6.3043 21.4536 6.3043 20.021V12.5859Z" stroke="white" stroke-width="1.3"/>
<path fill-rule="evenodd" clip-rule="evenodd" d="M10.0325 10H14.1155C14.6787 10 15.148 10.4399 15.148 11.0263V15.0827C15.148 15.6203 14.6787 16.109 14.1155 16.109H10.0325C9.46931 16.109 9 15.6203 9 15.0827V11.0263C9 10.4399 9.46931 10 10.0325 10Z" fill="#FF7A57"/>
<path fill-rule="evenodd" clip-rule="evenodd" d="M10.0325 16.891H14.1155C14.6787 16.891 15.148 17.3308 15.148 17.9173V21.9737C15.148 22.5113 14.6787 23 14.1155 23H10.0325C9.46931 23 9 22.5601 9 21.9737V17.9173C9 17.3308 9.46931 16.891 10.0325 16.891Z" fill="#FF7A57"/>
<path fill-rule="evenodd" clip-rule="evenodd" d="M16.8845 16.891H20.9675C21.5307 16.891 22 17.3308 22 17.9173V21.9737C22 22.5113 21.5307 23 20.9675 23H16.8845C16.3213 23 15.852 22.5601 15.852 21.9737V17.9173C15.8989 17.3308 16.3213 16.891 16.8845 16.891Z" fill="#FF7A57"/>
<defs>
<filter id="filter0_i_94_17891" x="17.8027" y="30.9141" width="4.38672" height="6.74622" filterUnits="userSpaceOnUse" color-interpolation-filters="sRGB">
<feFlood flood-opacity="0" result="BackgroundImageFix"/>
<feBlend mode="normal" in="SourceGraphic" in2="BackgroundImageFix" result="shape"/>
<feColorMatrix in="SourceAlpha" type="matrix" values="0 0 0 0 0 0 0 0 0 0 0 0 0 0 0 0 0 0 127 0" result="hardAlpha"/>
<feOffset dy="0.165161"/>
<feGaussianBlur stdDeviation="1.28"/>
<feComposite in2="hardAlpha" operator="arithmetic" k2="-1" k3="1"/>
<feColorMatrix type="matrix" values="0 0 0 0 0 0 0 0 0 0.14902 0 0 0 0 0.239216 0 0 0 1 0"/>
<feBlend mode="normal" in2="shape" result="effect1_innerShadow_94_17891"/>
</filter>
<filter id="filter1_i_94_17891" x="2.45117" y="3.5" width="35.0977" height="25.8077" filterUnits="userSpaceOnUse" color-interpolation-filters="sRGB">
<feFlood flood-opacity="0" result="BackgroundImageFix"/>
<feBlend mode="normal" in="SourceGraphic" in2="BackgroundImageFix" result="shape"/>
<feColorMatrix in="SourceAlpha" type="matrix" values="0 0 0 0 0 0 0 0 0 0 0 0 0 0 0 0 0 0 127 0" result="hardAlpha"/>
<feOffset dy="0.165161"/>
<feGaussianBlur stdDeviation="0.990968"/>
<feComposite in2="hardAlpha" operator="arithmetic" k2="-1" k3="1"/>
<feColorMatrix type="matrix" values="0 0 0 0 0 0 0 0 0 0.0830918 0 0 0 0 0.133333 0 0 0 0.59 0"/>
<feBlend mode="normal" in2="shape" result="effect1_innerShadow_94_17891"/>
</filter>
</defs>
</svg>
