<svg width="30" height="30" viewBox="0 0 30 30" fill="none" xmlns="http://www.w3.org/2000/svg">
<path d="M9.05 2.5H6.675C3.9375 2.5 2.5 3.9375 2.5 6.6625V9.0375C2.5 11.7625 3.9375 13.2 6.6625 13.2H9.0375C11.7625 13.2 13.2 11.7625 13.2 9.0375V6.6625C13.2125 3.9375 11.775 2.5 9.05 2.5Z" fill="white"/>
<path d="M23.3383 2.5H20.9633C18.2383 2.5 16.8008 3.9375 16.8008 6.6625V9.0375C16.8008 11.7625 18.2383 13.2 20.9633 13.2H23.3383C26.0633 13.2 27.5008 11.7625 27.5008 9.0375V6.6625C27.5008 3.9375 26.0633 2.5 23.3383 2.5Z" fill="white"/>
<path d="M23.3383 16.7812H20.9633C18.2383 16.7812 16.8008 18.2187 16.8008 20.9437V23.3187C16.8008 26.0437 18.2383 27.4812 20.9633 27.4812H23.3383C26.0633 27.4812 27.5008 26.0437 27.5008 23.3187V20.9437C27.5008 18.2187 26.0633 16.7812 23.3383 16.7812Z" fill="white"/>
<path d="M9.05 16.7812H6.675C3.9375 16.7812 2.5 18.2187 2.5 20.9437V23.3187C2.5 26.0562 3.9375 27.4937 6.6625 27.4937H9.0375C11.7625 27.4937 13.2 26.0562 13.2 23.3312V20.9563C13.2125 18.2188 11.775 16.7812 9.05 16.7812Z" fill="white"/>
</svg>
