<svg width="112" height="68" viewBox="0 0 112 68" fill="none" xmlns="http://www.w3.org/2000/svg">
<g clip-path="url(#clip0_94_17557)">
<path d="M11.5898 67.282H99.8736L55.9659 23.375L11.5898 67.282Z" fill="url(#paint0_linear_94_17557)"/>
<path d="M9.902 65.1305L16.7801 58.4206L14.4891 56.071L10.169 60.2872L2.55866 52.4844L0 54.9806L9.902 65.1305Z" fill="url(#paint1_linear_94_17557)"/>
<path d="M18.2909 56.8896L25.3386 50.0121L23.4032 48.0295L18.9282 52.3949L16.7793 50.1918L20.3653 46.6932L18.34 44.6188L14.7541 48.1156L12.913 46.2286L17.2407 42.0054L15.3066 40.0234L8.28125 46.878L18.2909 56.8896Z" fill="url(#paint2_linear_94_17557)"/>
<path d="M41.3559 24.2888C38.5137 21.3752 33.5831 21.7238 31.2086 24.0409C28.8334 26.358 27.6213 30.9783 30.9753 34.4164C34.6594 38.1922 39.0426 36.8208 41.4177 34.505C44.9196 31.0885 43.6731 26.6639 41.3559 24.2888ZM39.2669 32.5097C37.6948 34.0436 35.7727 33.6274 33.5767 31.3759C31.7311 29.4845 31.842 27.5841 33.1841 26.2745C34.1069 25.3741 35.9811 24.5686 38.211 26.8545C40.755 29.4622 40.8391 30.9757 39.2669 32.5097Z" fill="url(#paint3_linear_94_17557)"/>
<path d="M49.2841 26.7022L51.8841 24.1646L47.9725 20.1555L45.6312 10.4141L42.6506 13.3226L44.2011 18.849L38.9627 16.92L36.1523 19.6616L45.0831 22.5293L49.2841 26.7022Z" fill="url(#paint4_linear_94_17557)"/>
<path d="M35.4222 40.2458C35.4222 40.2458 29.094 38.0867 28.7932 38.139C28.6957 38.1549 30.1525 34.2784 26.8795 32.5603C26.8795 32.5603 24.4508 31.2456 22.0203 33.4537L16.8398 38.559L26.8266 48.6165L29.4687 46.0387L24.0646 40.5007L32.8004 42.8039L35.4222 40.2458ZM25.6209 38.8649C24.1526 40.2949 23.9544 40.4077 23.9544 40.4077C23.9544 40.4077 21.6526 38.0485 21.571 37.965C21.4894 37.8815 23.2171 36.4005 23.4892 36.1348C23.6045 36.022 24.6803 35.3203 25.5705 36.2323C25.5705 36.2323 27.0885 37.4323 25.6209 38.8649Z" fill="url(#paint5_linear_94_17557)"/>
<path d="M48.4787 12.3358L46.168 10.0059L56.2561 0L59.5578 3.32849L55.9234 10.4813L63.333 7.13494L66.5098 10.3385L56.4217 20.3444L53.9867 17.8896L59.3118 12.6085L52.0271 15.9134L50.5212 14.3948L53.9071 7.1171L48.4787 12.3358Z" fill="url(#paint6_linear_94_17557)"/>
<path d="M65.9947 29.9948L59 22.9434L69.0887 12.9375L76.1032 20.01L74.0652 22.0314L69.6706 17.6011L68.027 19.2306L71.4932 22.7254L69.371 24.8297L65.9259 21.3559L63.7209 23.5424L68.0742 27.9313L65.9947 29.9948Z" fill="url(#paint7_linear_94_17557)"/>
<path d="M89.0575 33.0781L91.6569 35.6999L84.023 43.2707L88.2934 47.5749L85.8386 50.0112L78.9688 43.0846L89.0575 33.0781Z" fill="url(#paint8_linear_94_17557)"/>
<path d="M87.6562 51.834L97.745 41.8281L100.283 44.3862L90.1939 54.3914L87.6562 51.834Z" fill="url(#paint9_linear_94_17557)"/>
<path d="M94.7951 59.0388L92.4219 56.6459L102.511 46.6406L105.957 50.1125L103.013 60.5014L109.691 53.8775L112.002 56.2074L101.913 66.2127L98.9004 63.1767L101.495 52.2703L94.7951 59.0388Z" fill="url(#paint10_linear_94_17557)"/>
<path d="M84.4989 28.4753L78.3715 22.2969L68.2617 32.2824L70.8612 34.9028L76.373 29.4363L74.3891 38.4601L77.0504 41.1437C77.0504 41.1437 79.1483 34.6887 79.2127 34.4198C79.2127 34.4198 81.4858 35.672 83.9801 33.5276C83.9801 33.5276 86.3725 31.1964 84.4989 28.4753ZM80.7574 31.4016C80.7574 31.4016 79.4695 32.2664 78.3345 31.1225L76.5616 29.2502C76.5616 29.2502 78.7035 27.1255 78.9737 26.8572C78.9737 26.8572 80.6242 28.5218 80.8307 28.7295C81.0366 28.9373 82.3379 29.9161 80.7574 31.4016Z" fill="url(#paint11_linear_94_17557)"/>
</g>
<defs>
<linearGradient id="paint0_linear_94_17557" x1="55.7317" y1="23.375" x2="55.7317" y2="67.282" gradientUnits="userSpaceOnUse">
<stop stop-color="#00609A"/>
<stop offset="1" stop-color="#1B3646"/>
</linearGradient>
<linearGradient id="paint1_linear_94_17557" x1="8.39006" y1="52.4844" x2="8.39006" y2="65.1305" gradientUnits="userSpaceOnUse">
<stop stop-color="#00609A"/>
<stop offset="1" stop-color="#1B3646"/>
</linearGradient>
<linearGradient id="paint2_linear_94_17557" x1="16.8099" y1="40.0234" x2="16.8099" y2="56.8896" gradientUnits="userSpaceOnUse">
<stop stop-color="#00609A"/>
<stop offset="1" stop-color="#1B3646"/>
</linearGradient>
<linearGradient id="paint3_linear_94_17557" x1="36.253" y1="22.2031" x2="36.253" y2="36.7698" gradientUnits="userSpaceOnUse">
<stop stop-color="#00609A"/>
<stop offset="1" stop-color="#1B3646"/>
</linearGradient>
<linearGradient id="paint4_linear_94_17557" x1="44.0182" y1="10.4141" x2="44.0182" y2="26.7022" gradientUnits="userSpaceOnUse">
<stop stop-color="#00609A"/>
<stop offset="1" stop-color="#1B3646"/>
</linearGradient>
<linearGradient id="paint5_linear_94_17557" x1="26.131" y1="32.1719" x2="26.131" y2="48.6165" gradientUnits="userSpaceOnUse">
<stop stop-color="#00609A"/>
<stop offset="1" stop-color="#1B3646"/>
</linearGradient>
<linearGradient id="paint6_linear_94_17557" x1="56.3389" y1="0" x2="56.3389" y2="20.3444" gradientUnits="userSpaceOnUse">
<stop stop-color="#00609A"/>
<stop offset="1" stop-color="#1B3646"/>
</linearGradient>
<linearGradient id="paint7_linear_94_17557" x1="67.5516" y1="12.9375" x2="67.5516" y2="29.9948" gradientUnits="userSpaceOnUse">
<stop stop-color="#00609A"/>
<stop offset="1" stop-color="#1B3646"/>
</linearGradient>
<linearGradient id="paint8_linear_94_17557" x1="85.3128" y1="33.0781" x2="85.3128" y2="50.0112" gradientUnits="userSpaceOnUse">
<stop stop-color="#00609A"/>
<stop offset="1" stop-color="#1B3646"/>
</linearGradient>
<linearGradient id="paint9_linear_94_17557" x1="93.9694" y1="41.8281" x2="93.9694" y2="54.3914" gradientUnits="userSpaceOnUse">
<stop stop-color="#00609A"/>
<stop offset="1" stop-color="#1B3646"/>
</linearGradient>
<linearGradient id="paint10_linear_94_17557" x1="102.212" y1="46.6406" x2="102.212" y2="66.2127" gradientUnits="userSpaceOnUse">
<stop stop-color="#00609A"/>
<stop offset="1" stop-color="#1B3646"/>
</linearGradient>
<linearGradient id="paint11_linear_94_17557" x1="76.7386" y1="22.2969" x2="76.7386" y2="41.1437" gradientUnits="userSpaceOnUse">
<stop stop-color="#00609A"/>
<stop offset="1" stop-color="#1B3646"/>
</linearGradient>
<clipPath id="clip0_94_17557">
<rect width="112" height="67.3308" fill="white"/>
</clipPath>
</defs>
</svg>
