<svg width="127" height="33" viewBox="0 0 127 33" fill="none" xmlns="http://www.w3.org/2000/svg">
<g clip-path="url(#clip0_94_17531)">
<path fill-rule="evenodd" clip-rule="evenodd" d="M6.98283 6.82765C8.46887 7.77382 8.90652 9.74553 7.96034 11.2316C6.57066 13.4141 6.0797 16.0499 6.59034 18.5864C7.10098 21.123 8.57358 23.3634 10.6995 24.8383C12.8255 26.3131 15.4398 26.9078 17.9945 26.4978C20.5493 26.0878 22.8461 24.7049 24.4038 22.6389C25.4644 21.2322 27.4645 20.9516 28.8712 22.0122C30.2779 23.0728 30.5585 25.0729 29.4979 26.4795C26.9479 29.8617 23.1877 32.1257 19.0055 32.7969C14.8232 33.4681 10.5435 32.4945 7.06315 30.0801C3.58283 27.6657 1.1721 23.9979 0.336157 19.8455C-0.499789 15.693 0.303942 11.3781 2.57892 7.80515C3.52509 6.31911 5.4968 5.88147 6.98283 6.82765Z" fill="url(#paint0_linear_94_17531)"/>
<path fill-rule="evenodd" clip-rule="evenodd" d="M28.0222 11.0204C26.6159 12.0815 24.6157 11.8016 23.5547 10.3953C22.3192 8.75779 20.6106 7.53921 18.66 6.90433C16.7094 6.26945 14.6109 6.24891 12.6482 6.84548C10.9627 7.35782 9.18091 6.40675 8.66857 4.72121C8.15623 3.03566 9.1073 1.25392 10.7928 0.741575C14.0058 -0.235046 17.4412 -0.201418 20.6345 0.837914C23.8277 1.87724 26.6247 3.87212 28.6473 6.55282C29.7084 7.95912 29.4285 9.95933 28.0222 11.0204Z" fill="url(#paint1_linear_94_17531)"/>
<path fill-rule="evenodd" clip-rule="evenodd" d="M28.2743 6.7715C29.3943 8.1314 29.1997 10.1417 27.8398 11.2616L8.7392 26.9915C7.37929 28.1114 5.369 27.9169 4.24908 26.557C3.12916 25.1971 3.3237 23.1868 4.68361 22.0669L23.7842 6.33697C25.1441 5.21705 27.1544 5.41159 28.2743 6.7715Z" fill="url(#paint2_linear_94_17531)"/>
<path fill-rule="evenodd" clip-rule="evenodd" d="M50.3562 6.89359C48.3598 6.39784 46.2592 6.5289 44.3399 7.26896C42.4206 8.00901 40.7758 9.32216 39.629 11.0299C38.4823 12.7376 37.8892 14.757 37.9305 16.8136C37.9718 18.8702 38.6454 20.8642 39.8597 22.5245C41.0741 24.1849 42.7703 25.431 44.7177 26.0934C46.6651 26.7559 48.7693 26.8025 50.7442 26.2271C52.7191 25.6517 54.4689 24.482 55.7557 22.8772C56.8577 21.5027 58.8653 21.2819 60.2397 22.384C61.6141 23.486 61.835 25.4936 60.7329 26.868C58.6264 29.4952 55.7619 31.41 52.5289 32.352C49.2959 33.2941 45.8512 33.2177 42.6631 32.1332C39.4751 31.0487 36.6983 29.0088 34.7104 26.2907C32.7224 23.5727 31.6197 20.3084 31.5521 16.9416C31.4846 13.5748 32.4554 10.2689 34.3327 7.47331C36.21 4.67769 38.9027 2.528 42.0447 1.31648C45.1867 0.104957 48.6255 -0.109585 51.8937 0.701967C55.1619 1.51352 58.1009 3.31182 60.3111 5.8524C61.4674 7.18151 61.3274 9.19633 59.9982 10.3526C58.6691 11.5089 56.6543 11.3688 55.498 10.0397C54.1479 8.48782 52.3526 7.38933 50.3562 6.89359Z" fill="url(#paint3_linear_94_17531)"/>
<path fill-rule="evenodd" clip-rule="evenodd" d="M82.3054 6.89359C80.309 6.39784 78.2084 6.5289 76.2891 7.26896C74.3698 8.00901 72.725 9.32216 71.5783 11.0299C70.4315 12.7376 69.8384 14.757 69.8797 16.8136C69.921 18.8702 70.5946 20.8642 71.8089 22.5245C73.0233 24.1849 74.7195 25.431 76.6669 26.0934C78.6143 26.7559 80.7185 26.8025 82.6934 26.2271C84.6683 25.6517 86.4181 24.482 87.7049 22.8772C88.8069 21.5027 90.8145 21.2819 92.1889 22.384C93.5634 23.486 93.7842 25.4936 92.6821 26.868C90.5756 29.4952 87.7111 31.41 84.4781 32.352C81.2451 33.2941 77.8004 33.2177 74.6124 32.1332C71.4243 31.0487 68.6476 29.0088 66.6596 26.2907C64.6716 23.5727 63.5689 20.3084 63.5013 16.9416C63.4338 13.5748 64.4046 10.2689 66.2819 7.47331C68.1593 4.67769 70.8519 2.528 73.9939 1.31648C77.1359 0.104957 80.5747 -0.109585 83.8429 0.701967C87.1111 1.51352 90.0501 3.31182 92.2604 5.8524C93.4167 7.18151 93.2766 9.19633 91.9475 10.3526C90.6184 11.5089 88.6035 11.3688 87.4472 10.0397C86.0971 8.48782 84.3018 7.38933 82.3054 6.89359Z" fill="url(#paint4_linear_94_17531)"/>
<path fill-rule="evenodd" clip-rule="evenodd" d="M112.985 6.94001C110.751 6.34096 108.378 6.53397 106.27 7.48624C104.161 8.43852 102.448 10.0913 101.42 12.1639C100.392 14.2364 100.114 16.6008 100.632 18.8554C101.15 21.1099 102.433 23.1156 104.262 24.5317C106.091 25.9477 108.355 26.6867 110.667 26.6232C112.979 26.5596 115.199 25.6975 116.947 24.1831C118.696 22.6688 119.867 20.5957 120.26 18.3161C120.654 16.0365 120.246 13.6909 119.106 11.678C118.238 10.145 118.777 8.19857 120.31 7.33046C121.843 6.46236 123.789 7.00132 124.657 8.53428C126.523 11.8296 127.191 15.6694 126.547 19.4013C125.903 23.1332 123.986 26.5269 121.124 29.006C118.261 31.485 114.628 32.8964 110.842 33.0004C107.057 33.1044 103.352 31.8946 100.357 29.5765C97.3623 27.2584 95.2626 23.9749 94.4145 20.2841C93.5664 16.5932 94.0222 12.7225 95.7046 9.32969C97.387 5.93685 100.192 3.23111 103.644 1.67218C107.095 0.113255 110.979 -0.202711 114.637 0.77797C116.339 1.23417 117.348 2.98341 116.892 4.68502C116.436 6.38662 114.687 7.39621 112.985 6.94001Z" fill="url(#paint5_linear_94_17531)"/>
</g>
<defs>
<linearGradient id="paint0_linear_94_17531" x1="15.0773" y1="6.32812" x2="15.0773" y2="33.0041" gradientUnits="userSpaceOnUse">
<stop stop-color="#00609A"/>
<stop offset="1" stop-color="#1B3646"/>
</linearGradient>
<linearGradient id="paint1_linear_94_17531" x1="18.9104" y1="11.6641" x2="18.9104" y2="0.0329771" gradientUnits="userSpaceOnUse">
<stop stop-color="#00609A"/>
<stop offset="1" stop-color="#1B3646"/>
</linearGradient>
<linearGradient id="paint2_linear_94_17531" x1="16.2617" y1="5.60937" x2="16.2617" y2="27.7191" gradientUnits="userSpaceOnUse">
<stop stop-color="#00609A"/>
<stop offset="1" stop-color="#1B3646"/>
</linearGradient>
<linearGradient id="paint3_linear_94_17531" x1="46.4915" y1="0.21875" x2="46.4915" y2="33.0066" gradientUnits="userSpaceOnUse">
<stop stop-color="#00609A"/>
<stop offset="1" stop-color="#1B3646"/>
</linearGradient>
<linearGradient id="paint4_linear_94_17531" x1="78.4407" y1="0.21875" x2="78.4407" y2="33.0066" gradientUnits="userSpaceOnUse">
<stop stop-color="#00609A"/>
<stop offset="1" stop-color="#1B3646"/>
</linearGradient>
<linearGradient id="paint5_linear_94_17531" x1="110.392" y1="0.21875" x2="110.392" y2="33.0066" gradientUnits="userSpaceOnUse">
<stop stop-color="#00609A"/>
<stop offset="1" stop-color="#1B3646"/>
</linearGradient>
<clipPath id="clip0_94_17531">
<rect width="126.791" height="33" fill="white"/>
</clipPath>
</defs>
</svg>
