<svg width="165" height="40" viewBox="0 0 165 40" fill="none" xmlns="http://www.w3.org/2000/svg">
<path fill-rule="evenodd" clip-rule="evenodd" d="M133.546 29.0707L134.549 9.31768L125.762 4.87234L125.986 0.427018H164.688L164.474 4.626L154.203 9.31768L153.189 29.3198L162.733 34.2569L162.458 39.6904H122.563L122.814 34.7515L133.546 29.0707ZM91.6479 29.6012H85.7936L86.1501 22.3188L92.0128 22.3169C95.1169 22.1942 96.5008 24.9714 95.7149 26.7622C95.7149 26.7622 95.4173 29.4785 91.6479 29.6012ZM92.3657 15.4625H86.5132L86.8697 8.62016H93.0263C95.3564 8.55834 97.0287 10.2791 96.521 12.4648C96.521 12.4648 96.3736 15.4644 92.3657 15.4625ZM109.132 0.360582C109.132 0.360582 116.599 -0.442119 118.043 9.03904C118.043 9.03904 118.638 15.576 112.006 19.4106C119.236 21.5031 117.923 30.2683 117.923 30.2683C115.738 40.2283 105.56 39.6591 105.56 39.6591H56.2905L56.5918 34.7192L65.775 29.0495L66.6503 9.02613L58.042 4.83729L58.3433 0.392878L109.132 0.360582ZM27.8737 5.7664H29.0208C31.6596 5.7664 33.6856 7.97799 33.5484 10.7054L32.6427 28.5817C32.5045 31.3081 30.2526 33.5197 27.6138 33.5197H26.4667C23.8279 33.5197 21.8019 31.3091 21.9391 28.5817L22.8448 10.7054C22.984 7.97799 25.2358 5.7664 27.8737 5.7664ZM18.1717 0.391956H39.3742C48.61 0.391956 55.7045 8.13115 55.2208 17.6769L54.9831 22.3686C54.4993 31.9143 46.6198 39.6535 37.3849 39.6535H16.1815C6.94665 39.6535 -0.147881 31.9134 0.335837 22.3686L0.572628 17.6769C1.05819 8.13115 8.9368 0.391956 18.1717 0.391956Z" fill="url(#paint0_linear_94_17477)"/>
<defs>
<linearGradient id="paint0_linear_94_17477" x1="82.5" y1="0.34375" x2="82.5" y2="39.6904" gradientUnits="userSpaceOnUse">
<stop stop-color="#00609A"/>
<stop offset="1" stop-color="#1B3646"/>
</linearGradient>
</defs>
</svg>
