<svg width="136" height="47" viewBox="0 0 136 47" fill="none" xmlns="http://www.w3.org/2000/svg">
<path d="M31.5289 40.7092C36.7656 40.7092 41.0108 36.4912 41.0108 31.2882C41.0108 26.0851 36.7656 21.8672 31.5289 21.8672C26.2921 21.8672 22.0469 26.0851 22.0469 31.2882C22.0469 36.4912 26.2921 40.7092 31.5289 40.7092Z" fill="url(#paint0_linear_94_17490)"/>
<path d="M13.7066 35.6768C16.1442 35.6768 18.1203 33.7134 18.1203 31.2915C18.1203 28.8696 16.1442 26.9062 13.7066 26.9062C11.269 26.9062 9.29297 28.8696 9.29297 31.2915C9.29297 33.7134 11.269 35.6768 13.7066 35.6768Z" fill="url(#paint1_linear_94_17490)"/>
<path d="M31.5289 19.6433C34.8995 19.6433 37.632 16.9284 37.632 13.5795C37.632 10.2305 34.8995 7.51562 31.5289 7.51562C28.1582 7.51562 25.4258 10.2305 25.4258 13.5795C25.4258 16.9284 28.1582 19.6433 31.5289 19.6433Z" fill="url(#paint2_linear_94_17490)"/>
<path d="M13.7066 21.3208C18.0103 21.3208 21.4992 17.8544 21.4992 13.5783C21.4992 9.30233 18.0103 5.83594 13.7066 5.83594C9.4029 5.83594 5.91406 9.30233 5.91406 13.5783C5.91406 17.8544 9.4029 21.3208 13.7066 21.3208Z" fill="url(#paint3_linear_94_17490)"/>
<path d="M65.6626 35.6225H70.5848L61.469 10.9609H57.8987L48.7812 35.6233H53.7039L55.4448 30.9158H63.9216L65.6626 35.6233L56.8158 27.2045L59.6836 19.4495L62.5498 27.2045H56.8158L65.6626 35.6225ZM82.7867 18.7856L78.2569 31.0367L73.7292 18.7856H69.1044L75.3308 35.6225H81.1839L87.4095 18.7856H82.7859H82.7867ZM89.3451 18.7856H93.97V35.6225H89.3451V18.7856Z" fill="url(#paint4_linear_94_17490)"/>
<path d="M91.673 16.8701C93.3175 16.8701 94.6506 15.5455 94.6506 13.9116C94.6506 12.2777 93.3175 10.9531 91.673 10.9531C90.0285 10.9531 88.6953 12.2777 88.6953 13.9116C88.6953 15.5455 90.0285 16.8701 91.673 16.8701Z" fill="url(#paint5_linear_94_17490)"/>
<path d="M110.3 22.4957V18.7852H104.76V14.1406H100.138V18.7852H96.4805V22.4957H100.138V29.7396C100.138 33.4761 102.018 35.97 106.82 35.97C108.674 35.97 110.3 35.2936 110.3 35.2936L109.738 31.6582C109.738 31.6582 108.828 31.9284 107.709 31.9284C106.337 31.9284 104.76 31.341 104.76 29.4568V22.4953H110.3V22.4957ZM120.906 31.7736C118.327 31.7736 116.238 29.7425 116.238 27.2373C116.238 24.7341 118.327 22.7026 120.905 22.7026C123.484 22.7026 125.573 24.7345 125.573 27.2377C125.573 29.7429 123.484 31.774 120.906 31.774V31.7736ZM120.906 18.3555C115.893 18.3555 111.828 22.3065 111.828 27.1764C111.828 32.0485 115.893 35.9973 120.905 35.9973C125.915 35.9973 129.98 32.0485 129.98 27.1764C129.98 22.3065 125.915 18.3555 120.905 18.3555" fill="url(#paint6_linear_94_17490)"/>
<defs>
<linearGradient id="paint0_linear_94_17490" x1="31.5289" y1="21.8672" x2="31.5289" y2="40.7092" gradientUnits="userSpaceOnUse">
<stop stop-color="#00609A"/>
<stop offset="1" stop-color="#1B3646"/>
</linearGradient>
<linearGradient id="paint1_linear_94_17490" x1="13.7066" y1="26.9062" x2="13.7066" y2="35.6768" gradientUnits="userSpaceOnUse">
<stop stop-color="#00609A"/>
<stop offset="1" stop-color="#1B3646"/>
</linearGradient>
<linearGradient id="paint2_linear_94_17490" x1="31.5289" y1="7.51562" x2="31.5289" y2="19.6433" gradientUnits="userSpaceOnUse">
<stop stop-color="#00609A"/>
<stop offset="1" stop-color="#1B3646"/>
</linearGradient>
<linearGradient id="paint3_linear_94_17490" x1="13.7066" y1="5.83594" x2="13.7066" y2="21.3208" gradientUnits="userSpaceOnUse">
<stop stop-color="#00609A"/>
<stop offset="1" stop-color="#1B3646"/>
</linearGradient>
<linearGradient id="paint4_linear_94_17490" x1="71.3756" y1="10.9609" x2="71.3756" y2="35.6233" gradientUnits="userSpaceOnUse">
<stop stop-color="#00609A"/>
<stop offset="1" stop-color="#1B3646"/>
</linearGradient>
<linearGradient id="paint5_linear_94_17490" x1="91.673" y1="10.9531" x2="91.673" y2="16.8701" gradientUnits="userSpaceOnUse">
<stop stop-color="#00609A"/>
<stop offset="1" stop-color="#1B3646"/>
</linearGradient>
<linearGradient id="paint6_linear_94_17490" x1="113.23" y1="14.1406" x2="113.23" y2="35.9973" gradientUnits="userSpaceOnUse">
<stop stop-color="#00609A"/>
<stop offset="1" stop-color="#1B3646"/>
</linearGradient>
</defs>
</svg>
