<svg width="196" height="31" viewBox="0 0 196 31" fill="none" xmlns="http://www.w3.org/2000/svg">
<path fill-rule="evenodd" clip-rule="evenodd" d="M71.6708 23.9531C74.0123 23.9531 75.8866 23.3034 77.3586 22.0027C78.7942 20.832 79.7358 19.3364 80.2486 17.516C80.7438 15.7605 80.6444 14.2642 79.886 13.0292C79.1289 11.7935 77.6205 11.1438 75.2789 11.1438C72.9367 11.1438 71.0631 11.7935 69.6087 13.0292C68.1549 14.2642 67.2126 15.7605 66.7186 17.516C66.2059 19.337 66.3053 20.832 67.0806 22.0027C67.8209 23.3028 69.3292 23.9531 71.6708 23.9531ZM72.5494 20.832C71.8345 20.832 71.3218 20.5721 71.1151 19.9218C70.8896 19.337 70.9143 18.5561 71.2074 17.516C71.4823 16.5401 71.8976 15.7605 72.4708 15.1095C73.0258 14.5248 73.6841 14.2642 74.4003 14.2642C75.1158 14.2642 75.6279 14.5241 75.8534 15.1095C76.0607 15.7605 76.0354 16.5401 75.7611 17.516C75.468 18.5568 75.0528 19.337 74.4978 19.9218C73.9239 20.5715 73.2656 20.832 72.5494 20.832ZM188.052 20.2148C187.401 20.2148 187.019 19.9549 186.841 19.4345C186.597 18.9147 186.585 18.2644 186.823 17.4185C187.062 16.5726 187.458 15.8586 187.976 15.4025C188.449 14.8821 189.023 14.6872 189.627 14.6229C190.994 14.6229 191.434 15.5981 190.968 17.4835C190.73 18.3287 190.351 18.9791 189.879 19.4995C189.278 20.0205 188.702 20.2148 188.052 20.2148ZM183.955 11.4368L179.394 27.6284H184.077L185.579 22.2957C186.067 23.3359 186.961 23.8563 188.131 23.8563C189.562 23.8563 190.992 23.4009 192.456 22.3601C193.184 21.7939 193.815 21.1132 194.324 20.3447C194.852 19.6294 195.274 18.5886 195.669 17.4185C196.145 15.728 196.111 14.2324 195.548 12.9967C194.986 11.761 193.802 11.1106 191.981 11.1106C191.266 11.1106 190.561 11.3055 189.754 11.631C188.946 11.9559 188.261 12.5413 187.669 13.2566H187.604L188.116 11.4361H183.955V11.4368ZM180.095 18.5866C180.718 16.3751 180.71 14.5547 179.859 13.189C179.073 11.8227 177.518 11.108 175.307 11.108C173.421 11.108 171.695 11.6928 170.128 12.8635C168.498 14.0343 167.408 15.5948 166.822 17.6758C166.272 19.6262 166.483 21.1874 167.49 22.2269C168.415 23.3327 169.83 23.8524 171.782 23.8524C173.213 23.8524 174.587 23.5925 175.988 23.0072C177.388 22.4224 178.527 21.3816 179.404 19.886H174.916C174.694 20.2115 174.361 20.4714 173.981 20.6663C173.666 20.8612 173.257 20.9262 172.866 20.9262C172.216 20.9262 171.751 20.7313 171.424 20.2759C171.096 19.8211 171.048 19.3007 171.249 18.5854H180.095V18.5866ZM171.927 16.1802C172.311 14.8145 173.228 14.0986 174.678 14.0343C175.244 14.0992 175.71 14.2941 175.925 14.6846C176.206 15.0744 176.319 15.5948 176.154 16.1802H171.927ZM156.058 23.5815L158.494 14.9328H154.46L155.449 11.4212H168.198L167.21 14.9328H163.177L160.741 23.5815H156.058ZM153.847 16.0379C154.082 14.2824 153.733 12.9811 152.717 12.2015C151.683 11.4855 150.361 11.0957 148.8 11.0957C146.784 11.0957 145.076 11.6161 143.51 12.7868C141.964 13.8926 140.855 15.5182 140.269 17.5985C139.701 19.6145 139.911 21.175 140.902 22.2808C141.845 23.321 143.241 23.9063 145.192 23.9063C146.818 23.9063 148.425 23.5159 149.815 22.7356C150.543 22.3275 151.198 21.8 151.751 21.175C152.324 20.5253 152.739 19.7451 153.126 18.8342H148.442C148.249 19.3058 147.952 19.728 147.573 20.0692C147.204 20.4597 146.693 20.6546 146.108 20.6546C145.392 20.6546 144.945 20.3954 144.785 19.8094C144.606 19.289 144.613 18.5737 144.887 17.5985C144.979 17.2736 145.154 16.8832 145.329 16.4927C145.504 16.1022 145.679 15.7124 145.901 15.3876C146.122 15.0621 146.456 14.8022 146.771 14.6066C147.085 14.4117 147.448 14.2818 147.903 14.2818C148.423 14.2818 148.758 14.4767 148.927 14.8015C149.179 15.0614 149.181 15.5175 149.099 16.0373H153.847V16.0379ZM131.107 21.1737C130.066 21.1737 129.638 20.8482 129.821 20.1985C129.931 19.8081 130.153 19.4826 130.468 19.2877C130.783 19.0928 131.08 18.9628 131.488 18.8979C131.85 18.7679 132.324 18.7029 132.733 18.638C133.225 18.5074 133.652 18.3774 134.144 18.2475C133.97 19.0928 133.657 19.7431 133.167 20.3285C132.612 20.9138 131.953 21.1737 131.107 21.1737ZM137.928 23.5146L137.984 23.3197C137.732 23.0598 137.674 22.7999 137.683 22.5394C137.672 22.3445 137.681 22.0846 137.773 21.7591L139.366 16.1016C139.568 15.3856 139.751 14.7359 139.804 14.0856C139.902 13.5489 139.804 12.995 139.528 12.5244C139.266 12.0696 138.772 11.7441 137.999 11.4842C137.227 11.2243 136.158 11.0938 134.727 11.0938C132.516 11.0938 130.714 11.4842 129.49 12.1339C128.248 12.8499 127.5 13.89 127.133 15.1901H131.751C132.028 14.6703 132.315 14.3448 132.695 14.1493C133.122 14.02 133.401 13.9543 133.726 13.9543C134.051 13.9543 134.358 14.02 134.712 14.1493C135.001 14.2798 135.122 14.5397 135.059 14.9952C134.847 15.5149 134.301 15.8411 133.419 15.971C133.01 16.036 132.536 16.1009 132.063 16.1659C131.524 16.2302 130.986 16.2952 130.364 16.4258C129.843 16.4258 129.286 16.5557 128.776 16.7506C128.219 16.8806 127.625 17.1411 127.162 17.4003C126.698 17.6595 126.263 18.0507 125.875 18.5061C125.486 18.9615 125.192 19.5469 124.991 20.2616C124.661 21.4323 124.859 22.3425 125.54 22.9279C126.138 23.5782 127.04 23.8381 128.146 23.8381C129.056 23.8381 129.855 23.7731 130.579 23.5126C131.367 23.2527 132.146 22.798 132.961 22.2126L132.855 23.5126H137.928V23.5146ZM97.5531 23.5815L99.9895 14.9328H95.8913L96.8805 11.4212H109.694L108.705 14.9328H104.608L102.171 23.5815H97.5531ZM87.2966 20.2148C86.6467 20.2148 86.2646 19.9549 86.0852 19.4345C85.8415 18.9147 85.8292 18.2644 86.0677 17.4185C86.3055 16.5733 86.7026 15.8586 87.2212 15.4025C87.693 14.8821 88.2682 14.6872 88.8719 14.6229C90.238 14.6229 90.6786 15.5981 90.212 17.4835C89.9741 18.3287 89.5952 18.9791 89.1234 19.4995C88.5229 20.0205 87.9471 20.2148 87.2966 20.2148ZM83.2004 11.4368L78.6395 27.6284H83.3232L84.8251 22.2957C85.3125 23.3359 86.2067 23.8563 87.3778 23.8563C88.8089 23.8563 90.238 23.4009 91.7015 22.3601C92.4294 21.7939 93.0604 21.1132 93.5699 20.3447C94.097 19.6294 94.5201 18.5886 94.9152 17.4185C95.3916 15.728 95.3571 14.2324 94.795 12.9967C94.2322 11.761 93.0487 11.1106 91.2278 11.1106C90.5122 11.1106 89.8071 11.3055 89 11.631C88.1928 11.9559 87.5072 12.5413 86.9151 13.2566H86.8501L87.3629 11.4361H83.2004V11.4368ZM50.4221 23.5815H55.0409L57.476 14.9328H61.1842L58.7478 23.5815H63.4315L66.8564 11.4212H53.847L50.4221 23.5815ZM51.1156 16.0379C51.3502 14.2824 51.0005 12.9811 49.9848 12.2015C48.9508 11.4855 47.6296 11.0957 46.0679 11.0957C44.0513 11.0957 42.3447 11.6161 40.7785 12.7868C39.2318 13.8926 38.1231 15.5182 37.5369 17.5985C36.9695 19.6145 37.1801 21.175 38.1692 22.2808C39.1122 23.321 40.5088 23.9063 42.4597 23.9063C44.0858 23.9063 45.6923 23.5159 47.0824 22.7356C47.8105 22.3274 48.465 21.7999 49.0184 21.175C49.5916 20.5253 50.0069 19.7451 50.3935 18.8342H45.7098C45.5171 19.306 45.2203 19.7281 44.8416 20.0692C44.4718 20.4597 43.9616 20.6546 43.3761 20.6546C42.6606 20.6546 42.2134 20.3954 42.0529 19.8094C41.8742 19.289 41.8807 18.5737 42.1556 17.5985C42.2472 17.2736 42.422 16.8832 42.5975 16.4927C42.7723 16.1022 42.9472 15.7124 43.1688 15.3876C43.3904 15.0621 43.7238 14.8022 44.039 14.6066C44.3542 14.4117 44.7161 14.2818 45.1717 14.2818C45.6916 14.2818 46.027 14.4767 46.1959 14.8015C46.4474 15.0614 46.4494 15.5175 46.3682 16.0373H51.1156V16.0379Z" fill="url(#paint0_linear_94_17734)"/>
<path fill-rule="evenodd" clip-rule="evenodd" d="M111.961 7.63847L115.159 22.5225L126.815 7.53906L117.524 14.0653L111.961 7.63847Z" fill="url(#paint1_linear_94_17734)"/>
<path fill-rule="evenodd" clip-rule="evenodd" d="M110.999 11.4219L107.535 23.541H113.531L110.999 11.4219ZM125.718 11.4219L116.459 23.541H122.254L125.718 11.4219Z" fill="url(#paint2_linear_94_17734)"/>
<path fill-rule="evenodd" clip-rule="evenodd" d="M36.4878 5.0625L25.1635 17.9004L0 5.17035L23.7871 10.184L36.4878 5.0625Z" fill="url(#paint3_linear_94_17734)"/>
<path fill-rule="evenodd" clip-rule="evenodd" d="M2.26562 30.3687L15.5363 15.3234L45.0267 30.2426L17.1493 24.366L2.26562 30.3687ZM23.0437 0.403633C20.8666 0.579703 19.2335 2.49958 19.4102 4.67739C19.587 6.8552 21.5074 8.48726 23.6845 8.31054C25.8629 8.13447 27.4954 6.21459 27.3187 4.03743C27.1426 1.85962 25.2222 0.227564 23.0437 0.403633Z" fill="url(#paint4_linear_94_17734)"/>
<defs>
<linearGradient id="paint0_linear_94_17734" x1="116.613" y1="11.0937" x2="116.613" y2="27.6284" gradientUnits="userSpaceOnUse">
<stop stop-color="#00609A"/>
<stop offset="1" stop-color="#1B3646"/>
</linearGradient>
<linearGradient id="paint1_linear_94_17734" x1="119.388" y1="7.53906" x2="119.388" y2="22.5225" gradientUnits="userSpaceOnUse">
<stop stop-color="#00609A"/>
<stop offset="1" stop-color="#1B3646"/>
</linearGradient>
<linearGradient id="paint2_linear_94_17734" x1="116.626" y1="11.4219" x2="116.626" y2="23.541" gradientUnits="userSpaceOnUse">
<stop stop-color="#00609A"/>
<stop offset="1" stop-color="#1B3646"/>
</linearGradient>
<linearGradient id="paint3_linear_94_17734" x1="18.2439" y1="5.0625" x2="18.2439" y2="17.9004" gradientUnits="userSpaceOnUse">
<stop stop-color="#00609A"/>
<stop offset="1" stop-color="#1B3646"/>
</linearGradient>
<linearGradient id="paint4_linear_94_17734" x1="23.6462" y1="0.390625" x2="23.6462" y2="30.3687" gradientUnits="userSpaceOnUse">
<stop stop-color="#00609A"/>
<stop offset="1" stop-color="#1B3646"/>
</linearGradient>
</defs>
</svg>
