<svg width="109" height="78" viewBox="0 0 109 78" fill="none" xmlns="http://www.w3.org/2000/svg">
<path fill-rule="evenodd" clip-rule="evenodd" d="M4.78565 19.8185C4.78565 9.22674 26.2145 0.640625 52.6497 0.640625C79.0844 0.640625 100.514 9.22674 100.514 19.8185C100.514 30.4103 79.0844 38.9964 52.6497 38.9964C26.215 38.9964 4.78565 30.4109 4.78565 19.8185ZM63.3252 21.4978C63.3187 21.4662 63.3028 21.4374 63.2797 21.4151C63.2565 21.3928 63.2272 21.378 63.1955 21.3727C61.8179 21.1711 60.4344 21.0129 59.0469 20.8984C58.9652 20.8842 58.9074 20.8083 58.9614 20.6287C63.3851 15.966 65.0654 10.0331 62.8287 5.39116C62.8312 5.37001 62.8378 5.34956 62.8482 5.33098C62.8586 5.31239 62.8726 5.29605 62.8893 5.28287C62.906 5.26968 62.9251 5.25993 62.9456 5.25416C62.966 5.24838 62.9874 5.24671 63.0085 5.24922C78.2315 7.09877 89.3462 12.922 89.3462 19.8185C89.3462 28.2038 72.9172 35.0015 52.6503 35.0015C32.3834 35.0015 15.9538 28.2043 15.9538 19.8185C15.9538 12.5497 28.3019 6.47316 44.7936 4.98445C44.8737 4.98718 44.9412 5.04887 44.9456 5.17552L41.365 24.9255C41.298 25.2726 41.3085 25.6301 41.3957 25.9726C41.4829 26.3151 41.6446 26.634 41.8692 26.9066C42.0938 27.1792 42.3758 27.3986 42.695 27.5493C43.0142 27.6999 43.3627 27.778 43.7155 27.7779L43.8436 27.7845C47.0373 27.618 50.4692 26.6195 53.7108 24.7449C54.6295 24.2136 55.5136 23.6247 56.3579 22.9816C56.3822 22.9616 56.4118 22.9493 56.4431 22.9463C56.4743 22.9433 56.5058 22.9497 56.5334 22.9646C57.613 23.6847 58.2343 24.5276 58.2343 25.4294C58.2343 26.6545 57.0877 27.7719 55.2014 28.6197C53.01 29.6046 49.8201 30.2236 46.2683 30.2236C43.2583 30.2236 40.5082 29.7787 38.3745 29.0363C38.3539 29.0326 38.3327 29.033 38.3122 29.0376C38.2917 29.0421 38.2724 29.0507 38.2552 29.0627C38.238 29.0748 38.2234 29.0902 38.2122 29.1079C38.2009 29.1257 38.1933 29.1455 38.1898 29.1662L37.8857 30.8405C37.8805 30.8804 37.8905 30.9207 37.9136 30.9536C37.9367 30.9864 37.9713 31.0094 38.0105 31.0179C42.3503 32.0295 47.3414 32.6049 52.6535 32.6049C59.2617 32.6049 64.6201 30.4578 64.6201 27.8107C64.6201 26.7806 63.8102 25.8269 62.4325 25.0462C61.2253 24.4533 60.465 23.6847 60.6514 23.1693C60.8449 22.6349 61.9997 22.5492 63.3715 22.9193C63.4494 22.9297 63.5247 22.8827 63.5525 22.743L63.3252 21.4978ZM52.6497 9.40962C52.6497 9.51334 52.6465 9.61652 52.6399 9.71751C52.8143 13.237 50.6419 17.9455 46.6727 21.9214C45.8848 22.712 45.0457 23.4497 44.1608 24.1296C44.1259 24.152 44.0836 24.1596 44.0431 24.1509C43.9602 24.1334 43.9063 24.0543 43.921 23.9571L47.8112 2.5071C47.8091 2.46744 47.7924 2.42998 47.7643 2.40194C47.7362 2.37391 47.6988 2.35731 47.6592 2.35534C26.2189 3.36528 9.57184 10.7984 9.57184 19.8185C9.57184 29.5276 28.8583 37.398 52.6497 37.398C76.4417 37.398 95.7282 29.5276 95.7282 19.8185C95.7282 10.1095 76.4422 2.23906 52.6497 2.23906C51.896 2.23906 51.1461 2.24725 50.394 2.26308C50.3583 2.26324 50.3238 2.27529 50.2957 2.29734C50.2677 2.31939 50.2478 2.35017 50.2392 2.38482L49.7841 4.88783C49.7732 4.95497 49.8048 5.01884 49.8604 5.05215C50.693 5.43485 51.3984 6.04887 51.8928 6.82129C52.3872 7.59371 52.65 8.49206 52.6497 9.40962ZM8.03984 48.5854V72.0744H21.0599V77.3599H0V48.5854H8.03984ZM39.4972 65.7003L35.7411 55.221L31.986 65.7003H39.4972ZM40.8488 48.598L51.7652 77.3523H43.4027L40.9987 70.5622H30.484L28.0806 77.3523H21.37L32.1855 48.598H40.8488ZM60.671 72.058H64.2757C66.429 72.058 69.2837 71.6819 71.1361 69.2078C72.9875 66.7354 73.0387 63.8426 73.0387 62.6694C73.0387 61.1594 72.8382 58.1007 70.686 55.9623C68.682 54.0347 66.078 53.8666 64.1258 53.8666H60.671V72.058ZM52.6584 48.5854H64.4255C67.8312 48.5854 72.988 48.9206 76.9447 52.3162C80.1493 55.0408 81.6514 59.484 81.6514 62.9211C81.6514 65.4355 80.8513 70.5911 76.4444 74.0708C72.9384 76.8369 68.9834 77.3403 65.2774 77.3403H52.659V48.5854H52.6584ZM96.7321 65.6872L92.977 55.2084L89.2214 65.6872H96.7321ZM98.0842 48.5854L109 77.3397H100.638L98.2346 70.5491H87.7194L85.3148 77.3397H78.6048L89.4214 48.5849H98.0842V48.5854Z" fill="url(#paint0_linear_94_17723)"/>
<defs>
<linearGradient id="paint0_linear_94_17723" x1="54.5" y1="0.640625" x2="54.5" y2="77.3599" gradientUnits="userSpaceOnUse">
<stop stop-color="#00609A"/>
<stop offset="1" stop-color="#1B3646"/>
</linearGradient>
</defs>
</svg>
