<svg width="162" height="83" viewBox="0 0 162 83" fill="none" xmlns="http://www.w3.org/2000/svg">
<path fill-rule="evenodd" clip-rule="evenodd" d="M61.4438 61.9981V60.5715H57.8146V61.9981H57.3906V58.9375H57.8146V60.2646H61.4438V58.9375H61.8627V61.9981H61.4438Z" fill="url(#paint0_linear_94_17589)"/>
<path fill-rule="evenodd" clip-rule="evenodd" d="M63.2891 61.9981V58.9375H66.9041V59.2427H63.7063V60.2646H66.8196V60.5673H63.7063V61.6912H66.9041V61.9981H63.2891Z" fill="url(#paint1_linear_94_17589)"/>
<path fill-rule="evenodd" clip-rule="evenodd" d="M74.2416 60.6531V60.2718C74.2416 59.5443 73.8803 59.178 72.7356 59.178H71.4896V58.9062H71.0648V59.178H69.8339C68.6816 59.178 68.3203 59.4832 68.3203 60.2718V60.6531C68.3203 61.4316 68.7284 61.7009 69.8339 61.7009H71.0648V62.0019H71.4896V61.7009H72.7356C73.8344 61.7009 74.2416 61.4459 74.2416 60.6531ZM73.816 60.6531C73.816 61.2427 73.5308 61.3982 72.7356 61.3982H71.4896V59.4841H72.7356C73.4907 59.4841 73.816 59.6614 73.816 60.2551V60.6531ZM71.0648 61.3982H69.8339C69.0378 61.3982 68.7342 61.2427 68.7342 60.6489V60.2417C68.7342 59.6563 69.0671 59.4841 69.8339 59.4841H71.0648V61.3982Z" fill="url(#paint2_linear_94_17589)"/>
<path fill-rule="evenodd" clip-rule="evenodd" d="M77.4693 59.2427V61.9981H77.8916V59.2427H79.8876V58.9375H75.4883V59.2427H77.4693Z" fill="url(#paint3_linear_94_17589)"/>
<path fill-rule="evenodd" clip-rule="evenodd" d="M85.2144 61.9972V58.9375H82.4632C81.4472 58.9375 81.0283 59.1892 81.0283 59.8849C81.0283 60.4603 81.4472 60.7287 82.2483 60.7287L80.8594 61.9981H81.4472L82.7543 60.7287H84.7888V61.9981H85.2144V61.9972ZM84.7888 60.426H82.3303C81.6764 60.426 81.4481 60.3407 81.4481 59.8849C81.4481 59.41 81.6872 59.2419 82.2885 59.2419H84.7888V60.426Z" fill="url(#paint4_linear_94_17589)"/>
<path fill-rule="evenodd" clip-rule="evenodd" d="M90.8029 61.9981V60.5715H87.1762V61.9981H86.7539V58.9375H87.1762V60.2646H90.8029V58.9375H91.2269V61.9981H90.8029Z" fill="url(#paint5_linear_94_17589)"/>
<path fill-rule="evenodd" clip-rule="evenodd" d="M97.227 61.9972L95.1114 58.9375H94.4616L92.3477 61.9972H92.8143L93.3394 61.2296H96.211L96.7311 61.9972H97.227ZM95.9902 60.9168H93.5685L94.776 59.1566L95.9902 60.9168Z" fill="url(#paint6_linear_94_17589)"/>
<path fill-rule="evenodd" clip-rule="evenodd" d="M102.052 61.9981V60.7287H100.018L98.7045 61.9981H98.125L99.5039 60.7287C98.7045 60.7287 98.2906 60.4603 98.2906 59.8849C98.2906 59.1892 98.7045 58.9375 99.7205 58.9375H102.478V61.9972H102.052V61.9981ZM102.052 59.2427H99.5524C98.9529 59.2427 98.7045 59.41 98.7045 59.8858C98.7045 60.3423 98.9353 60.4268 99.5926 60.4268H102.052V59.2427Z" fill="url(#paint7_linear_94_17589)"/>
<path fill-rule="evenodd" clip-rule="evenodd" d="M110.315 61.9981H111.057L108.103 60.3942L110.991 58.9375H110.242L107.664 60.2504H106.979V58.9375H106.555V61.9981H106.979V60.5581H107.682L110.315 61.9981Z" fill="url(#paint8_linear_94_17589)"/>
<path fill-rule="evenodd" clip-rule="evenodd" d="M116.552 60.9533C116.552 61.5521 116.352 61.6967 115.494 61.6967H113.707C112.912 61.6967 112.615 61.5429 112.615 60.9533V59.9766C112.615 59.3812 112.941 59.2198 113.707 59.2198H115.494C116.309 59.2198 116.552 59.3712 116.552 59.9766V60.9533ZM116.971 60.9533V59.9958C116.971 59.1061 116.485 58.9062 115.494 58.9062H113.712C112.552 58.9062 112.191 59.219 112.191 59.9958V60.9533C112.191 61.7394 112.603 62.0028 113.712 62.0028H115.494C116.58 62.0028 116.971 61.8247 116.971 60.9533Z" fill="url(#paint9_linear_94_17589)"/>
<path fill-rule="evenodd" clip-rule="evenodd" d="M123.394 58.9375H124.303V61.9981H123.879V59.1859H123.644L121.44 61.9981H121.223L119.022 59.1859H118.784V61.9981H118.363V58.9375H119.266L121.337 61.5473L123.394 58.9375Z" fill="url(#paint10_linear_94_17589)"/>
<path fill-rule="evenodd" clip-rule="evenodd" d="M126.245 61.9981V59.2427H129.863V61.9981H130.29V58.9375H125.816V61.9981H126.245Z" fill="url(#paint11_linear_94_17589)"/>
<path fill-rule="evenodd" clip-rule="evenodd" d="M135.796 61.9972L135.277 61.2296H132.406L131.873 61.9972H131.406L133.525 58.9375H134.167L136.283 61.9972H135.796ZM133.846 59.1557L132.63 60.916H135.056L133.846 59.1557Z" fill="url(#paint12_linear_94_17589)"/>
<path fill-rule="evenodd" clip-rule="evenodd" d="M141.963 61.9981V58.9375H141.543V60.2646H137.921V58.9375H137.492V61.9981H137.921V60.5715H141.543V61.9981H141.963Z" fill="url(#paint13_linear_94_17589)"/>
<path fill-rule="evenodd" clip-rule="evenodd" d="M147.889 61.9981V58.9375H147.065L143.837 61.7597H143.8V58.9375H143.383V61.9981H144.069L147.306 59.1741H147.462V61.9981H147.889Z" fill="url(#paint14_linear_94_17589)"/>
<path fill-rule="evenodd" clip-rule="evenodd" d="M153 60.426H150.536C149.879 60.426 149.658 60.3407 149.658 59.8849C149.658 59.41 149.89 59.2419 150.49 59.2419H153V60.426ZM153.416 61.9972V58.9375H150.667C149.658 58.9375 149.234 59.1892 149.234 59.8849C149.234 60.4603 149.658 60.7287 150.456 60.7287L149.062 61.9981H149.658L150.958 60.7287H153V61.9981H153.416V61.9972Z" fill="url(#paint15_linear_94_17589)"/>
<path fill-rule="evenodd" clip-rule="evenodd" d="M57.352 66.5294C57.352 66.5294 66.5471 66.4057 67.2838 66.899C68.0197 67.3857 68.7547 67.8824 68.8776 68.8583C68.9997 69.84 68.3876 72.9006 66.0571 73.0252C63.7299 73.1473 61.0364 72.9006 61.0364 72.9006L60.916 75.3532L57.2383 75.2312L57.352 66.5294Z" fill="url(#paint16_linear_94_17589)"/>
<path fill-rule="evenodd" clip-rule="evenodd" d="M61.1578 68.979L61.0391 70.4524C61.0391 70.4524 63.9775 71.0628 64.5897 70.4524C65.2026 69.8411 64.7109 68.8594 63.7334 68.8594C62.755 68.8594 61.1578 68.979 61.1578 68.979Z" fill="#EFF5F8"/>
<path fill-rule="evenodd" clip-rule="evenodd" d="M68.8799 68.8645C69.865 67.7632 71.5793 66.0456 75.4945 66.2889C79.4172 66.5356 81.5052 68.1244 81.5052 69.9733C81.5052 71.8055 81.6214 74.2556 79.2934 74.9873C76.9679 75.7265 74.6357 75.7265 73.0443 75.4857C71.4505 75.2373 68.8799 73.7639 68.5137 71.8063C68.1449 69.8454 68.8799 68.8645 68.8799 68.8645Z" fill="url(#paint17_linear_94_17589)"/>
<path fill-rule="evenodd" clip-rule="evenodd" d="M72.5563 71.1841C72.3322 69.6011 73.6551 68.6094 74.7581 68.6094C75.8594 68.6094 77.6932 68.734 77.572 70.8187C77.4524 72.9 77.3345 72.7771 76.2323 73.1467C75.1285 73.5138 72.9217 73.8851 72.5563 71.1841Z" fill="#EFF5F8"/>
<path fill-rule="evenodd" clip-rule="evenodd" d="M94.6091 69.9713C93.9995 68.8625 92.6557 66.7753 90.5676 66.6574C88.4854 66.5336 85.6648 66.2869 84.3185 66.7753C82.9672 67.2703 81.8734 68.4912 81.6251 69.5942C81.3817 70.7005 81.1292 73.1515 82.7264 74.2536C84.3177 75.3566 86.8974 76.2171 89.3442 75.7245C91.7902 75.2354 94.1207 74.2536 94.4887 72.1698H90.3251C90.3251 72.1698 89.2171 73.6424 87.8741 73.5186C87.8741 73.5186 86.6407 73.8899 85.7861 72.6665C84.9331 71.4347 85.0527 70.3334 85.9082 69.2288C86.7737 68.1225 89.0967 68.4904 89.3434 68.9821C89.5867 69.4738 89.9547 70.2072 89.9547 70.2072L94.6091 69.9713Z" fill="url(#paint18_linear_94_17589)"/>
<path fill-rule="evenodd" clip-rule="evenodd" d="M94.2449 66.7737H98.0455V69.7189H101.838V66.5312H105.763V75.3551H102.084V72.4141H98.1684V75.3551H94.1211L94.2449 66.7737Z" fill="url(#paint19_linear_94_17589)"/>
<path fill-rule="evenodd" clip-rule="evenodd" d="M106.992 66.5312L117.897 66.6558V68.861H111.282V69.7189H116.797V72.1682H111.034V73.2762H118.141V75.6009H107.113L106.992 66.5312Z" fill="url(#paint20_linear_94_17589)"/>
<path fill-rule="evenodd" clip-rule="evenodd" d="M123.531 66.5312H127.331C127.331 66.5312 127.089 67.1459 127.584 67.0246C128.066 66.9017 131.375 66.7729 132.359 68.0047C133.337 69.2272 133.707 70.8211 132.723 71.9249C131.739 73.0287 130.882 73.517 130.276 73.517C129.657 73.517 127.584 73.64 127.584 73.64V75.6009H123.531V73.517C123.531 73.517 120.957 73.3941 120.099 73.1499C119.246 72.9033 117.648 71.9249 117.648 70.3327C117.648 68.738 118.506 67.3884 119.736 67.2688C120.957 67.1467 123.286 67.1467 123.286 67.1467L123.531 66.5312Z" fill="url(#paint21_linear_94_17589)"/>
<path fill-rule="evenodd" clip-rule="evenodd" d="M123.531 69.2319L123.408 71.0691C123.408 71.0691 121.449 71.3158 121.449 70.5849C121.449 69.8466 121.819 69.1107 123.531 69.2319Z" fill="#EFF5F8"/>
<path fill-rule="evenodd" clip-rule="evenodd" d="M127.582 69.3514L127.698 71.0673C127.698 71.0673 128.801 71.5599 129.418 70.7011C130.024 69.8439 128.922 69.2293 127.582 69.3514Z" fill="#EFF5F8"/>
<path fill-rule="evenodd" clip-rule="evenodd" d="M135.295 69.2318V75.7276H139.215V69.2318H142.767L143.509 68.2542L142.407 66.9062H132.113C132.115 66.9062 131.62 68.8655 132.722 68.9851C133.824 69.1105 135.295 69.2318 135.295 69.2318Z" fill="url(#paint22_linear_94_17589)"/>
<path fill-rule="evenodd" clip-rule="evenodd" d="M146.688 66.9062V69.3539C146.688 69.3539 151.349 69.1105 152.208 69.5972C153.065 70.0889 153.922 70.8265 154.044 71.6794C154.166 72.5424 153.922 73.8929 153.065 74.6246C152.208 75.3596 151.23 75.8488 150.242 75.8488H143.141V67.0292L146.688 66.9062Z" fill="url(#paint23_linear_94_17589)"/>
<path fill-rule="evenodd" clip-rule="evenodd" d="M147.062 71.9255V73.3947H149.509C150.119 73.3947 150.981 72.0476 149.876 71.8034C148.775 71.5575 147.062 71.9255 147.062 71.9255Z" fill="#EFF5F8"/>
<path fill-rule="evenodd" clip-rule="evenodd" d="M7.10938 26.0938H13.3618V47.2961L7.10938 41.7788V26.0938Z" fill="url(#paint24_linear_94_17589)"/>
<path fill-rule="evenodd" clip-rule="evenodd" d="M14.5898 19.1094H20.5939V54.1596L14.5898 48.3922V19.1094Z" fill="url(#paint25_linear_94_17589)"/>
<path fill-rule="evenodd" clip-rule="evenodd" d="M21.8203 12.125H27.9481V45.333H21.8203V12.125Z" fill="url(#paint26_linear_94_17589)"/>
<path fill-rule="evenodd" clip-rule="evenodd" d="M29.1719 5.14062H35.5447V38.4716H29.1719V5.14062Z" fill="url(#paint27_linear_94_17589)"/>
<path fill-rule="evenodd" clip-rule="evenodd" d="M36.4023 11.75H42.5318V45.3293H36.4023V11.75Z" fill="url(#paint28_linear_94_17589)"/>
<path fill-rule="evenodd" clip-rule="evenodd" d="M44 18.9844H50.0041V48.2747L44 54.1634V18.9844Z" fill="url(#paint29_linear_94_17589)"/>
<path fill-rule="evenodd" clip-rule="evenodd" d="M51.1055 25.9688H57.2383V41.2892L51.1055 47.2949V25.9688Z" fill="url(#paint30_linear_94_17589)"/>
<path fill-rule="evenodd" clip-rule="evenodd" d="M21.8203 46.0781H27.9481V76.8268H21.8203V46.0781Z" fill="url(#paint31_linear_94_17589)"/>
<path fill-rule="evenodd" clip-rule="evenodd" d="M29.1719 39.4531H35.1743V76.8197H29.1719V39.4531Z" fill="url(#paint32_linear_94_17589)"/>
<path fill-rule="evenodd" clip-rule="evenodd" d="M36.4023 46.1875H42.5318V76.8191H36.4023V46.1875Z" fill="url(#paint33_linear_94_17589)"/>
<defs>
<linearGradient id="paint0_linear_94_17589" x1="59.6267" y1="58.9375" x2="59.6267" y2="61.9981" gradientUnits="userSpaceOnUse">
<stop stop-color="#00609A"/>
<stop offset="1" stop-color="#1B3646"/>
</linearGradient>
<linearGradient id="paint1_linear_94_17589" x1="65.0966" y1="58.9375" x2="65.0966" y2="61.9981" gradientUnits="userSpaceOnUse">
<stop stop-color="#00609A"/>
<stop offset="1" stop-color="#1B3646"/>
</linearGradient>
<linearGradient id="paint2_linear_94_17589" x1="71.281" y1="58.9062" x2="71.281" y2="62.0019" gradientUnits="userSpaceOnUse">
<stop stop-color="#00609A"/>
<stop offset="1" stop-color="#1B3646"/>
</linearGradient>
<linearGradient id="paint3_linear_94_17589" x1="77.688" y1="58.9375" x2="77.688" y2="61.9981" gradientUnits="userSpaceOnUse">
<stop stop-color="#00609A"/>
<stop offset="1" stop-color="#1B3646"/>
</linearGradient>
<linearGradient id="paint4_linear_94_17589" x1="83.0369" y1="58.9375" x2="83.0369" y2="61.9981" gradientUnits="userSpaceOnUse">
<stop stop-color="#00609A"/>
<stop offset="1" stop-color="#1B3646"/>
</linearGradient>
<linearGradient id="paint5_linear_94_17589" x1="88.9904" y1="58.9375" x2="88.9904" y2="61.9981" gradientUnits="userSpaceOnUse">
<stop stop-color="#00609A"/>
<stop offset="1" stop-color="#1B3646"/>
</linearGradient>
<linearGradient id="paint6_linear_94_17589" x1="94.7873" y1="58.9375" x2="94.7873" y2="61.9972" gradientUnits="userSpaceOnUse">
<stop stop-color="#00609A"/>
<stop offset="1" stop-color="#1B3646"/>
</linearGradient>
<linearGradient id="paint7_linear_94_17589" x1="100.301" y1="58.9375" x2="100.301" y2="61.9981" gradientUnits="userSpaceOnUse">
<stop stop-color="#00609A"/>
<stop offset="1" stop-color="#1B3646"/>
</linearGradient>
<linearGradient id="paint8_linear_94_17589" x1="108.806" y1="58.9375" x2="108.806" y2="61.9981" gradientUnits="userSpaceOnUse">
<stop stop-color="#00609A"/>
<stop offset="1" stop-color="#1B3646"/>
</linearGradient>
<linearGradient id="paint9_linear_94_17589" x1="114.581" y1="58.9062" x2="114.581" y2="62.0028" gradientUnits="userSpaceOnUse">
<stop stop-color="#00609A"/>
<stop offset="1" stop-color="#1B3646"/>
</linearGradient>
<linearGradient id="paint10_linear_94_17589" x1="121.333" y1="58.9375" x2="121.333" y2="61.9981" gradientUnits="userSpaceOnUse">
<stop stop-color="#00609A"/>
<stop offset="1" stop-color="#1B3646"/>
</linearGradient>
<linearGradient id="paint11_linear_94_17589" x1="128.053" y1="58.9375" x2="128.053" y2="61.9981" gradientUnits="userSpaceOnUse">
<stop stop-color="#00609A"/>
<stop offset="1" stop-color="#1B3646"/>
</linearGradient>
<linearGradient id="paint12_linear_94_17589" x1="133.845" y1="58.9375" x2="133.845" y2="61.9972" gradientUnits="userSpaceOnUse">
<stop stop-color="#00609A"/>
<stop offset="1" stop-color="#1B3646"/>
</linearGradient>
<linearGradient id="paint13_linear_94_17589" x1="139.728" y1="58.9375" x2="139.728" y2="61.9981" gradientUnits="userSpaceOnUse">
<stop stop-color="#00609A"/>
<stop offset="1" stop-color="#1B3646"/>
</linearGradient>
<linearGradient id="paint14_linear_94_17589" x1="145.636" y1="58.9375" x2="145.636" y2="61.9981" gradientUnits="userSpaceOnUse">
<stop stop-color="#00609A"/>
<stop offset="1" stop-color="#1B3646"/>
</linearGradient>
<linearGradient id="paint15_linear_94_17589" x1="151.239" y1="58.9375" x2="151.239" y2="61.9981" gradientUnits="userSpaceOnUse">
<stop stop-color="#00609A"/>
<stop offset="1" stop-color="#1B3646"/>
</linearGradient>
<linearGradient id="paint16_linear_94_17589" x1="63.0653" y1="66.5156" x2="63.0653" y2="75.3532" gradientUnits="userSpaceOnUse">
<stop stop-color="#00609A"/>
<stop offset="1" stop-color="#1B3646"/>
</linearGradient>
<linearGradient id="paint17_linear_94_17589" x1="74.9582" y1="66.2656" x2="74.9582" y2="75.6289" gradientUnits="userSpaceOnUse">
<stop stop-color="#00609A"/>
<stop offset="1" stop-color="#1B3646"/>
</linearGradient>
<linearGradient id="paint18_linear_94_17589" x1="88.0272" y1="66.4844" x2="88.0272" y2="75.8666" gradientUnits="userSpaceOnUse">
<stop stop-color="#00609A"/>
<stop offset="1" stop-color="#1B3646"/>
</linearGradient>
<linearGradient id="paint19_linear_94_17589" x1="99.942" y1="66.5312" x2="99.942" y2="75.3551" gradientUnits="userSpaceOnUse">
<stop stop-color="#00609A"/>
<stop offset="1" stop-color="#1B3646"/>
</linearGradient>
<linearGradient id="paint20_linear_94_17589" x1="112.566" y1="66.5312" x2="112.566" y2="75.6009" gradientUnits="userSpaceOnUse">
<stop stop-color="#00609A"/>
<stop offset="1" stop-color="#1B3646"/>
</linearGradient>
<linearGradient id="paint21_linear_94_17589" x1="125.475" y1="66.5312" x2="125.475" y2="75.6009" gradientUnits="userSpaceOnUse">
<stop stop-color="#00609A"/>
<stop offset="1" stop-color="#1B3646"/>
</linearGradient>
<linearGradient id="paint22_linear_94_17589" x1="137.756" y1="66.9062" x2="137.756" y2="75.7276" gradientUnits="userSpaceOnUse">
<stop stop-color="#00609A"/>
<stop offset="1" stop-color="#1B3646"/>
</linearGradient>
<linearGradient id="paint23_linear_94_17589" x1="148.607" y1="66.9062" x2="148.607" y2="75.8488" gradientUnits="userSpaceOnUse">
<stop stop-color="#00609A"/>
<stop offset="1" stop-color="#1B3646"/>
</linearGradient>
<linearGradient id="paint24_linear_94_17589" x1="10.2356" y1="26.0938" x2="10.2356" y2="47.2961" gradientUnits="userSpaceOnUse">
<stop stop-color="#00609A"/>
<stop offset="1" stop-color="#1B3646"/>
</linearGradient>
<linearGradient id="paint25_linear_94_17589" x1="17.5919" y1="19.1094" x2="17.5919" y2="54.1596" gradientUnits="userSpaceOnUse">
<stop stop-color="#00609A"/>
<stop offset="1" stop-color="#1B3646"/>
</linearGradient>
<linearGradient id="paint26_linear_94_17589" x1="24.8842" y1="12.125" x2="24.8842" y2="45.333" gradientUnits="userSpaceOnUse">
<stop stop-color="#00609A"/>
<stop offset="1" stop-color="#1B3646"/>
</linearGradient>
<linearGradient id="paint27_linear_94_17589" x1="32.3583" y1="5.14062" x2="32.3583" y2="38.4716" gradientUnits="userSpaceOnUse">
<stop stop-color="#00609A"/>
<stop offset="1" stop-color="#1B3646"/>
</linearGradient>
<linearGradient id="paint28_linear_94_17589" x1="39.4671" y1="11.75" x2="39.4671" y2="45.3293" gradientUnits="userSpaceOnUse">
<stop stop-color="#00609A"/>
<stop offset="1" stop-color="#1B3646"/>
</linearGradient>
<linearGradient id="paint29_linear_94_17589" x1="47.002" y1="18.9844" x2="47.002" y2="54.1634" gradientUnits="userSpaceOnUse">
<stop stop-color="#00609A"/>
<stop offset="1" stop-color="#1B3646"/>
</linearGradient>
<linearGradient id="paint30_linear_94_17589" x1="54.1719" y1="25.9688" x2="54.1719" y2="47.2949" gradientUnits="userSpaceOnUse">
<stop stop-color="#00609A"/>
<stop offset="1" stop-color="#1B3646"/>
</linearGradient>
<linearGradient id="paint31_linear_94_17589" x1="24.8842" y1="46.0781" x2="24.8842" y2="76.8268" gradientUnits="userSpaceOnUse">
<stop stop-color="#00609A"/>
<stop offset="1" stop-color="#1B3646"/>
</linearGradient>
<linearGradient id="paint32_linear_94_17589" x1="32.1731" y1="39.4531" x2="32.1731" y2="76.8197" gradientUnits="userSpaceOnUse">
<stop stop-color="#00609A"/>
<stop offset="1" stop-color="#1B3646"/>
</linearGradient>
<linearGradient id="paint33_linear_94_17589" x1="39.4671" y1="46.1875" x2="39.4671" y2="76.8191" gradientUnits="userSpaceOnUse">
<stop stop-color="#00609A"/>
<stop offset="1" stop-color="#1B3646"/>
</linearGradient>
</defs>
</svg>
