<svg width="123" height="49" viewBox="0 0 123 49" fill="none" xmlns="http://www.w3.org/2000/svg">
<path fill-rule="evenodd" clip-rule="evenodd" d="M122.482 49H0V0H122.5V49H122.482Z" fill="url(#paint0_linear_94_17582)"/>
<path fill-rule="evenodd" clip-rule="evenodd" d="M2.44922 24.5031C2.44922 36.5479 27.0917 46.5531 61.258 46.5531C95.4243 46.5531 120.049 36.5479 120.049 24.5031C120.049 12.4583 95.4068 2.45312 61.258 2.45312C27.1092 2.45312 2.44922 12.4583 2.44922 24.5031Z" fill="#EFF5F8"/>
<path d="M56.8988 31.8589C57.285 32.4073 57.7064 32.9214 58.198 33.3842H44.9421C44.9421 32.87 44.433 31.8246 43.871 31.002C43.3093 30.1793 40.2718 25.672 40.2718 25.672V31.8589C40.2718 32.373 40.2718 32.87 40.5351 33.3842H29.4915C29.7549 32.87 29.7549 32.373 29.7549 31.8589V17.1541C29.7549 16.6399 29.7549 16.143 29.4915 15.6288H40.5351C40.2718 16.143 40.2718 16.6399 40.2718 17.1541V23.581C40.2718 23.581 43.8009 19.0908 44.6085 18.0453C45.223 17.257 45.978 16.1428 45.978 15.6288H57.4957C56.7056 16.143 55.8278 17.0685 55.1078 17.9253C54.4757 18.6794 50.8941 22.9469 50.8941 22.9469C50.8941 22.9469 56.1964 30.8477 56.8987 31.8589H56.8988ZM60.3751 17.1541V31.8589C60.3751 32.373 60.3751 32.87 60.1117 33.3842H81.4266V28.4483C80.8999 28.7053 80.3906 28.7053 79.864 28.7053H70.8921V26.3745H79.5128V22.6383H70.8921V20.2904H79.864C80.3907 20.2904 80.8999 20.2904 81.4266 20.5304V15.6117H60.1117C60.3751 16.143 60.3751 16.6399 60.3751 17.1541ZM110.958 31.8589C111.134 32.4244 111.432 32.9386 111.819 33.3842H100.266C100.318 32.87 100.125 32.373 99.9147 31.8589C99.9147 31.8589 99.739 31.4475 99.4933 30.8477L99.3879 30.5906H92.7336L92.6283 30.8648C92.6283 30.8648 92.4351 31.3619 92.2595 31.876C92.084 32.3901 91.8908 32.8871 91.9611 33.4013H82.8487C83.221 32.9517 83.5014 32.4335 83.674 31.876L89.1343 17.1712C89.3275 16.6571 89.5205 16.1601 89.4504 15.646H104.848C104.708 16.1601 104.989 16.6571 105.182 17.1712C105.638 18.2852 110.572 30.8648 110.958 31.8589ZM97.9307 26.8373L96.3154 22.724C96.1749 22.3471 96.052 21.9529 95.9642 21.5587C95.8939 21.9558 95.7881 22.3458 95.6481 22.724C95.5955 22.8955 94.9107 24.6951 94.1206 26.8373H97.9307ZM24.2593 15.6288H12.25C12.5134 16.143 12.5134 16.6399 12.5134 17.1541V31.8589C12.5134 32.373 12.5134 32.87 12.25 33.3842H24.2593C23.9959 32.87 23.9959 32.373 23.9959 31.8589V17.1541C23.9959 16.6399 23.9959 16.143 24.2593 15.6288ZM107.271 17.0342C107.218 15.7831 108.219 14.7376 109.501 14.7033H109.659C110.958 14.6862 112.029 15.6802 112.047 16.9484V17.0342C112.082 18.3195 111.046 19.3993 109.712 19.4336C108.395 19.4679 107.289 18.4566 107.254 17.1541C107.271 17.1198 107.271 17.0683 107.271 17.034V17.0342ZM107.745 17.0342C107.745 18.0624 108.606 18.9023 109.659 18.9023C110.713 18.9023 111.573 18.0624 111.573 17.0342C111.573 16.0059 110.712 15.166 109.659 15.166C108.641 15.1317 107.78 15.903 107.745 16.897V17.0342ZM109.185 18.4223H108.764V15.6117H109.835C110.344 15.6288 110.73 16.0229 110.73 16.52C110.73 16.8628 110.537 17.1712 110.221 17.3426L110.835 18.4223H110.361L109.799 17.4284H109.185V18.4223ZM109.185 17.0342H109.764C110.045 17.0513 110.291 16.8455 110.291 16.5713C110.291 16.2972 110.098 16.0572 109.817 16.0572H109.185V17.0342Z" fill="url(#paint1_linear_94_17582)"/>
<defs>
<linearGradient id="paint0_linear_94_17582" x1="61.25" y1="0" x2="61.25" y2="49" gradientUnits="userSpaceOnUse">
<stop stop-color="#00609A"/>
<stop offset="1" stop-color="#1B3646"/>
</linearGradient>
<linearGradient id="paint1_linear_94_17582" x1="62.1488" y1="14.7031" x2="62.1488" y2="33.4013" gradientUnits="userSpaceOnUse">
<stop stop-color="#00609A"/>
<stop offset="1" stop-color="#1B3646"/>
</linearGradient>
</defs>
</svg>
