<svg width="172" height="23" viewBox="0 0 172 23" fill="none" xmlns="http://www.w3.org/2000/svg">
<path d="M148.024 8.45796C148.024 5.99976 146.948 4.78911 145.307 4.78911C143.815 4.78911 142.8 6.26551 142.8 8.33984C142.8 10.5005 143.724 11.9806 145.337 11.9806C146.979 11.9806 148.024 10.5891 148.024 8.45796ZM142.29 0.733457V3.04254H142.352C143.217 1.14537 145.457 0.289062 147.246 0.289062C151.965 0.289062 154.232 4.10702 154.232 8.36937C154.232 14.4669 150.411 16.6866 146.92 16.6866C145.216 16.6866 143.964 16.0075 142.919 14.7038V21.5115H136.711V0.731981H142.292L142.29 0.733457ZM160.2 0.733457L162.946 10.2931L165.663 0.733457H171.635L166.619 15.2073C164.978 20.0019 164.321 21.5115 158.798 21.5115C158.17 21.5115 156.709 21.4524 156.052 21.3934V17.1303C158.709 17.1303 159.365 16.9827 159.365 16.0356C159.365 15.7388 159.276 15.3549 153.961 0.732719H160.2V0.733457Z" fill="url(#paint0_linear_94_17573)"/>
<path fill-rule="evenodd" clip-rule="evenodd" d="M128.973 10.8281H134.539V16.3484H128.973V10.8289V10.8281Z" fill="url(#paint1_linear_94_17573)"/>
<path d="M6.20972 5.47139L10.1797 0.734375H17.434L11.6414 6.7433L18.1796 16.2439H10.7186L7.37459 10.7399L6.21045 11.8937V16.2446H0V0.73659H6.20972V5.47213V5.47139Z" fill="url(#paint2_linear_94_17573)"/>
<path d="M23.2517 0.733457L25.9978 10.2931L28.7144 0.734196H34.6849L29.6703 15.208C28.0278 20.0026 27.3716 21.5122 21.8484 21.5122C21.2209 21.5122 19.7578 21.4532 19.1023 21.3941V17.131C21.7583 17.131 22.4153 16.9834 22.4153 16.0363C22.4153 15.7395 22.3253 15.3557 17.0117 0.733457H23.2517ZM41.1899 12.6908H43.5182C45.0108 12.6908 45.8472 12.5431 45.8472 11.3886C45.8472 10.2348 45.0411 9.96831 43.5174 9.96831H41.1899V12.6908ZM41.1899 6.83097H43.5182C44.8912 6.83097 45.4006 6.50468 45.4006 5.6469C45.4006 4.61121 44.8617 4.28566 43.5182 4.28566H41.1899V6.83097ZM35.2208 0.733457H44.7141C48.625 0.733457 51.2515 1.85773 51.2515 4.69979C51.2515 6.71286 49.6991 7.8076 48.205 8.0143C49.7877 8.39964 51.817 9.19763 51.817 11.833C51.817 14.9999 48.8937 16.243 45.3105 16.243H35.2194V0.733457H35.2208ZM58.6808 11.8913C58.6808 12.662 59.4285 13.195 60.6517 13.195C62.8309 13.195 63.3993 11.7451 63.3993 9.3748C61.3678 10.3522 58.6808 9.87899 58.6808 11.892V11.8913ZM53.2196 5.49852C53.2196 2.21133 55.5774 0.289062 61.7561 0.289062C69.1602 0.289062 69.6075 3.01153 69.6075 6.71138V13.9642C69.6075 14.853 69.6371 15.2966 70.4432 15.947V16.2437H64.026L63.7271 14.5865C61.9665 16.2142 60.1749 16.6881 57.8458 16.6881C54.8931 16.6881 52.2651 15.2368 52.2651 12.0116C52.2651 4.96628 63.3993 8.16194 63.3993 5.26156C63.3993 4.13655 62.0263 3.98817 61.3678 3.98817C60.5041 3.98817 59.3392 4.16755 59.1901 5.49852H53.2196Z" fill="url(#paint3_linear_94_17573)"/>
<path d="M88.414 0.733457V16.243H82.2057V5.23203H78.7126V9.08026C78.7126 14.4661 76.6825 16.5087 73.2794 16.5087C72.0858 16.5087 71.1298 16.4497 70.2344 16.1529V12.0707C70.6817 12.1593 70.9519 12.1888 71.3395 12.1888C72.6512 12.1888 72.9214 11.0933 72.9214 7.33442V0.733457H88.4132H88.414ZM97.964 4.28566V5.70596C97.964 8.22173 97.6658 11.0335 96.5024 12.6908H101.129V4.28566H97.964ZM107.339 0.733457V12.6908H109.069V19.9428H103.398V16.243H94.8894V19.9428H89.2171V12.6908H90.6802C91.9027 10.7072 92.2925 8.39964 92.2925 5.23203V0.733457H107.338H107.339ZM115.545 11.8913C115.545 12.662 116.292 13.195 117.516 13.195C119.694 13.195 120.263 11.7451 120.263 9.3748C118.232 10.3522 115.545 9.87899 115.545 11.892V11.8913ZM110.082 5.49852C110.083 2.21133 112.442 0.289062 118.621 0.289062C126.025 0.289062 126.473 3.01153 126.473 6.71138V13.9642C126.473 14.853 126.503 15.2966 127.309 15.947V16.2437H120.889L120.593 14.5865C118.831 16.2142 117.041 16.6881 114.712 16.6881C111.759 16.6881 109.131 15.2368 109.131 12.0116C109.131 4.96628 120.266 8.16194 120.266 5.26156C120.266 4.13655 118.892 3.98817 118.235 3.98817C117.368 3.98817 116.205 4.16755 116.056 5.49852H110.087H110.082Z" fill="url(#paint4_linear_94_17573)"/>
<defs>
<linearGradient id="paint0_linear_94_17573" x1="154.173" y1="0.289062" x2="154.173" y2="21.5115" gradientUnits="userSpaceOnUse">
<stop stop-color="#00609A"/>
<stop offset="1" stop-color="#1B3646"/>
</linearGradient>
<linearGradient id="paint1_linear_94_17573" x1="131.756" y1="10.8281" x2="131.756" y2="16.3484" gradientUnits="userSpaceOnUse">
<stop stop-color="#00609A"/>
<stop offset="1" stop-color="#1B3646"/>
</linearGradient>
<linearGradient id="paint2_linear_94_17573" x1="9.08979" y1="0.734375" x2="9.08979" y2="16.2446" gradientUnits="userSpaceOnUse">
<stop stop-color="#00609A"/>
<stop offset="1" stop-color="#1B3646"/>
</linearGradient>
<linearGradient id="paint3_linear_94_17573" x1="43.7275" y1="0.289062" x2="43.7275" y2="21.5122" gradientUnits="userSpaceOnUse">
<stop stop-color="#00609A"/>
<stop offset="1" stop-color="#1B3646"/>
</linearGradient>
<linearGradient id="paint4_linear_94_17573" x1="98.7716" y1="0.289062" x2="98.7716" y2="19.9428" gradientUnits="userSpaceOnUse">
<stop stop-color="#00609A"/>
<stop offset="1" stop-color="#1B3646"/>
</linearGradient>
</defs>
</svg>
