<svg width="135" height="41" viewBox="0 0 135 41" fill="none" xmlns="http://www.w3.org/2000/svg">
<path d="M72.5391 20.2609C72.5391 9.24307 81.4723 0.3125 92.4934 0.3125C103.515 0.3125 112.45 9.24307 112.45 20.2609C112.45 31.2773 103.515 40.21 92.4934 40.21C81.4723 40.21 72.5391 31.2773 72.5391 20.2609ZM85.5569 20.2609C85.5569 24.0915 88.6624 27.1975 92.4934 27.1975C96.3252 27.1975 99.4328 24.0915 99.4328 20.2609C99.4328 16.4302 96.3252 13.3243 92.4934 13.3243C88.6624 13.3243 85.5569 16.4302 85.5569 20.2609Z" fill="url(#paint0_linear_94_17713)"/>
<path d="M134.001 39.3496H121.471V14.432H114.062V5.95768C118.562 5.73842 122.001 4.07544 122.731 0.96875H134.001V39.3496Z" fill="url(#paint1_linear_94_17713)"/>
<path d="M67.5161 39.3496H54.9854V14.432H47.5781V5.95768C52.0757 5.73842 55.5144 4.07544 56.2465 0.96875H67.5161V39.3496Z" fill="url(#paint2_linear_94_17713)"/>
<path fill-rule="evenodd" clip-rule="evenodd" d="M19.4851 17.2521L18.8642 15.4931L18.2411 17.2521L16.2002 23.2262H21.6627L19.4851 17.2521ZM27.3573 39.376L24.5396 31.3887H13.1873L10.3703 39.376H0L14.6799 1.04688H23.3575L37.9263 39.376H27.3573Z" fill="url(#paint3_linear_94_17713)"/>
<path d="M36.7734 24.4438C36.7734 28.2746 39.8796 31.3799 43.7121 31.3799C47.5431 31.3799 50.6493 28.2746 50.6493 24.4438C50.6493 20.6131 47.5431 17.5078 43.7121 17.5078C39.8796 17.5078 36.7734 20.6131 36.7734 24.4438Z" fill="url(#paint4_linear_94_17713)"/>
<defs>
<linearGradient id="paint0_linear_94_17713" x1="92.4945" y1="0.3125" x2="92.4945" y2="40.21" gradientUnits="userSpaceOnUse">
<stop stop-color="#00609A"/>
<stop offset="1" stop-color="#1B3646"/>
</linearGradient>
<linearGradient id="paint1_linear_94_17713" x1="124.032" y1="0.96875" x2="124.032" y2="39.3496" gradientUnits="userSpaceOnUse">
<stop stop-color="#00609A"/>
<stop offset="1" stop-color="#1B3646"/>
</linearGradient>
<linearGradient id="paint2_linear_94_17713" x1="57.5471" y1="0.96875" x2="57.5471" y2="39.3496" gradientUnits="userSpaceOnUse">
<stop stop-color="#00609A"/>
<stop offset="1" stop-color="#1B3646"/>
</linearGradient>
<linearGradient id="paint3_linear_94_17713" x1="18.9631" y1="1.04687" x2="18.9631" y2="39.376" gradientUnits="userSpaceOnUse">
<stop stop-color="#00609A"/>
<stop offset="1" stop-color="#1B3646"/>
</linearGradient>
<linearGradient id="paint4_linear_94_17713" x1="43.7114" y1="17.5078" x2="43.7114" y2="31.3799" gradientUnits="userSpaceOnUse">
<stop stop-color="#00609A"/>
<stop offset="1" stop-color="#1B3646"/>
</linearGradient>
</defs>
</svg>
