<svg width="146" height="31" viewBox="0 0 146 31" fill="none" xmlns="http://www.w3.org/2000/svg">
<path d="M17.4345 3.73959C12.4403 3.71483 12.1518 3.74767 10.4967 4.54212C10.124 4.72111 9.68841 4.96102 9.5286 5.07462C9.05032 5.41505 8.17346 6.27688 8.17346 6.40666C8.17346 6.47299 8.14734 6.527 8.11555 6.527C7.96221 6.527 7.27208 7.82199 7.27089 8.11173C7.27042 8.21999 7.24496 8.33599 7.21448 8.36971C7.01082 8.59495 6.94648 10.5581 7.1152 11.4C7.17211 11.684 7.24435 12.0466 7.27615 12.2063C7.33654 12.5097 7.59954 13.0581 7.90043 13.5098C7.99747 13.6555 8.1058 13.8208 8.14111 13.8776C8.30084 14.1345 9.36963 15.1205 9.82138 15.427C10.451 15.8542 11.2155 16.3185 11.4114 16.3935C11.494 16.4251 11.823 16.5928 12.1424 16.7658C12.4619 16.9387 12.8537 17.1345 13.0134 17.2013C13.1731 17.2681 13.7108 17.518 14.2078 17.7564C16.8641 19.0305 17.092 19.1618 17.3179 19.5472C17.5503 19.9438 17.5574 20.3583 17.3374 20.6814C17.2487 20.8117 17.1274 20.9181 17.0674 20.9183C17.0074 20.9186 16.9372 20.9531 16.9117 20.9943C16.864 21.0711 11.388 21.0355 8.67346 20.9409L7.46327 20.8988V19.4893C7.46327 18.2792 7.44935 18.079 7.36625 18.079C7.31301 18.079 7.26998 18.1082 7.26998 18.1437C7.26998 18.1792 7.23681 18.2084 7.19627 18.2084C7.11618 18.2084 6.43113 18.7666 6.3471 18.9003C6.31872 18.9455 6.20734 19.0282 6.09965 19.0839C5.99195 19.1396 5.73846 19.3372 5.53707 19.5224C5.33566 19.7075 5.03591 19.9517 4.87067 20.0654C4.70544 20.1791 4.56073 20.2949 4.54875 20.3227C4.5161 20.3983 3.881 20.9191 3.82143 20.9191C3.79301 20.9191 3.67848 21.0155 3.56721 21.1334C3.45557 21.2521 3.0595 21.5929 2.68685 21.8921C2.31419 22.1913 1.95194 22.4944 1.88131 22.5652C1.81069 22.6361 1.6461 22.7666 1.51578 22.8556C1.38543 22.9441 1.1151 23.1725 0.914809 23.3624L0.550781 23.7086L0.957669 24.0867C1.18139 24.2949 1.38512 24.4663 1.41046 24.4673C1.43581 24.4683 1.68251 24.6724 1.95875 24.9208C2.23502 25.1692 2.49546 25.3729 2.53793 25.3729C2.58039 25.3729 2.65326 25.4233 2.69964 25.4857C2.74602 25.5481 2.94345 25.7302 3.13814 25.8896C3.33283 26.0491 3.55023 26.2267 3.62178 26.2852C3.69332 26.3437 3.9379 26.5473 4.16484 26.7372C4.39177 26.9272 4.70143 27.1758 4.85304 27.2893C5.00464 27.4028 5.22883 27.5959 5.35169 27.7188C5.47456 27.8416 5.68801 28.0155 5.82555 28.1046C5.96307 28.1937 6.24965 28.4276 6.4626 28.6251C6.67558 28.8227 6.88424 28.9848 6.92591 28.9854C6.96758 28.986 7.06899 29.0719 7.15155 29.1764C7.44317 29.5456 7.45934 29.4827 7.47798 27.9053L7.49528 26.4372L7.7856 26.4454C7.94533 26.4497 9.62226 26.4588 11.5124 26.4665C13.9053 26.4762 14.9489 26.5018 14.9489 26.55C14.9489 26.629 16.9576 26.5752 17.9823 26.4687C18.786 26.3852 19.7982 26.1867 19.9506 26.0829C19.9861 26.0587 20.1896 25.9708 20.4026 25.8873C20.6156 25.8039 20.8046 25.7178 20.8223 25.6963C20.8847 25.6205 21.3467 25.3721 21.4255 25.3721C21.4693 25.3721 21.6064 25.2784 21.7301 25.163C21.8538 25.0477 22.0659 24.8656 22.2017 24.7591C22.4814 24.5398 23.1821 23.6638 23.3885 23.2752C23.5979 22.8811 23.9151 21.8832 24.0196 21.2896C24.2288 20.1009 24.0945 18.5323 23.7014 17.5688C23.6084 17.3408 23.5322 17.1296 23.5322 17.0994C23.5322 17.0329 23.2132 16.5239 23.1148 16.4338C23.076 16.3983 22.9057 16.1883 22.7364 15.9667C22.5672 15.7451 22.3693 15.5322 22.2972 15.4936C22.1703 15.4257 22.0602 15.3361 21.6481 14.9694C21.5409 14.874 21.347 14.7466 21.2179 14.6859C21.0888 14.6251 20.8826 14.4921 20.7591 14.391C20.6357 14.2899 20.5111 14.2075 20.4823 14.2075C20.4535 14.2075 20.2787 14.1061 20.0942 13.9819C19.9097 13.8576 19.7189 13.7555 19.67 13.7555C19.5664 13.7555 19.0571 13.4881 19.0254 13.417C19.0136 13.3904 18.9629 13.3689 18.9126 13.3689C18.8623 13.3689 18.8216 13.3397 18.8216 13.3042C18.8216 13.2687 18.7739 13.2395 18.7163 13.2395C18.6587 13.2395 18.4482 13.1573 18.2485 13.0567C17.1922 12.5251 16.654 12.2672 16.6051 12.2693C16.5751 12.2705 16.4713 12.2153 16.3749 12.1467C16.2785 12.078 16.1145 12.0012 16.0101 11.9759C15.9059 11.9507 15.5227 11.7672 15.1587 11.5683C14.7948 11.3693 14.3738 11.1434 14.2231 11.0666C14.0724 10.9898 13.8632 10.8369 13.7583 10.7266C13.5835 10.5431 13.5672 10.4876 13.5672 10.0663C13.5672 9.62494 13.5758 9.59902 13.7801 9.4285C13.8972 9.33076 14.0847 9.23772 14.1968 9.22092C14.3088 9.20411 16.3172 9.20541 18.66 9.22392L22.9195 9.25777L22.9075 6.55311L22.8947 3.84919L22.1328 3.80481C21.7126 3.78051 19.5981 3.75132 17.4331 3.74058L17.4345 3.73959ZM25.337 3.75237L25.3588 12.5132C25.3778 20.309 25.3915 21.3095 25.4829 21.5968C25.6745 22.1985 25.8754 22.6882 26.0598 23.001C26.1609 23.1725 26.2441 23.3413 26.2441 23.3763C26.2441 23.6017 27.9315 25.3725 28.1462 25.3725C28.1697 25.3725 28.3109 25.4524 28.4599 25.55C29.1864 26.0261 29.4655 26.1617 30.2552 26.4254C31.1218 26.7149 31.9133 26.9064 32.6974 27.0159C33.5371 27.1331 35.6057 27.1344 36.376 27.0181C37.5056 26.8477 38.3369 26.6365 38.9348 26.3675C39.0466 26.3172 39.1873 26.2758 39.2469 26.2758C39.3755 26.2758 40.4176 25.73 40.603 25.5657C40.674 25.5028 40.8388 25.3973 40.9686 25.3311C41.2776 25.1734 42.361 24.1682 42.4894 23.9201C42.5445 23.8136 42.6521 23.6634 42.7285 23.5861C42.9142 23.3982 43.3571 22.5839 43.4544 22.2511C43.4972 22.1043 43.6054 21.7229 43.6951 21.4034L43.8583 20.822L43.8606 12.2876L43.8629 3.75241H40.4745H37.0862V11.9117C37.0862 16.9414 37.0625 20.1342 37.0245 20.234C36.9447 20.4437 36.5152 20.9192 36.4055 20.9192C36.3589 20.9192 36.2817 20.9579 36.234 21.0057C36.009 21.2307 35.46 21.3388 34.5372 21.3388H33.6339L33.1217 21.0899C32.5837 20.8296 32.4355 20.6898 32.1956 20.2157L32.0504 19.9292V11.8407V3.75223H28.6929H25.3353L25.337 3.75237ZM45.9914 3.75312V15.1757V26.5991L52.0739 26.5968C58.2585 26.5947 58.8458 26.5755 59.6079 26.3449C59.7319 26.3073 59.9126 26.2764 60.0095 26.2764C60.1803 26.2764 60.7889 26.0304 61.3182 25.7477C61.4602 25.6718 61.7356 25.5248 61.9297 25.4212C62.2322 25.2598 62.6016 24.9494 63.1843 24.3675C63.3599 24.1922 63.7543 23.6421 63.9537 23.2935C64.1259 22.9925 64.516 21.8733 64.6464 21.3071C64.7568 20.8273 64.8148 19.5776 64.7539 18.9837C64.7075 18.53 64.4319 17.4813 64.3215 17.3381C64.2941 17.3026 64.2347 17.1574 64.1899 17.0154C64.0676 16.6277 63.2972 15.696 62.7473 15.2712C62.6103 15.1655 62.4303 15.0168 62.3471 14.9403C62.264 14.8638 62.0787 14.7495 61.9349 14.6861C61.7912 14.6226 61.6732 14.5524 61.6732 14.5304C61.6732 14.4906 62.0312 14.2077 62.0816 14.2077C62.1298 14.2077 63.1579 13.1925 63.1579 13.1449C63.1579 13.1193 63.2122 13.021 63.279 12.9268C63.4698 12.6578 63.8422 11.9316 63.9319 11.6535C63.9767 11.5144 64.0463 11.3596 64.0861 11.3097C64.1341 11.2495 64.1561 10.806 64.153 9.98676C64.1486 8.83949 64.1368 8.71738 63.9777 8.21699C63.7816 7.59996 63.3298 6.65756 63.0932 6.37201C62.6772 5.86986 62.1868 5.39018 61.8191 5.12724C61.3083 4.7619 60.4123 4.32487 59.738 4.11187C58.6982 3.78416 57.9973 3.75312 51.7281 3.75312H45.991L45.9914 3.75312ZM52.6389 8.71349L54.4621 8.73455C56.4399 8.75693 56.4251 8.75454 56.8929 9.14822C57.3951 9.57074 57.5914 10.5449 57.3788 11.5626C57.3045 11.9183 56.8676 12.5096 56.5567 12.6757C56.2961 12.815 56.2091 12.8214 54.4621 12.8412L52.6389 12.8622V10.7879V8.71348V8.71349ZM52.687 17.229C52.7137 17.2181 53.6672 17.2233 54.8058 17.2411L56.8757 17.2734L57.1472 17.4532C57.2967 17.5522 57.5267 17.7995 57.6579 18.0022L57.8963 18.3708L57.8971 19.3117C57.8978 20.1732 57.8852 20.2801 57.7421 20.5858C57.6562 20.7695 57.5467 20.9198 57.4985 20.9198C57.4502 20.9198 57.3944 20.9612 57.3751 21.0115C57.3194 21.1567 56.8931 21.4076 56.5628 21.4899C56.3678 21.5384 55.615 21.5651 54.4493 21.5651H52.6389V19.4072C52.6389 18.2202 52.6604 17.24 52.687 17.2291L52.687 17.229Z" fill="url(#paint0_linear_94_17632)"/>
<path d="M138.207 0.844505C138.161 0.869844 138.157 1.15974 138.156 2.18782L138.154 3.62364L135.557 3.62514C133.058 3.62637 132.726 3.64494 131.621 3.84251C130.707 4.00579 129.702 4.61003 129.096 5.36108C128.601 5.97388 128.298 6.66077 128.054 7.72204C128.03 7.82853 127.991 9.10602 127.967 10.5613C127.921 13.4752 127.941 13.334 127.49 13.8955C127.124 14.3507 126.232 14.659 125.279 14.6589C124.814 14.6589 124.001 14.4707 123.724 14.2994C123.372 14.0817 122.979 13.6875 122.903 13.4766C122.851 13.3334 122.819 11.8503 122.796 8.52816L122.763 3.78536L119.455 3.76882L116.148 3.75152L116.149 8.802C116.149 11.5799 116.176 14.0366 116.209 14.2611C116.28 14.753 116.551 15.6688 116.757 16.112C117.146 16.9486 118.059 17.9939 118.898 18.564C119.106 18.706 119.335 18.8743 119.405 18.9378C119.476 19.0013 119.606 19.0699 119.696 19.0905C119.785 19.1111 119.976 19.1952 120.121 19.2778C120.424 19.4499 121.263 19.7936 121.714 19.9291L122.02 20.0216V23.31V26.599H125.376H128.732V23.3228V20.0465L129.265 19.8622C130.041 19.5937 131.549 18.8411 131.955 18.5197C132.468 18.1123 133.295 17.2569 133.533 16.886C133.828 16.4275 134.246 15.4747 134.369 14.9824C134.544 14.2795 134.603 13.4205 134.605 11.4977C134.606 10.4861 134.624 9.59318 134.646 9.51362C134.709 9.2783 135.044 9.23446 136.649 9.25338L138.122 9.27068L138.14 10.6749C138.151 11.5373 138.182 12.0784 138.221 12.0784C138.255 12.0784 138.284 12.0492 138.284 12.0137C138.284 11.9782 138.32 11.9492 138.364 11.949C138.409 11.9489 138.668 11.7453 138.94 11.497C139.212 11.2487 139.459 11.0457 139.489 11.0457C139.52 11.0457 139.719 10.8817 139.93 10.6817C140.142 10.4817 140.417 10.2521 140.542 10.171C140.666 10.0899 140.942 9.86157 141.155 9.66403C141.368 9.4665 141.565 9.30509 141.591 9.30452C141.617 9.30394 141.793 9.1655 141.982 8.99689C142.402 8.62187 143.63 7.60159 143.99 7.32868C144.135 7.21879 144.413 6.97817 144.608 6.7939L144.963 6.45845L144.52 6.04178C144.277 5.81236 144.039 5.62434 143.992 5.62434C143.946 5.62434 143.855 5.55827 143.79 5.47767C143.725 5.39707 143.498 5.1942 143.285 5.02638C143.072 4.85858 142.84 4.66704 142.769 4.60066C142.698 4.5343 142.329 4.22799 141.948 3.91998C141.568 3.61196 141.171 3.27422 141.066 3.16936C140.961 3.06448 140.849 2.97831 140.818 2.97831C140.786 2.97831 140.54 2.7755 140.27 2.52703C140.001 2.27968 139.75 2.07612 139.719 2.07612C139.686 2.07612 139.488 1.91486 139.278 1.71735C139.068 1.51984 138.781 1.28366 138.639 1.19313C138.497 1.1026 138.33 0.966556 138.269 0.89077C138.242 0.857888 138.222 0.837196 138.207 0.845641L138.207 0.844505ZM105.472 3.07157C105.072 3.06517 104.675 3.0767 104.287 3.10692C103.019 3.20564 101.759 3.46534 101.031 3.77856C100.899 3.83534 100.742 3.88235 100.682 3.88235C100.542 3.88235 99.6214 4.35386 99.2827 4.59912C99.1414 4.70149 98.9905 4.78565 98.9481 4.78565C98.9056 4.78565 98.7725 4.87988 98.6517 4.9955C98.5309 5.11112 98.2501 5.36291 98.0282 5.55434C97.8064 5.74575 97.6251 5.93013 97.6251 5.96427C97.6251 5.99839 97.5135 6.16064 97.3769 6.32529C96.96 6.82765 96.8034 7.11196 96.5352 7.85138C96.0528 9.18148 96.0764 8.6519 96.0764 18.1195V26.5992H99.4001H102.723V23.3078V20.0165H105.273H107.822V23.3078V26.5992H111.145H114.469V18.1611C114.469 10.8405 114.456 9.64744 114.369 9.1526C114.215 8.27205 113.685 6.90532 113.378 6.59836C113.312 6.53271 113.141 6.30574 112.997 6.09443C112.854 5.88313 112.668 5.66529 112.584 5.61006C112.499 5.55485 112.274 5.36142 112.083 5.18061C111.893 4.99979 111.679 4.83378 111.608 4.81131C111.537 4.78884 111.347 4.67523 111.184 4.55935C110.806 4.28994 110.144 3.9581 109.767 3.84789C109.605 3.80064 109.224 3.68511 108.923 3.59142C107.891 3.27118 106.674 3.09091 105.477 3.0717L105.472 3.07157ZM94.0155 3.75149L90.6738 3.76879L87.3314 3.78533L87.299 11.9812L87.2667 20.1779L87.0929 20.4728C86.8771 20.8397 86.8409 20.8689 86.3634 21.0474C85.6013 21.3323 84.347 21.1946 83.8918 20.7759C83.8044 20.6954 83.6791 20.5132 83.6135 20.3712C83.4997 20.1247 83.4947 19.75 83.4932 12.0348C83.4924 7.59194 83.4741 3.91162 83.4526 3.8554C83.4176 3.76416 83.0644 3.75311 80.1289 3.75311H76.8443V11.837C76.8443 16.882 76.8203 20.0032 76.7812 20.1399C76.6161 20.7156 76.0944 21.0804 75.2912 21.1824C74.8078 21.2437 74.1659 21.1718 73.8659 21.0222C73.7537 20.9662 73.6277 20.9206 73.5861 20.9206C73.4685 20.9206 73.2623 20.6586 73.1273 20.3392C73.0091 20.0598 73.0038 19.7453 72.9882 11.9816C72.9792 7.54454 72.9716 3.87885 72.9716 3.83456C72.9717 3.77107 72.2639 3.75333 69.6479 3.75333H66.3243V12.1352C66.3243 21.3528 66.312 21.0224 66.7229 22.2755C67.0764 23.3536 67.5306 24.0746 68.3656 24.8809C68.6452 25.1508 68.894 25.3722 68.9184 25.3727C68.9427 25.3733 69.1497 25.5018 69.3787 25.6586C69.9358 26.04 70.0508 26.0952 70.8589 26.3678C71.6759 26.6434 72.22 26.7779 72.9716 26.8905H72.9724C73.7583 27.0083 75.5275 27.0078 76.202 26.8898C77.0099 26.7484 78.3868 26.3088 78.8375 26.0481C78.9575 25.9787 79.1895 25.8297 79.3535 25.7165C79.9464 25.3069 80.1187 25.2335 80.2801 25.3239C80.3603 25.3688 80.4406 25.4235 80.4583 25.4449C80.5374 25.5407 81.7334 26.2198 81.8783 26.2513C81.9671 26.2705 82.1123 26.3168 82.201 26.3543C82.5496 26.5015 83.2922 26.7229 83.8143 26.8357C84.5924 27.0038 86.8811 27.0053 87.7188 26.8379C88.3348 26.7148 89.076 26.5114 89.3968 26.3776C89.5033 26.3332 89.7068 26.2606 89.8488 26.2159C89.9908 26.1713 90.2082 26.0696 90.3324 25.9903C90.4566 25.911 90.7608 25.7181 91.0078 25.5616C91.2548 25.405 91.6658 25.0737 91.9209 24.8252C92.4389 24.3207 93.1074 23.4695 93.1085 23.3134C93.1089 23.2575 93.182 23.0839 93.271 22.9283C93.4596 22.5984 93.7028 21.916 93.8599 21.2751C93.9611 20.8621 93.9724 20.0872 93.993 12.2879L94.0156 3.75192L94.0155 3.75149ZM104.97 8.79773C105.139 8.79133 105.324 8.79225 105.531 8.8C106.168 8.82387 106.291 8.84883 106.725 9.04445C107.361 9.33112 107.458 9.42652 107.655 9.95904L107.822 10.4081V12.5659V14.7246H105.27H102.719L102.737 12.4494L102.756 10.1749L102.929 9.81766C103.135 9.39233 103.222 9.3108 103.709 9.08433C104.098 8.90376 104.463 8.81698 104.97 8.79777L104.97 8.79773Z" fill="url(#paint1_linear_94_17632)" stroke="url(#paint2_linear_94_17632)" stroke-width="0.0645376"/>
<defs>
<linearGradient id="paint0_linear_94_17632" x1="32.6647" y1="3.73437" x2="32.6647" y2="29.363" gradientUnits="userSpaceOnUse">
<stop stop-color="#00609A"/>
<stop offset="1" stop-color="#1B3646"/>
</linearGradient>
<linearGradient id="paint1_linear_94_17632" x1="105.644" y1="0.84375" x2="105.644" y2="26.9786" gradientUnits="userSpaceOnUse">
<stop stop-color="#00609A"/>
<stop offset="1" stop-color="#1B3646"/>
</linearGradient>
<linearGradient id="paint2_linear_94_17632" x1="105.644" y1="0.84375" x2="105.644" y2="26.9786" gradientUnits="userSpaceOnUse">
<stop stop-color="#00609A"/>
<stop offset="1" stop-color="#1B3646"/>
</linearGradient>
</defs>
</svg>
