<svg width="155" height="32" viewBox="0 0 155 32" fill="none" xmlns="http://www.w3.org/2000/svg">
<path d="M90 0.671875C90 0.671875 90.5144 1.13456 90.5057 1.74423V30.0465C90.5144 30.6561 90 31.1188 90 31.1188H105.508V23.6746C105.508 23.6746 105.367 24.3874 104.379 24.3698H99.226V1.74423C99.2173 1.13456 99.7317 0.671875 99.7317 0.671875H90ZM142.096 0.671875H128.929V8.24921C128.929 8.24921 129.07 7.53644 130.058 7.55406H133.97V30.0465C133.979 30.6561 133.465 31.1188 133.465 31.1188H143.196C143.196 31.1188 142.682 30.6561 142.69 30.0465V4.29313L142.096 0.671875Z" fill="url(#paint0_linear_94_17705)"/>
<path d="M147.583 0.671875V8.24921C147.583 8.24921 147.443 7.53644 146.455 7.55406H139.848C139.827 5.256 139.757 2.89645 139.539 0.671875H147.583Z" fill="url(#paint1_linear_94_17705)"/>
<path d="M150.218 31.7909C152.855 31.7909 154.992 29.6253 154.992 26.954C154.992 24.2827 152.855 22.1172 150.218 22.1172C147.582 22.1172 145.445 24.2827 145.445 26.954C145.445 29.6253 147.582 31.7909 150.218 31.7909Z" fill="url(#paint2_linear_94_17705)"/>
<path d="M152.994 3.10982C153.103 3.06558 153.199 3.00596 153.284 2.93022C153.368 2.85449 153.434 2.76225 153.481 2.65314C153.529 2.54403 153.553 2.41654 153.553 2.27069C153.553 1.96886 153.459 1.73864 153.271 1.57966C153.083 1.42106 152.785 1.34157 152.375 1.34157H150.987V4.69736H151.433V3.20731H152.182L153.199 4.69811H153.721L152.645 3.20731C152.768 3.18669 152.884 3.15407 152.994 3.10982ZM152.022 2.85598H151.433V1.69327H152.249C152.361 1.69327 152.467 1.70114 152.569 1.71652C152.67 1.73226 152.761 1.76226 152.842 1.8065C152.924 1.85037 152.988 1.90886 153.036 1.98198C153.084 2.05472 153.107 2.15108 153.107 2.27106C153.107 2.4113 153.076 2.52191 153.015 2.60289C152.952 2.68389 152.867 2.74492 152.77 2.77837C152.658 2.81705 152.54 2.8394 152.421 2.84474C152.29 2.85224 152.156 2.85598 152.022 2.85598ZM152.059 0.0299959C150.444 0.0311207 149.146 1.37606 149.142 3.02884C149.146 4.68086 150.444 6.02618 152.059 6.02693C153.674 6.02618 154.973 4.68086 154.975 3.02884C154.973 1.37606 153.674 0.0311207 152.059 0.0299959ZM152.059 5.76484C150.6 5.76184 149.408 4.54363 149.408 3.02884C149.408 1.51367 150.599 0.295835 152.059 0.29246C153.519 0.295835 154.71 1.51367 154.71 3.02884C154.71 4.54363 153.519 5.76184 152.059 5.76484ZM77.4921 0C68.8342 0 65.901 7.17315 65.901 15.9608C65.901 24.9326 69.031 31.9123 77.4524 31.9123C85.8737 31.9123 89.0837 25.0751 89.0837 15.9608C89.0837 6.92418 85.8665 0 77.4921 0V0ZM80.0946 17.5525C80.0946 23.4793 78.9296 25.1234 77.4925 25.1234C76.0554 25.1234 74.8904 23.5363 74.8904 17.5525V13.9908C74.8904 8.4056 76.0554 6.78132 77.4925 6.78132C78.9296 6.78132 80.0946 8.57658 80.0946 13.9908V17.5525ZM119.066 22.2228C119.066 24.0473 118.119 25.005 116.952 25.005C115.784 25.005 114.837 24.0353 114.837 22.2228L114.837 22.0354V1.74239C114.828 1.13272 115.342 0.670033 115.342 0.670033H105.583C105.583 0.670033 106.098 1.13272 106.089 1.74239V22.2982L106.089 22.3908C106.089 29.198 110.948 31.9441 116.926 31.9441C122.903 31.9441 127.731 28.7998 127.731 22.3781L127.731 22.3151V1.74239C127.722 1.13272 128.237 0.670033 128.237 0.670033H118.558C118.558 0.670033 119.072 1.13272 119.063 1.74239V22.1122L119.066 22.2228ZM40.0533 15.3583L40.0893 15.3508C43.0986 14.6549 45.0372 12.1862 45.0372 8.66319C45.0372 3.6835 41.3943 0.658035 34.5342 0.658035H24.7011C24.7011 0.658035 25.2155 1.12072 25.2067 1.72926V29.9914C25.2155 30.5999 24.7011 31.0626 24.7011 31.0626H35.7749L36.1897 31.06C43.1395 31.06 46.2756 27.4196 46.2756 22.774C46.276 18.6398 43.8556 16.0812 40.0533 15.3583ZM33.8211 6.91068H34.611C36.2109 6.91068 37.5083 7.90579 37.5083 9.90652C37.5083 11.5612 36.2109 12.9027 34.611 12.9027H33.8211V6.91068ZM34.7242 24.879H33.8215V18.2664H34.5857C36.4138 18.2664 38.0352 19.2255 38.0352 21.5727C38.0348 23.7061 36.5523 24.879 34.7242 24.879ZM12.5142 31.5006H12.5467L12.5304 31.4983L12.5142 31.5006ZM15.1356 31.0773H24.656C24.656 31.0773 24.3389 30.6389 23.8771 28.5962L17.7384 2.22645C17.7384 2.22645 17.4478 1.03411 18.1911 0.663659H7.06547C7.80882 1.03411 7.51814 2.22645 7.51814 2.22645L1.36583 28.5104C0.904071 30.5527 0.0078125 31.0773 0.0078125 31.0773H9.92494C9.32163 30.7094 9.38976 30.1575 9.38976 30.1575L9.98209 26.216H15.0796L15.6117 29.9449C15.6117 29.9449 15.7359 30.6783 15.1356 31.0773ZM10.8609 20.5656L12.6024 8.49934L14.2965 20.5656H10.8609ZM54.7727 24.9618C57.0546 24.9618 56.9066 22.9315 56.9066 22.9315C56.9134 21.4553 55.6318 20.4936 55.6318 20.4936L50.2535 16.0212L50.1593 15.9413C48.3842 14.3212 47.2567 11.8941 47.2567 9.18175C47.2567 4.30291 50.7592 0.158978 56.6133 0.158978C58.4062 0.158978 60.2615 0.536927 61.8447 1.29957C61.8447 1.29957 62.6248 1.75439 63.3011 1.05098V9.01939C63.3011 9.01939 60.0344 6.7517 57.3377 6.7517C57.3377 6.7517 55.3506 6.72846 55.3506 8.57958C55.3506 8.57958 55.3272 9.58744 56.9357 10.806C56.9357 10.806 62.3765 14.743 64.2216 17.7658C64.2216 17.7658 65.7586 20.2266 65.5698 23.1557C65.5698 23.1557 65.2859 31.967 55.9183 31.967C55.9183 31.967 52.2591 32 49.0583 30.186C49.0583 30.186 47.9981 29.5317 47.3078 30.165V21.1872C47.3078 21.1872 51.6399 24.9618 54.7727 24.9618Z" fill="url(#paint3_linear_94_17705)"/>
<defs>
<linearGradient id="paint0_linear_94_17705" x1="116.598" y1="0.671875" x2="116.598" y2="31.1188" gradientUnits="userSpaceOnUse">
<stop stop-color="#00609A"/>
<stop offset="1" stop-color="#1B3646"/>
</linearGradient>
<linearGradient id="paint1_linear_94_17705" x1="143.561" y1="0.671875" x2="143.561" y2="8.24921" gradientUnits="userSpaceOnUse">
<stop stop-color="#00609A"/>
<stop offset="1" stop-color="#1B3646"/>
</linearGradient>
<linearGradient id="paint2_linear_94_17705" x1="150.218" y1="22.1172" x2="150.218" y2="31.7909" gradientUnits="userSpaceOnUse">
<stop stop-color="#00609A"/>
<stop offset="1" stop-color="#1B3646"/>
</linearGradient>
<linearGradient id="paint3_linear_94_17705" x1="77.4916" y1="0" x2="77.4916" y2="31.967" gradientUnits="userSpaceOnUse">
<stop stop-color="#00609A"/>
<stop offset="1" stop-color="#1B3646"/>
</linearGradient>
</defs>
</svg>
