<svg width="155" height="34" viewBox="0 0 155 34" fill="none" xmlns="http://www.w3.org/2000/svg">
<g clip-path="url(#clip0_94_17527)">
<path fill-rule="evenodd" clip-rule="evenodd" d="M18.6314 0.0933334C15.1468 -0.273726 11.634 0.447497 8.57588 2.15787C5.51778 3.86824 3.06448 6.4838 1.5532 9.64503C0.0419262 12.8063 -0.453147 16.358 0.136033 19.812C0.725213 23.266 2.36972 26.4528 4.84352 28.9342C7.31732 31.4157 10.499 33.07 13.9511 33.6699C17.4033 34.2698 20.9566 33.7857 24.1224 32.2842C27.2883 30.7827 29.9115 28.3375 31.6313 25.2847C33.3511 22.2319 34.0832 18.7214 33.7269 15.2356C33.3349 11.361 31.6197 7.7398 28.8702 4.98178C26.1207 2.22375 22.5048 0.497376 18.6314 0.0933334ZM18.0818 25.9355C16.2077 26.1869 14.3019 25.8447 12.6322 24.9571C10.9626 24.0695 9.61307 22.6809 8.77333 20.9867C7.93358 19.2925 7.64584 17.3777 7.95052 15.5115C8.25521 13.6453 9.13701 11.9214 10.472 10.5823C11.807 9.24309 13.5281 8.3559 15.3933 8.04537C17.2586 7.73485 19.1742 8.0166 20.8711 8.85104C22.5679 9.68548 23.9607 11.0307 24.8535 12.6975C25.7464 14.3643 26.0945 16.2691 25.849 18.144C25.5913 20.1161 24.6906 21.9482 23.2865 23.3567C21.8824 24.7653 20.0531 25.6716 18.0818 25.9355ZM42.7982 0.764296C42.21 0.765704 41.6294 0.898234 41.0989 1.15224C40.5683 1.40625 40.101 1.77535 39.7311 2.23268C39.3611 2.69001 39.0978 3.22406 38.9602 3.79599C38.8226 4.36791 38.8143 4.96331 38.9358 5.53886C39.3079 7.40346 41.0495 8.67749 42.9468 8.67749H53.957L36.8226 31.3525C36.6959 31.5199 36.6183 31.7193 36.5986 31.9283C36.5788 32.1373 36.6176 32.3477 36.7108 32.5359C36.8039 32.7241 36.9475 32.8826 37.1257 32.9937C37.3039 33.1048 37.5094 33.1641 37.7194 33.1649H64.5963C66.4923 33.1649 68.2352 31.8912 68.6074 30.0263C68.7289 29.4508 68.7206 28.8555 68.5831 28.2836C68.4457 27.7118 68.1825 27.1777 67.8127 26.7204C67.4429 26.263 66.9758 25.8938 66.4454 25.6397C65.915 25.3855 65.3347 25.2527 64.7465 25.2511H51.3314L68.4527 2.59367C68.5806 2.42465 68.659 2.22331 68.6789 2.01225C68.6988 1.80119 68.6595 1.58875 68.5654 1.39878C68.4713 1.2088 68.3261 1.0488 68.1462 0.936731C67.9662 0.824658 67.7586 0.764947 67.5466 0.764296H42.7982ZM150.197 0.855572C149.307 1.06716 148.516 1.57609 147.955 2.2982C147.393 3.02032 147.095 3.91239 147.11 4.8269V18.0021L125.761 1.01314C125.593 0.88025 125.392 0.797316 125.179 0.773884C124.967 0.750452 124.752 0.787474 124.56 0.88069C124.368 0.973907 124.205 1.11953 124.092 1.30081C123.979 1.48209 123.919 1.69166 123.92 1.90541V29.1093C123.905 30.0239 124.203 30.916 124.765 31.6381C125.326 32.3602 126.117 32.8691 127.007 33.0807C127.585 33.2078 128.184 33.2036 128.759 33.0684C129.335 32.9331 129.874 32.6703 130.335 32.2993C130.795 31.9283 131.167 31.4586 131.422 30.9248C131.677 30.3909 131.809 29.8067 131.808 29.215V15.9258L153.158 32.9151C153.325 33.0479 153.526 33.1308 153.739 33.1542C153.951 33.1776 154.166 33.1406 154.358 33.0474C154.55 32.9542 154.712 32.8087 154.826 32.6275C154.939 32.4463 154.999 32.2368 154.998 32.0231V4.71993C154.999 4.12844 154.867 3.54434 154.611 3.01071C154.356 2.47709 153.985 2.00753 153.524 1.63667C153.063 1.26581 152.525 1.0031 151.949 0.867917C151.373 0.73273 150.774 0.728511 150.197 0.855572ZM94.6103 7.92005C103.64 7.92005 110.387 12.6921 110.387 16.9606C110.387 21.2291 103.64 26.0011 94.6103 26.0011C85.5803 26.0011 78.8332 21.2291 78.8332 16.9606C78.8332 12.6921 85.5803 7.92005 94.6103 7.92005ZM94.6103 0.0071812C81.5398 0.0071812 70.9444 7.59754 70.9444 16.9606C70.9444 26.3236 81.5398 33.914 94.6103 33.914C107.681 33.914 118.276 26.3236 118.276 16.9606C118.276 7.59754 107.68 0.0071812 94.6103 0.0071812Z" fill="url(#paint0_linear_94_17527)"/>
</g>
<defs>
<linearGradient id="paint0_linear_94_17527" x1="77.4464" y1="0" x2="77.4464" y2="33.9203" gradientUnits="userSpaceOnUse">
<stop stop-color="#00609A"/>
<stop offset="1" stop-color="#1B3646"/>
</linearGradient>
<clipPath id="clip0_94_17527">
<rect width="155" height="33.9286" fill="white"/>
</clipPath>
</defs>
</svg>
