<svg width="180" height="41" viewBox="0 0 180 41" fill="none" xmlns="http://www.w3.org/2000/svg">
<g clip-path="url(#clip0_94_17642)">
<path d="M70.6517 9.78906C71.7459 9.78906 74.0279 9.85146 75.4346 11.0705C76.1848 11.6959 76.9036 12.8523 76.9036 14.7591C76.9036 15.9783 76.5912 17.2913 75.497 18.4477C74.653 19.3229 73.4651 19.9794 72.2461 20.2295V20.2921C73.4651 20.4172 74.403 20.9799 74.9968 21.5738C75.7159 22.3238 76.0597 23.2303 76.0597 24.3245C76.0597 26.2627 75.0908 28.482 72.965 29.951C70.6206 31.5454 67.901 31.6705 66.4006 31.6705H59.1797L63.6185 9.78906H70.6517ZM64.3063 28.2319H66.7757C67.4322 28.2319 68.9952 28.1695 70.1516 27.2003C70.9018 26.5441 71.3708 25.5125 71.3708 24.4183C71.3708 23.6057 71.0581 22.9805 70.4019 22.5741C69.6828 22.1677 68.8699 22.1053 68.026 22.1053H65.5566L64.3063 28.2319ZM66.2755 18.6665H68.4324C69.7765 18.6665 70.7457 18.2603 71.4022 17.6662C72.121 17.041 72.4335 16.1971 72.4335 15.4156C72.4335 14.3216 71.8083 13.8839 71.5272 13.6651C70.9331 13.3213 69.9641 13.2274 69.339 13.2274H67.3695L66.2755 18.6665Z" fill="url(#paint0_linear_94_17642)"/>
<path d="M84.9083 15.4844L83.6893 21.6113H90.504L91.723 15.4844H95.9742L92.692 31.6766H88.4406L89.8473 24.7371H83.0328L81.6261 31.6766H77.375L80.6572 15.4844H84.9083Z" fill="url(#paint1_linear_94_17642)"/>
<path d="M101.85 15.4844L103.163 24.6121L103.444 27.7068H103.569L110.071 15.4844H114.572L104.038 33.6458C103.288 34.9588 102.225 36.6782 100.725 37.6785C99.5052 38.4287 98.2552 38.6163 96.8485 38.6163C95.6918 38.6163 94.8166 38.4911 93.8477 38.1473L94.7853 34.9901C95.2543 35.2089 95.7856 35.3339 96.3794 35.3339C97.0985 35.3339 97.8174 35.2715 98.3489 34.9277C98.724 34.7087 99.3491 34.0212 99.6929 33.521L100.256 32.5832L97.3486 15.4844H101.85Z" fill="url(#paint2_linear_94_17642)"/>
<path d="M121.792 8.22656L118.947 22.1995H119.072L125.324 15.4788H130.388L122.761 23.0434L127.356 31.671H122.479L118.853 23.4498H118.697L117.009 31.671H112.758L117.541 8.22656H121.792Z" fill="url(#paint3_linear_94_17642)"/>
<path d="M131.485 17.7977C133.83 15.5468 136.643 15.2344 138.55 15.2344C140.019 15.2344 142.082 15.4844 143.676 17.1409C144.489 17.9538 145.458 19.5479 145.458 22.1115C145.458 25.081 144.364 27.3942 142.77 29.051C140.613 31.2702 138.018 31.9267 135.361 31.9267C133.861 31.9267 131.985 31.7393 130.391 30.27C129.016 28.9883 128.422 27.3316 128.422 25.331C128.422 22.2989 129.703 19.5479 131.485 17.7977ZM134.299 20.4858C133.298 21.9551 132.861 23.6743 132.861 25.206C132.861 25.6124 132.892 26.9878 133.548 27.8006C133.923 28.3008 134.58 28.8633 135.83 28.8633C137.55 28.8633 139.269 27.8006 140.301 25.4247C140.832 24.2057 141.019 22.9867 141.019 21.9551C141.019 21.0796 140.894 20.142 140.301 19.3605C139.738 18.6416 138.988 18.2976 138.081 18.2976C136.862 18.2976 135.518 18.7353 134.299 20.4858Z" fill="url(#paint4_linear_94_17642)"/>
<path d="M157.21 15.4844C159.305 15.4844 160.18 15.9532 160.587 16.2343C161.712 17.0161 161.837 18.1414 161.837 18.7352C161.837 19.8292 161.462 20.8608 160.743 21.6113C160.086 22.2675 158.93 22.8303 158.023 23.0803L157.992 23.1741C159.086 23.2678 160.024 23.7681 160.493 24.362C160.868 24.8621 161.024 25.5497 161.024 26.2062C161.024 27.7068 160.274 29.3634 158.805 30.3636C157.711 31.1451 156.085 31.6766 153.959 31.6766H145.77L149.052 15.4844H157.21ZM150.583 28.8632H153.866C154.772 28.8632 155.366 28.5508 155.71 28.207C156.179 27.8006 156.585 27.2065 156.585 26.2375C156.585 26.0188 156.554 25.4247 156.054 25.0185C155.554 24.6121 154.804 24.6121 154.147 24.6121H151.459L150.583 28.8632ZM152.021 21.7987H154.647C155.366 21.7987 155.96 21.7987 156.554 21.3923C157.179 20.9861 157.46 20.2983 157.46 19.6731C157.46 19.079 157.179 18.7666 156.96 18.6102C156.585 18.3288 156.054 18.2975 155.585 18.2975H152.74L152.021 21.7987Z" fill="url(#paint5_linear_94_17642)"/>
<path d="M166.028 17.7977C168.373 15.5468 171.186 15.2344 173.093 15.2344C174.562 15.2344 176.625 15.4844 178.219 17.1409C179.032 17.9538 180.001 19.5479 180.001 22.1115C180.001 25.081 178.907 27.3942 177.313 29.051C175.156 31.2702 172.561 31.9267 169.904 31.9267C168.404 31.9267 166.528 31.7393 164.934 30.27C163.559 28.9883 162.965 27.3316 162.965 25.331C162.965 22.2989 164.246 19.5479 166.028 17.7977ZM168.841 20.4858C167.841 21.9551 167.404 23.6743 167.404 25.206C167.404 25.6124 167.435 26.9878 168.091 27.8006C168.466 28.3008 169.123 28.8633 170.373 28.8633C172.092 28.8633 173.812 27.8006 174.843 25.4247C175.375 24.2057 175.562 22.9867 175.562 21.9551C175.562 21.0796 175.437 20.142 174.843 19.3605C174.281 18.6416 173.53 18.2976 172.624 18.2976C171.405 18.2976 170.06 18.7353 168.841 20.4858Z" fill="url(#paint6_linear_94_17642)"/>
<path d="M106.157 39.1642L105.264 36.5356L105.095 36.01H105.08L105.09 36.5779V39.1642H104.344V35.4844H105.605L106.341 37.624L106.504 38.2759H106.52L106.683 37.624L107.419 35.4844H108.681V39.1642H107.934V36.5779L107.945 36.01H107.929L107.761 36.5356L106.867 39.1642H106.157" fill="url(#paint7_linear_94_17642)"/>
<path d="M111.424 35.4844V36.1362H109.973V36.9668H111.292V37.5713H109.973V38.5121H111.424V39.1642H109.227V35.4844H111.424Z" fill="url(#paint8_linear_94_17642)"/>
<path d="M114.438 35.4844V37.0562H114.454L115.689 35.4844H116.578L115.148 37.1508L116.599 39.1642H115.653L114.454 37.3346H114.438V39.1642H113.692V37.3346H113.676L112.477 39.1642H111.531L112.982 37.1508L111.552 35.4844H112.441L113.676 37.0562H113.692V35.4844H114.438Z" fill="url(#paint9_linear_94_17642)"/>
<path d="M116.975 38.5121C117.349 37.8814 117.422 37.3346 117.422 36.6619V35.4844H119.819V38.5121H120.24V39.937H119.504V39.1642H117.291V39.937H116.555V38.5121H116.975ZM118.132 36.1362V36.6619C118.132 37.3873 118.09 37.9183 117.754 38.5121H119.073V36.1362H118.132Z" fill="url(#paint10_linear_94_17642)"/>
<path d="M121.043 35.4844L121.773 37.0511L121.931 37.44H121.947L122.105 37.0455L122.804 35.4844H123.54L122.068 38.6175C121.863 39.0538 121.584 39.2062 121.195 39.2062C121.022 39.2062 120.832 39.1747 120.638 39.0907L120.722 38.5335C120.827 38.5859 120.917 38.6122 121.038 38.6122C121.18 38.6122 121.348 38.607 121.453 38.3652L121.558 38.1181L120.207 35.4844H121.043" fill="url(#paint11_linear_94_17642)"/>
<path d="M124.465 35.4844V36.9668H125.958V35.4844H126.705V39.1642H125.958V37.5713H124.465V39.1642H123.719V35.4844H124.465Z" fill="url(#paint12_linear_94_17642)"/>
<path d="M129.283 35.4844L130.744 39.1642H129.904L129.593 38.3337H128.074L127.764 39.1642H126.965L128.432 35.4844H129.283ZM129.372 37.7289L128.831 36.2256H128.82L128.311 37.7289H129.372" fill="url(#paint13_linear_94_17642)"/>
<path d="M132.088 35.4844C133.423 35.4844 133.502 36.4043 133.502 36.6357C133.502 37.1193 133.166 37.7816 132.225 37.7816H131.747V39.1642H131V35.4844H132.088ZM132.088 37.2033C132.54 37.2033 132.714 36.8933 132.714 36.6145C132.714 36.3096 132.519 36.0627 132.088 36.0627H131.747V37.2033H132.088Z" fill="url(#paint14_linear_94_17642)"/>
<path d="M137.176 37.3196C137.176 38.6546 136.283 39.2014 135.373 39.2014C134.464 39.2014 133.57 38.6546 133.57 37.3196C133.57 35.9843 134.464 35.4375 135.373 35.4375C136.283 35.4375 137.176 35.9843 137.176 37.3196ZM134.359 37.3196C134.359 38.5653 135.095 38.6755 135.373 38.6755C135.652 38.6755 136.388 38.5653 136.388 37.3196C136.388 36.0734 135.652 35.9631 135.373 35.9631C135.095 35.9631 134.359 36.0734 134.359 37.3196Z" fill="url(#paint15_linear_94_17642)"/>
<path d="M137.538 38.5121C137.911 37.8814 137.985 37.3346 137.985 36.6619V35.4844H140.382V38.5121H140.802V39.937H140.066V39.1642H137.853V39.937H137.117V38.5121H137.538ZM138.694 36.1362V36.6619C138.694 37.3873 138.652 37.9183 138.316 38.5121H139.635V36.1362H138.694Z" fill="url(#paint16_linear_94_17642)"/>
<path d="M141.832 35.4844V36.9668H143.325V35.4844H144.072V39.1642H143.325V37.5713H141.832V39.1642H141.086V35.4844H141.832Z" fill="url(#paint17_linear_94_17642)"/>
<path d="M145.364 36.8617H145.879C147.146 36.8617 147.235 37.7449 147.235 37.9761C147.235 38.5439 146.914 39.1642 145.858 39.1642H144.617V35.4844H145.364V36.8617ZM145.364 38.5859H145.858C146.21 38.5859 146.473 38.3703 146.473 38.013C146.473 37.7762 146.357 37.44 145.8 37.44H145.364V38.5859ZM148.507 35.4844V39.1642H147.761V35.4844H148.507Z" fill="url(#paint18_linear_94_17642)"/>
<path d="M149.801 35.484V37.3765L149.785 38.2702H149.801L150.064 37.7339L151.352 35.484H152.245V39.1639H151.499V37.266L151.515 36.3777H151.499L151.247 36.9349L149.948 39.1639H149.055V35.484H149.801ZM151.583 34.6114C151.368 35.1424 150.921 35.2264 150.611 35.2264C150.3 35.2264 149.854 35.1424 149.638 34.6114L150.022 34.4062C150.153 34.7323 150.484 34.7481 150.611 34.7481C150.737 34.7481 151.068 34.7323 151.199 34.4062L151.583 34.6114Z" fill="url(#paint19_linear_94_17642)"/>
<path d="M155.857 35.4844L157.319 39.1642H156.478L156.168 38.3337H154.648L154.338 39.1642H153.539L155.006 35.4844H155.857ZM155.947 37.7289L155.405 36.2256H155.395L154.885 37.7289H155.947" fill="url(#paint20_linear_94_17642)"/>
<path d="M157.77 36.9619H159.315C159.258 36.6046 159.016 36.042 158.091 36.042C157.828 36.042 157.554 36.0894 157.297 36.1838L157.239 35.5953C157.523 35.5006 157.859 35.4375 158.254 35.4375C159.358 35.4375 160.104 36.1207 160.104 37.2615C160.104 38.4339 159.394 39.2014 158.143 39.2014C157.823 39.2014 157.502 39.1487 157.16 39.0278L157.25 38.4077C157.639 38.5757 157.975 38.5968 158.169 38.5968C158.927 38.5968 159.305 38.1341 159.315 37.5665H157.77V36.9619Z" fill="url(#paint21_linear_94_17642)"/>
<path d="M161.608 35.4844C162.943 35.4844 163.022 36.4043 163.022 36.6357C163.022 37.1193 162.685 37.7816 161.744 37.7816H161.266V39.1642H160.52V35.4844H161.608ZM161.608 37.2033C162.06 37.2033 162.233 36.8933 162.233 36.6145C162.233 36.3096 162.039 36.0627 161.608 36.0627H161.266V37.2033H161.608Z" fill="url(#paint22_linear_94_17642)"/>
<path d="M166.696 37.3196C166.696 38.6546 165.802 39.2014 164.893 39.2014C163.984 39.2014 163.09 38.6546 163.09 37.3196C163.09 35.9843 163.984 35.4375 164.893 35.4375C165.802 35.4375 166.696 35.9843 166.696 37.3196ZM163.878 37.3196C163.878 38.5653 164.614 38.6755 164.893 38.6755C165.171 38.6755 165.908 38.5653 165.908 37.3196C165.908 36.0734 165.171 35.9631 164.893 35.9631C164.614 35.9631 163.878 36.0734 163.878 37.3196Z" fill="url(#paint23_linear_94_17642)"/>
<path d="M170.062 35.4844V39.1642H169.316V36.0889H167.86V39.1642H167.113V35.4844H170.062Z" fill="url(#paint24_linear_94_17642)"/>
<path d="M174.083 37.3196C174.083 38.6546 173.189 39.2014 172.28 39.2014C171.37 39.2014 170.477 38.6546 170.477 37.3196C170.477 35.9843 171.37 35.4375 172.28 35.4375C173.189 35.4375 174.083 35.9843 174.083 37.3196ZM171.265 37.3196C171.265 38.5653 172.001 38.6755 172.28 38.6755C172.558 38.6755 173.294 38.5653 173.294 37.3196C173.294 36.0734 172.558 35.9631 172.28 35.9631C172.001 35.9631 171.265 36.0734 171.265 37.3196Z" fill="url(#paint25_linear_94_17642)"/>
<path d="M175.588 35.4844C176.923 35.4844 177.002 36.4043 177.002 36.6357C177.002 37.1193 176.666 37.7816 175.725 37.7816H175.247V39.1642H174.5V35.4844H175.588ZM175.588 37.2033C176.04 37.2033 176.214 36.8933 176.214 36.6145C176.214 36.3096 176.019 36.0627 175.588 36.0627H175.247V37.2033H175.588Z" fill="url(#paint26_linear_94_17642)"/>
<path d="M179.835 35.4844V36.1362H178.773V39.1642H178.027V36.1362H176.965V35.4844H179.835Z" fill="url(#paint27_linear_94_17642)"/>
<path d="M27.287 11.9571C27.8291 11.7765 30.8591 11.1443 33.6343 11.5313C33.0286 12.2788 32.4041 12.9792 31.7722 13.6275C30.1754 13.4029 28.0743 13.3152 25.9796 13.8397C25.6079 13.872 25.4025 14.4976 26.0308 14.3769C26.4919 14.2883 28.6563 14.1184 30.911 14.4748C30.2208 15.1313 29.5313 15.7319 28.8597 16.2745C27.5858 15.9451 26.1083 15.7161 24.5734 15.7921C24.2025 15.7518 23.8793 16.3255 24.519 16.3294C24.8926 16.3317 26.335 16.4933 27.9881 16.9563C24.9172 19.2814 22.4312 20.3739 22.4312 20.3739C22.4312 20.3739 34.1874 31.5112 35.2797 32.6445C35.3379 32.7052 35.3027 32.7494 35.253 32.7469C34.9696 32.7321 34.2673 32.6671 33.923 32.3917C33.518 32.0679 27.0036 26.2411 21.9861 23.8535C16.9686 21.4662 13.3268 21.7496 11.1822 21.9113C9.03753 22.0732 5.47677 23.166 4.82941 23.2466C4.33369 23.3085 3.71763 23.1191 3.45863 23.048C3.40987 23.0346 3.40657 22.9824 3.47334 22.9608C4.2217 22.7175 7.8754 21.5726 11.9105 19.8073C16.4424 17.8247 17.4136 15.3561 17.4542 14.7088C17.4947 14.0616 17.09 13.9402 16.8876 14.1422C16.6852 14.3446 16.1189 14.5469 15.5119 14.7491C14.9049 14.9516 14.6216 15.0327 13.691 15.8824C13.4887 15.8419 12.8817 15.073 12.8817 14.9113C13.4076 13.8188 15.1881 11.2695 15.1881 11.2695C15.1881 11.2695 14.7026 10.2173 14.743 10.1362C14.7834 10.0554 15.2691 10.2984 16.0379 10.8243C17.1708 10.5815 19.1941 10.4198 20.6104 12.1999C22.0266 13.9805 21.3387 16.368 20.9339 17.2984C20.7045 17.8257 20.489 18.2292 20.7318 18.3506C23.6857 16.6108 22.9572 11.1482 22.9572 11.1482C24.9334 9.73661 29.2812 8.2044 35.9206 8.15415C35.9425 8.15396 35.9777 8.16873 35.9514 8.21315C35.4668 9.03084 34.9485 9.80289 34.4081 10.5332C32.7889 10.3885 29.8969 10.3496 27.1656 11.4312C26.8014 11.5123 26.68 12.1596 27.287 11.9571ZM42.73 14.466V26.1197C42.73 29.8784 39.7372 34.1097 34.9111 37.162C29.8884 40.3386 23.2899 40.5857 21.3857 40.5857C19.4862 40.5857 12.8946 40.3386 7.87178 37.162C3.02057 34.0939 0 29.8627 0 26.1197V14.466C0 10.723 3.01897 6.49179 7.86999 3.42374C12.8928 0.247152 19.4862 0 21.3857 0C23.2899 0 29.8901 0.247152 34.9131 3.42374C39.7391 6.47602 42.73 10.7073 42.73 14.466ZM40.0593 14.466C40.0593 11.6575 37.4815 8.20926 33.4838 5.68091C28.9537 2.81581 22.6121 2.67063 21.3857 2.67063C20.1628 2.67063 13.8292 2.81581 9.29928 5.68091C5.27676 8.2248 2.67062 11.6733 2.67062 14.466V26.1197C2.67062 28.9124 5.27504 32.3609 9.29748 34.9048C13.8274 37.7699 20.1628 37.9151 21.3857 37.9151C22.6121 37.9151 28.9554 37.7699 33.4855 34.9048C37.4832 32.3762 40.0593 28.9279 40.0593 26.1197V14.466Z" fill="url(#paint28_linear_94_17642)"/>
</g>
<defs>
<linearGradient id="paint0_linear_94_17642" x1="68.0417" y1="9.78906" x2="68.0417" y2="31.6705" gradientUnits="userSpaceOnUse">
<stop stop-color="#00609A"/>
<stop offset="1" stop-color="#1B3646"/>
</linearGradient>
<linearGradient id="paint1_linear_94_17642" x1="86.6746" y1="15.4844" x2="86.6746" y2="31.6766" gradientUnits="userSpaceOnUse">
<stop stop-color="#00609A"/>
<stop offset="1" stop-color="#1B3646"/>
</linearGradient>
<linearGradient id="paint2_linear_94_17642" x1="104.21" y1="15.4844" x2="104.21" y2="38.6163" gradientUnits="userSpaceOnUse">
<stop stop-color="#00609A"/>
<stop offset="1" stop-color="#1B3646"/>
</linearGradient>
<linearGradient id="paint3_linear_94_17642" x1="121.573" y1="8.22656" x2="121.573" y2="31.671" gradientUnits="userSpaceOnUse">
<stop stop-color="#00609A"/>
<stop offset="1" stop-color="#1B3646"/>
</linearGradient>
<linearGradient id="paint4_linear_94_17642" x1="136.94" y1="15.2344" x2="136.94" y2="31.9267" gradientUnits="userSpaceOnUse">
<stop stop-color="#00609A"/>
<stop offset="1" stop-color="#1B3646"/>
</linearGradient>
<linearGradient id="paint5_linear_94_17642" x1="153.803" y1="15.4844" x2="153.803" y2="31.6766" gradientUnits="userSpaceOnUse">
<stop stop-color="#00609A"/>
<stop offset="1" stop-color="#1B3646"/>
</linearGradient>
<linearGradient id="paint6_linear_94_17642" x1="171.483" y1="15.2344" x2="171.483" y2="31.9267" gradientUnits="userSpaceOnUse">
<stop stop-color="#00609A"/>
<stop offset="1" stop-color="#1B3646"/>
</linearGradient>
<linearGradient id="paint7_linear_94_17642" x1="106.512" y1="35.4844" x2="106.512" y2="39.1642" gradientUnits="userSpaceOnUse">
<stop stop-color="#00609A"/>
<stop offset="1" stop-color="#1B3646"/>
</linearGradient>
<linearGradient id="paint8_linear_94_17642" x1="110.325" y1="35.4844" x2="110.325" y2="39.1642" gradientUnits="userSpaceOnUse">
<stop stop-color="#00609A"/>
<stop offset="1" stop-color="#1B3646"/>
</linearGradient>
<linearGradient id="paint9_linear_94_17642" x1="114.065" y1="35.4844" x2="114.065" y2="39.1642" gradientUnits="userSpaceOnUse">
<stop stop-color="#00609A"/>
<stop offset="1" stop-color="#1B3646"/>
</linearGradient>
<linearGradient id="paint10_linear_94_17642" x1="118.397" y1="35.4844" x2="118.397" y2="39.937" gradientUnits="userSpaceOnUse">
<stop stop-color="#00609A"/>
<stop offset="1" stop-color="#1B3646"/>
</linearGradient>
<linearGradient id="paint11_linear_94_17642" x1="121.873" y1="35.4844" x2="121.873" y2="39.2062" gradientUnits="userSpaceOnUse">
<stop stop-color="#00609A"/>
<stop offset="1" stop-color="#1B3646"/>
</linearGradient>
<linearGradient id="paint12_linear_94_17642" x1="125.212" y1="35.4844" x2="125.212" y2="39.1642" gradientUnits="userSpaceOnUse">
<stop stop-color="#00609A"/>
<stop offset="1" stop-color="#1B3646"/>
</linearGradient>
<linearGradient id="paint13_linear_94_17642" x1="128.855" y1="35.4844" x2="128.855" y2="39.1642" gradientUnits="userSpaceOnUse">
<stop stop-color="#00609A"/>
<stop offset="1" stop-color="#1B3646"/>
</linearGradient>
<linearGradient id="paint14_linear_94_17642" x1="132.251" y1="35.4844" x2="132.251" y2="39.1642" gradientUnits="userSpaceOnUse">
<stop stop-color="#00609A"/>
<stop offset="1" stop-color="#1B3646"/>
</linearGradient>
<linearGradient id="paint15_linear_94_17642" x1="135.373" y1="35.4375" x2="135.373" y2="39.2014" gradientUnits="userSpaceOnUse">
<stop stop-color="#00609A"/>
<stop offset="1" stop-color="#1B3646"/>
</linearGradient>
<linearGradient id="paint16_linear_94_17642" x1="138.96" y1="35.4844" x2="138.96" y2="39.937" gradientUnits="userSpaceOnUse">
<stop stop-color="#00609A"/>
<stop offset="1" stop-color="#1B3646"/>
</linearGradient>
<linearGradient id="paint17_linear_94_17642" x1="142.579" y1="35.4844" x2="142.579" y2="39.1642" gradientUnits="userSpaceOnUse">
<stop stop-color="#00609A"/>
<stop offset="1" stop-color="#1B3646"/>
</linearGradient>
<linearGradient id="paint18_linear_94_17642" x1="146.562" y1="35.4844" x2="146.562" y2="39.1642" gradientUnits="userSpaceOnUse">
<stop stop-color="#00609A"/>
<stop offset="1" stop-color="#1B3646"/>
</linearGradient>
<linearGradient id="paint19_linear_94_17642" x1="150.65" y1="34.4062" x2="150.65" y2="39.1639" gradientUnits="userSpaceOnUse">
<stop stop-color="#00609A"/>
<stop offset="1" stop-color="#1B3646"/>
</linearGradient>
<linearGradient id="paint20_linear_94_17642" x1="155.429" y1="35.4844" x2="155.429" y2="39.1642" gradientUnits="userSpaceOnUse">
<stop stop-color="#00609A"/>
<stop offset="1" stop-color="#1B3646"/>
</linearGradient>
<linearGradient id="paint21_linear_94_17642" x1="158.632" y1="35.4375" x2="158.632" y2="39.2014" gradientUnits="userSpaceOnUse">
<stop stop-color="#00609A"/>
<stop offset="1" stop-color="#1B3646"/>
</linearGradient>
<linearGradient id="paint22_linear_94_17642" x1="161.771" y1="35.4844" x2="161.771" y2="39.1642" gradientUnits="userSpaceOnUse">
<stop stop-color="#00609A"/>
<stop offset="1" stop-color="#1B3646"/>
</linearGradient>
<linearGradient id="paint23_linear_94_17642" x1="164.893" y1="35.4375" x2="164.893" y2="39.2014" gradientUnits="userSpaceOnUse">
<stop stop-color="#00609A"/>
<stop offset="1" stop-color="#1B3646"/>
</linearGradient>
<linearGradient id="paint24_linear_94_17642" x1="168.588" y1="35.4844" x2="168.588" y2="39.1642" gradientUnits="userSpaceOnUse">
<stop stop-color="#00609A"/>
<stop offset="1" stop-color="#1B3646"/>
</linearGradient>
<linearGradient id="paint25_linear_94_17642" x1="172.28" y1="35.4375" x2="172.28" y2="39.2014" gradientUnits="userSpaceOnUse">
<stop stop-color="#00609A"/>
<stop offset="1" stop-color="#1B3646"/>
</linearGradient>
<linearGradient id="paint26_linear_94_17642" x1="175.751" y1="35.4844" x2="175.751" y2="39.1642" gradientUnits="userSpaceOnUse">
<stop stop-color="#00609A"/>
<stop offset="1" stop-color="#1B3646"/>
</linearGradient>
<linearGradient id="paint27_linear_94_17642" x1="178.4" y1="35.4844" x2="178.4" y2="39.1642" gradientUnits="userSpaceOnUse">
<stop stop-color="#00609A"/>
<stop offset="1" stop-color="#1B3646"/>
</linearGradient>
<linearGradient id="paint28_linear_94_17642" x1="21.365" y1="0" x2="21.365" y2="40.5857" gradientUnits="userSpaceOnUse">
<stop stop-color="#00609A"/>
<stop offset="1" stop-color="#1B3646"/>
</linearGradient>
<clipPath id="clip0_94_17642">
<rect width="180" height="40.5857" fill="white"/>
</clipPath>
</defs>
</svg>
