<svg width="71" height="83" viewBox="0 0 71 83" fill="none" xmlns="http://www.w3.org/2000/svg">
<g clip-path="url(#clip0_94_17675)">
<path d="M65.467 0H4.49774C2.0137 0 0 2.35875 0 5.26841V76.6847C0 79.5944 2.0137 81.9531 4.49774 81.9531H65.467C67.9511 81.9531 69.9648 79.5944 69.9648 76.6847V5.26841C69.9648 2.35875 67.9511 0 65.467 0Z" fill="#EFF5F8"/>
<path d="M65.5463 1.8125H5.4628C3.06926 1.8125 1.12891 4.07146 1.12891 6.85803V76.8074C1.12891 79.594 3.06926 81.853 5.4628 81.853H65.5463C67.9398 81.853 69.8802 79.594 69.8802 76.8074V6.85803C69.8802 4.07146 67.9398 1.8125 65.5463 1.8125Z" fill="url(#paint0_linear_94_17675)" stroke="url(#paint1_linear_94_17675)" stroke-width="2.23729"/>
<path d="M63.6837 3.53906H7.33045C5.08551 3.53906 3.26562 5.70044 3.26562 8.36664V75.2943C3.26562 77.9605 5.08551 80.1219 7.33045 80.1219H63.6837C65.9286 80.1219 67.7485 77.9605 67.7485 75.2943V8.36664C67.7485 5.70044 65.9286 3.53906 63.6837 3.53906Z" stroke="#EFF5F8" stroke-width="0.910892"/>
<path d="M12.0531 25.8385V30.3092H14.0694C14.8737 30.3092 15.4998 30.1126 15.9479 29.7194C16.4017 29.3263 16.6286 28.7764 16.6286 28.0698C16.6286 27.3633 16.4046 26.816 15.9565 26.4282C15.5084 26.0351 14.8794 25.8385 14.0694 25.8385H12.0531ZM10.3125 24.5156H14.0694C15.5056 24.5156 16.5942 24.8185 17.3352 25.4241C18.0763 26.0244 18.4468 26.9064 18.4468 28.0698C18.4468 29.244 18.0763 30.1312 17.3352 30.7315C16.5999 31.3319 15.5113 31.632 14.0694 31.632H12.0531V36.4135H10.3125V24.5156Z" fill="#EFF5F8"/>
<path d="M24.536 25.9341L22.7006 32.0225H26.3714L24.536 25.9341ZM23.4848 24.5156H25.5959L29.5338 36.4135H27.7328L26.785 33.3135H22.2784L21.3478 36.4135H19.5469L23.4848 24.5156Z" fill="#EFF5F8"/>
<path d="M39.146 35.0587H40.1886V38.9795H38.7238V36.4135H31.5977V38.9795H30.1328V35.0587H30.7963C31.072 35.0587 31.3219 34.1768 31.546 32.413C31.7183 31.0529 31.8045 29.6584 31.8045 28.2292V24.5156H39.146V35.0587ZM37.3968 25.8704H33.5537V28.2372C33.5537 29.4272 33.4733 30.7846 33.3124 32.3094C33.1573 33.8341 33.0625 34.6337 33.0281 34.7081C32.9993 34.7825 32.985 34.8409 32.985 34.8834C32.985 35.0003 33.12 35.0587 33.39 35.0587H37.3968V25.8704Z" fill="#EFF5F8"/>
<path d="M41.6602 36.4135V24.5156H43.3404V34.3097L47.6833 24.5156H49.8892V36.4135H48.2089V26.6195L43.8661 36.4135H41.6602Z" fill="#EFF5F8"/>
<path d="M58.876 30.4729C58.876 28.725 58.6807 27.4765 58.29 26.7274C57.9052 25.9783 57.2704 25.6038 56.3857 25.6038C55.5068 25.6038 54.872 25.9783 54.4814 26.7274C54.0965 27.4765 53.9041 28.725 53.9041 30.4729C53.9041 32.2155 54.0965 33.4613 54.4814 34.2104C54.872 34.9595 55.5068 35.3341 56.3857 35.3341C57.2704 35.3341 57.9052 34.9622 58.29 34.2184C58.6807 33.4693 58.876 32.2208 58.876 30.4729ZM60.6941 30.4729C60.6941 32.5449 60.338 34.0909 59.6257 35.1109C58.9191 36.131 57.8391 36.641 56.3857 36.641C54.9324 36.641 53.8524 36.1336 53.1458 35.1189C52.4392 34.1042 52.0859 32.5555 52.0859 30.4729C52.0859 28.3956 52.4392 26.847 53.1458 25.8269C53.8581 24.8069 54.9381 24.2969 56.3857 24.2969C57.8391 24.2969 58.9191 24.8069 59.6257 25.8269C60.338 26.847 60.6941 28.3956 60.6941 30.4729Z" fill="#EFF5F8"/>
<path d="M23.2202 55.4494H24.2629V59.3702H22.798V56.8041H15.6719V59.3702H14.207V55.4494H14.8705C15.1463 55.4494 15.3962 54.5674 15.6202 52.8036C15.7925 51.4436 15.8787 50.049 15.8787 48.6199V44.9062H23.2202V55.4494ZM21.471 46.261H17.6279V48.6278C17.6279 49.8179 17.5475 51.1753 17.3866 52.7C17.2315 54.2248 17.1367 55.0244 17.1023 55.0987C17.0736 55.1731 17.0592 55.2315 17.0592 55.274C17.0592 55.3909 17.1942 55.4494 17.4642 55.4494H21.471V46.261Z" fill="#EFF5F8"/>
<path d="M29.8485 46.3247L28.0131 52.4131H31.6839L29.8485 46.3247ZM28.7973 44.9062H30.9084L34.8463 56.8041H33.0453L32.0975 53.7041H27.5909L26.6603 56.8041H24.8594L28.7973 44.9062Z" fill="#EFF5F8"/>
<path d="M36.3359 48.9944V44.9062H38.0852V48.7872C38.0852 49.6532 38.2431 50.1924 38.5591 50.4049C38.875 50.6174 39.3461 50.7237 39.9722 50.7237C40.6443 50.7237 41.1556 50.6865 41.506 50.6121C41.8564 50.5324 42.293 50.3093 42.8158 49.9427V44.9062H44.565V56.8041H42.8158V51.5604C42.1379 51.8686 41.5836 52.0545 41.1527 52.1183C40.7219 52.1767 40.1446 52.2059 39.4208 52.2059C38.3695 52.2059 37.5911 51.9456 37.0856 51.425C36.5858 50.9043 36.3359 50.0941 36.3359 48.9944Z" fill="#EFF5F8"/>
<path d="M51.079 46.3247L49.2436 52.4131H52.9144L51.079 46.3247ZM50.0277 44.9062H52.1388L56.0767 56.8041H54.2758L53.328 53.7041H48.8214L47.8908 56.8041H46.0898L50.0277 44.9062Z" fill="#EFF5F8"/>
</g>
<defs>
<linearGradient id="paint0_linear_94_17675" x1="35.5046" y1="1.8125" x2="35.5046" y2="81.853" gradientUnits="userSpaceOnUse">
<stop stop-color="#00609A"/>
<stop offset="1" stop-color="#1B3646"/>
</linearGradient>
<linearGradient id="paint1_linear_94_17675" x1="35.5046" y1="1.8125" x2="35.5046" y2="81.853" gradientUnits="userSpaceOnUse">
<stop stop-color="#00609A"/>
<stop offset="1" stop-color="#1B3646"/>
</linearGradient>
<clipPath id="clip0_94_17675">
<rect width="71" height="82.9713" fill="white"/>
</clipPath>
</defs>
</svg>
