<svg width="116" height="68" viewBox="0 0 116 68" fill="none" xmlns="http://www.w3.org/2000/svg">
<g clip-path="url(#clip0_94_17727)">
<path d="M9.96875 0.0078125H106.031C111.537 0.0078125 116 4.47267 116 9.98008V58.0283C116 63.5357 111.537 68.0006 106.031 68.0006H9.96875C4.46328 68.0006 0 63.5357 0 58.0283V9.98008C0 4.47267 4.46328 0.0078125 9.96875 0.0078125Z" fill="url(#paint0_linear_94_17727)"/>
<path d="M97.082 24.4897H101.047C103.607 24.4897 105.691 26.5748 105.691 29.1358C105.691 31.6969 103.607 33.782 101.047 33.782H97.082V40.6946C97.082 43.505 94.7937 45.7941 91.9844 45.7941C89.175 45.7941 86.8867 43.505 86.8867 40.6946V23.5831C86.8867 16.6932 92.4602 11.1177 99.3477 11.1177H102.859C105.42 11.1177 107.504 13.2029 107.504 15.7639C107.504 18.325 105.42 20.4101 102.859 20.4101H99.5742C98.1922 20.4101 97.082 21.5206 97.082 22.9032V24.4897ZM76.3516 24.4897H80.3164C82.8766 24.4897 84.9609 26.5748 84.9609 29.1358C84.9609 31.6969 82.8766 33.782 80.3164 33.782H76.3516V53.1599C76.3516 55.9703 74.0633 58.2594 71.2539 58.2594C68.4445 58.2594 66.1562 55.9703 66.1562 53.1599V23.5831C66.1562 16.6932 71.7297 11.1177 78.6172 11.1177H82.1289C84.6891 11.1177 86.7734 13.2029 86.7734 15.7639C86.7734 18.325 84.6891 20.4101 82.1289 20.4101H78.8438C77.4617 20.4101 76.3516 21.5206 76.3516 22.9032V24.4897ZM19.5977 46.4287V53.1826C19.5977 55.993 17.3094 58.2821 14.5 58.2821C11.6906 58.2821 9.40234 55.993 9.40234 53.1826V14.6534C9.40234 11.8203 11.6906 9.53125 14.5 9.53125C17.3094 9.53125 19.5977 11.8203 19.5977 14.6307V24.603H26.168V14.6307C26.168 11.8203 28.4562 9.53125 31.2656 9.53125C34.075 9.53125 36.3633 11.8203 36.3633 14.6307V53.1599C36.3633 55.9703 34.075 58.2594 31.2656 58.2594C28.4562 58.2594 26.168 55.9703 26.168 53.1599V36.1617C26.168 34.7792 25.0578 33.6687 23.6758 33.6687H19.5977V46.4287ZM50.9766 21.8833H51.4297C58.3172 21.8833 63.8906 27.4587 63.8906 34.3486V45.7941C63.8906 52.684 58.3172 58.2594 51.4297 58.2594H50.9766C44.0891 58.2594 38.5156 52.684 38.5156 45.7941V34.3486C38.5156 27.4587 44.0891 21.8833 50.9766 21.8833ZM51.2031 30.949C49.7531 30.949 48.5977 32.1048 48.5977 33.5554V46.5873C48.5977 48.0378 49.7531 49.1937 51.2031 49.1937C52.6531 49.1937 53.8086 48.0378 53.8086 46.5873V33.5554C53.8086 32.1048 52.6531 30.949 51.2031 30.949ZM91.9844 47.1539C95.1109 47.1539 97.6484 49.6923 97.6484 52.82C97.6484 55.9476 95.1109 58.486 91.9844 58.486C88.8578 58.486 86.3203 55.9476 86.3203 52.82C86.3203 49.6923 88.8578 47.1539 91.9844 47.1539Z" fill="#EFF5F8"/>
</g>
<defs>
<linearGradient id="paint0_linear_94_17727" x1="58" y1="0.0078125" x2="58" y2="68.0006" gradientUnits="userSpaceOnUse">
<stop stop-color="#00609A"/>
<stop offset="1" stop-color="#1B3646"/>
</linearGradient>
<clipPath id="clip0_94_17727">
<rect width="116" height="68" fill="white"/>
</clipPath>
</defs>
</svg>
