<svg width="125" height="38" viewBox="0 0 125 38" fill="none" xmlns="http://www.w3.org/2000/svg">
<g clip-path="url(#clip0_94_17696)">
<path d="M30.6473 9.95195C30.3155 10.2837 30.3155 10.7814 30.6473 11.0302C30.979 11.362 31.4767 11.362 31.7255 11.0302C32.0573 10.6984 32.0573 10.2008 31.7255 9.95195C31.3938 9.62018 30.8961 9.62018 30.6473 9.95195Z" fill="#EFF5F8"/>
<path d="M38.2788 9.45312H34.9611L34.1317 10.4484C33.9658 10.6143 34.0487 10.6973 34.2146 10.7802L35.2929 11.2779L38.3618 9.86784C38.6106 9.7849 38.5277 9.45312 38.2788 9.45312ZM25.9203 25.71H21.8561C20.7778 26.3735 20.4461 26.5394 19.036 27.12C18.9531 27.12 18.8701 27.2859 18.9531 27.3688L22.6026 37.5709H24.6762L21.3584 28.1983C23.515 28.1983 28.7404 27.6177 31.5604 23.0558C30.6481 24.3829 28.5745 25.71 25.9203 25.71ZM31.7263 11.029C31.3946 11.3608 30.8969 11.3608 30.6481 11.029C30.3163 10.6973 30.3163 10.1996 30.6481 9.95078C30.9798 9.61901 31.4775 9.61901 31.7263 9.95078C31.0628 9.28724 29.9845 9.28724 29.4039 9.95078C28.8233 10.6143 28.7404 11.6096 29.4039 12.2732C30.0675 12.9367 31.1457 12.9367 31.7263 12.2732C32.3069 11.6096 32.3899 10.6143 31.7263 9.95078C31.9752 10.2826 31.9752 10.6973 31.7263 11.029ZM23.6808 29.6083L26.5009 37.5709H28.5745L25.5885 29.1936C25.0909 29.3595 24.4273 29.4424 23.6808 29.6083ZM26.5009 19.6551C26.7497 19.3234 26.9156 18.9916 27.1645 18.5769C27.0815 18.4939 26.9986 18.5769 26.9156 18.6598C22.6855 23.1387 18.6213 23.7193 15.4695 23.7193H10.6588C10.4929 23.7193 10.4099 23.5535 10.4929 23.3876C14.2253 18.2451 18.2895 14.1809 21.3584 11.6096L13.3129 18.328C12.6494 18.8257 11.9029 19.1575 10.9076 19.1575H0.788532C0.539703 19.1575 0.622646 19.4063 0.622646 19.5722C1.28619 21.7287 3.27683 23.7193 6.59455 23.7193L4.1892 26.1247C4.10626 26.2076 4.10626 26.4565 4.35509 26.4565H13.3959C19.8655 26.4565 23.9297 23.6364 26.5009 19.6551Z" fill="url(#paint0_linear_94_17696)"/>
<path d="M116.743 37.5732H124.125V14.7639H116.743V23.1411H109.776V14.7639H102.394V37.5732H109.776V28.9472H116.743V37.5732ZM29.4039 12.2756C28.7404 11.612 28.7404 10.6167 29.4039 9.95318C30.0675 9.28963 31.1457 9.28963 31.7263 9.95318C32.3069 10.6167 32.3899 11.612 31.7263 12.2756C31.0628 12.9391 29.9845 12.9391 29.4039 12.2756ZM31.4775 23.0582C34.2976 18.4963 35.2929 11.2803 35.2929 11.2803L34.2146 10.7826C34.0487 10.6997 34.0487 10.6167 34.1317 10.4508L34.9611 9.45552C34.4635 8.4602 32.6387 6.80134 29.9845 6.80134C28.4086 6.80134 26.9986 7.21605 25.7544 8.04548C25.7544 8.04548 23.9297 9.28963 21.3584 11.5291C18.2895 14.1833 14.2253 18.1645 10.4929 23.307C10.4099 23.4729 10.4929 23.6388 10.6588 23.6388H15.4695C18.6213 23.6388 22.6855 23.0582 26.9156 18.5793C26.9986 18.4963 27.0815 18.4963 27.1645 18.4963C27.2474 18.5793 27.2474 18.6622 27.2474 18.7451C26.5839 20.404 24.925 23.6388 21.8561 25.6294H25.9203C28.6574 25.6294 30.6481 24.3853 31.4775 23.0582ZM27.3303 28.5324L30.4822 37.4903H39.4401C37.6153 31.9331 35.6247 26.7906 33.717 22.0629C32.224 25.2977 30.814 26.8736 27.3303 28.5324ZM0.125 37.5732H9.1658L12.2347 28.0348H3.44273C2.36446 30.8548 1.2862 34.0067 0.125 37.5732ZM12.3176 17.0863L16.8795 13.3538C17.8748 10.6997 18.8701 8.04548 19.8655 5.80602C20.3631 6.96722 20.8608 8.21137 21.3584 9.45552C23.8467 7.38194 25.4227 6.13779 27.4962 5.55719C26.2521 2.82007 25.3397 0.829431 24.925 0H14.8059C13.9765 1.82475 10.7417 8.54314 6.92634 17.5839H10.5758C11.3223 17.5839 11.9029 17.501 12.3176 17.0863ZM68.2213 35.002L68.719 37.4903H74.6909V14.7639H67.3089V30.606C66.6454 31.3525 65.4013 32.1819 64.2401 32.1819C62.1665 32.1819 61.0882 31.0207 61.0882 28.8642V14.7639H53.7063V30.606C53.0427 31.3525 51.6327 32.1819 50.3885 32.1819C48.4809 32.1819 47.4026 31.0207 47.4026 28.8642V14.7639H40.0206V29.8595C40.0206 35.3338 42.426 38.0709 47.4026 38.0709C50.9691 38.0709 53.1257 36.7438 54.7845 35.002C55.9457 37.0756 58.0193 38.0709 61.0882 38.0709C64.6548 37.988 66.6454 36.7438 68.2213 35.002ZM91.6942 30.5231C91.0307 31.2696 89.9524 32.099 88.1277 32.099C86.137 32.099 85.0588 30.2742 85.0588 26.7077C85.0588 22.3117 86.22 20.1552 88.6253 20.1552C90.0354 20.1552 90.6989 20.2381 91.6942 20.487V30.5231ZM85.5564 37.988H85.8053C89.123 37.988 91.3625 36.8268 92.6066 35.002L93.0213 37.4903H99.0762V15.6763C96.6708 14.9298 93.8508 14.2662 88.7083 14.2662C81.3263 14.2662 77.3451 18.7451 77.3451 27.0395C77.3451 34.6702 80.1651 37.988 85.5564 37.988Z" fill="url(#paint1_linear_94_17696)"/>
</g>
<defs>
<linearGradient id="paint0_linear_94_17696" x1="19.5607" y1="9.45312" x2="19.5607" y2="37.5709" gradientUnits="userSpaceOnUse">
<stop stop-color="#00609A"/>
<stop offset="1" stop-color="#1B3646"/>
</linearGradient>
<linearGradient id="paint1_linear_94_17696" x1="62.125" y1="0" x2="62.125" y2="38.0709" gradientUnits="userSpaceOnUse">
<stop stop-color="#00609A"/>
<stop offset="1" stop-color="#1B3646"/>
</linearGradient>
<clipPath id="clip0_94_17696">
<rect width="124" height="37.988" fill="white" transform="translate(0.125)"/>
</clipPath>
</defs>
</svg>
