<svg width="122" height="48" viewBox="0 0 122 48" fill="none" xmlns="http://www.w3.org/2000/svg">
<path d="M1.71484 17.6073V24.0441L19.0792 22.1341V15.1672L1.71484 17.6073ZM7.2561 24.4356V46.4927H13.6134V23.7859L7.2561 24.4356ZM21.4243 14.8377V46.4927H28.1231V13.8959L21.4243 14.8377ZM29.3711 13.7203V21.0023L39.0441 19.938V12.3612L29.3711 13.7203ZM29.3711 26.4222V33.8368L35.7208 33.4905V25.8756L29.3711 26.4222ZM29.3711 39.1812V46.4927H39.0441V38.8895L29.3711 39.1812ZM64.0596 8.83428V46.4927H72.8412V7.59999L64.0596 8.83428ZM74.4811 7.36925V16.0315L87.2786 14.6244V5.57028L74.4811 7.36925ZM74.4811 22.5462V31.3689L82.8691 30.9109V21.8279L74.4811 22.5462ZM74.4811 37.8177V46.4927H87.2786V37.4313L74.4811 37.8177ZM41.6035 12.0009V46.4927H49.2342V10.9281L41.6035 12.0009ZM50.6584 38.5391V46.4923H61.7347V38.2048L50.6584 38.5391ZM115.97 5.14445C113.194 2.52228 109.125 1.44674 104.674 2.08616V11.6937C106.477 11.5936 107.937 12.2625 108.588 13.6093C109.615 15.7326 108.555 18.9184 106.055 21.87C102.195 26.4249 91.9305 35.7479 91.9305 35.7479L106.665 35.2634C115.668 26.4678 118.901 21.1288 119.481 14.4654C119.786 10.9401 118.507 7.54342 115.97 5.14445ZM120.001 46.4927V36.4398L90.1144 37.3401L120.001 46.4927ZM90.1144 37.3398L90.1175 46.4923H120.001L90.1144 37.3398ZM102.956 2.30182C94.2739 4.15085 90.0105 10.5383 90.5025 20.9608L99.7596 20.1393C99.3379 14.2511 101.139 12.8543 102.961 12.0863L102.956 2.30182Z" fill="url(#paint0_linear_94_17638)"/>
<defs>
<linearGradient id="paint0_linear_94_17638" x1="60.8577" y1="1.90625" x2="60.8577" y2="46.4927" gradientUnits="userSpaceOnUse">
<stop stop-color="#00609A"/>
<stop offset="1" stop-color="#1B3646"/>
</linearGradient>
</defs>
</svg>
