<svg width="185" height="36" viewBox="0 0 185 36" fill="none" xmlns="http://www.w3.org/2000/svg">
<path d="M100.456 18.3411V23.3327C100.456 23.5181 100.305 23.6784 100.11 23.6784H96.1759C92.9984 23.6271 91.7229 22.159 91.6741 18.9674C91.7229 15.8747 92.8609 14.3315 96.1947 14.2852V14.2922H104.487V10.8751H96.1947C90.2873 10.9052 87.8539 13.4216 87.7363 18.7702L87.7313 19.1899L87.7363 19.1969C87.8626 24.3876 90.2911 26.9367 96.0284 27.0219V27.0259H102.1C103.501 27.0259 104.507 25.8534 104.507 24.6171V18.3403H100.456V18.3411ZM132.963 27.0176V20.3676H143.054V17.0682H132.963V12.0854C132.963 11.895 133.117 11.7371 133.311 11.7371H143.287V8.3213H131.321C129.921 8.3213 128.913 9.49122 128.913 10.73V27.0176H132.963ZM75.0962 23.6193C74.8986 23.6193 74.7485 23.4602 74.7485 23.2723V20.3863H84.835V17.0895H74.7485V14.6306C74.7485 14.4428 74.8986 14.2824 75.0962 14.2824H85.0739V10.8653H73.1066C71.7036 10.8653 70.6957 12.0403 70.6957 13.2766V24.6251C70.6957 25.8652 71.7036 27.0376 73.1066 27.0376H85.0739V23.6193H75.0962ZM64.091 7.9375C62.1965 7.9375 60.9873 8.9496 60.0907 10.9851L54.8161 23.1553L49.5377 10.9851C48.6399 8.9496 47.4306 7.9375 45.5349 7.9375C43.7617 7.9375 41.9297 9.20889 41.9297 11.9709V27.0384H45.9725V12.383L51.2822 24.4505C51.9962 26.1365 53.1429 27.195 54.8123 27.1975H54.8163C56.4845 27.1945 57.6337 26.1365 58.3465 24.4505L63.6549 12.383V27.0384H67.6977V11.9709C67.6977 9.20889 65.8632 7.9375 64.0913 7.9375H64.091ZM113.719 20.3866L116.209 14.5157C116.288 14.3315 116.43 14.2827 116.538 14.2827H116.54C116.647 14.2827 116.792 14.3316 116.869 14.5157L119.362 20.3866H113.719H113.719ZM119.865 12.6706C119.186 11.1975 117.837 10.4798 116.54 10.4798H116.538C115.24 10.4798 113.891 11.1975 113.217 12.6706L106.6 27.0379H110.905L112.347 23.6233H120.734L122.177 27.0379H126.481L119.866 12.6706H119.865ZM179.528 10.8657V21.6744L172.577 12.1734C171.99 11.4344 171.338 10.8657 169.996 10.8657C168.764 10.8657 167.242 11.8415 167.242 13.6941V27.048H171.291V16.2419L178.212 25.7741C178.814 26.5958 179.437 27.048 180.823 27.048C182.056 27.048 183.576 26.1625 183.576 24.2184V10.8657H179.528ZM155.267 23.8474C151.133 23.8474 149.944 22.3267 149.944 18.941V18.9234C149.944 15.6379 151.078 14.0233 155.267 14.0233C159.461 14.0233 160.593 15.6379 160.593 18.9234V18.941C160.593 22.3267 159.401 23.8474 155.267 23.8474ZM164.534 18.9234C164.533 13.2617 162.277 10.6212 155.267 10.6212C148.262 10.6212 146.004 13.2617 146.001 18.9234V18.9347C146.001 24.5088 148.32 27.1969 155.267 27.1969C162.216 27.1969 164.534 24.5088 164.534 18.9347V18.9234Z" fill="url(#paint0_linear_94_17481)"/>
<path d="M14.5173 15.3309C13.3993 15.3309 12.4914 14.4228 12.4914 13.3042C12.4914 12.1831 13.3993 11.275 14.5173 11.275C15.6352 11.275 16.5406 12.1831 16.5406 13.3042C16.5406 14.4228 15.6352 15.3309 14.5173 15.3309ZM17.6222 1.95312C8.67492 1.95312 1.42578 9.2157 1.42578 18.1768C1.42578 25.9529 6.88921 32.4514 14.1784 34.0335V19.4745L14.1794 19.4735C14.1957 18.7708 14.7546 18.2046 15.4499 18.1783V18.1773H16.1239H17.4957C17.5907 18.1773 17.6683 18.1021 17.6733 18.0082L17.6743 1.95603L17.6222 1.95312ZM28.7834 27.0272C27.6667 27.0272 26.7589 26.1191 26.7589 24.998C26.7589 23.8807 27.6667 22.9725 28.7834 22.9725C29.9001 22.9725 30.808 23.8807 30.808 24.998C30.808 26.1191 29.9001 27.0272 28.7834 27.0272ZM24.0378 27.0272C22.9211 27.0272 22.0145 26.1191 22.0145 24.998C22.0145 23.8807 22.9211 22.9725 24.0378 22.9725C25.1557 22.9725 26.0624 23.8807 26.0624 24.998C26.0624 26.1191 25.1557 27.0272 24.0378 27.0272ZM19.2897 27.0272C18.173 27.0272 17.2639 26.1191 17.2639 24.998C17.2639 23.8807 18.173 22.9725 19.2897 22.9725C20.4089 22.9725 21.3155 23.8807 21.3155 24.998C21.3155 26.1191 20.4089 27.0272 19.2897 27.0272ZM19.621 2.0754V18.1763V18.8026V18.8139L19.617 18.818C19.611 19.542 19.0218 20.1269 18.2965 20.1269H17.6738H16.3032C16.2032 20.1269 16.1231 20.2071 16.1231 20.306V34.3327C16.6171 34.3778 17.1148 34.4028 17.6212 34.4028C26.5673 34.4028 33.8177 27.1377 33.8177 18.1766C33.8177 9.89568 27.6227 3.06275 19.6208 2.0757" fill="url(#paint1_linear_94_17481)"/>
<defs>
<linearGradient id="paint0_linear_94_17481" x1="112.753" y1="7.9375" x2="112.753" y2="27.1975" gradientUnits="userSpaceOnUse">
<stop stop-color="#00609A"/>
<stop offset="1" stop-color="#1B3646"/>
</linearGradient>
<linearGradient id="paint1_linear_94_17481" x1="17.6217" y1="1.95312" x2="17.6217" y2="34.4028" gradientUnits="userSpaceOnUse">
<stop stop-color="#00609A"/>
<stop offset="1" stop-color="#1B3646"/>
</linearGradient>
</defs>
</svg>
