<svg width="89" height="77" viewBox="0 0 89 77" fill="none" xmlns="http://www.w3.org/2000/svg">
<g clip-path="url(#clip0_94_17486)">
<path d="M63.6426 5.91243C71.1366 5.91243 77.2153 37.5816 77.2153 76.6929H88.1507C88.1507 34.5854 77.1189 0.5 63.6105 0.5C55.8914 0.5 49.0729 10.7127 44.5701 26.7567C40.0673 10.7127 33.2488 0.5 25.594 0.5C12.0856 0.5 1.08594 34.5532 1.08594 76.6607H12.0213C12.0213 37.5494 18.0357 5.91243 25.5297 5.91243C33.0236 5.91243 39.1024 35.1653 39.1024 71.2482H49.9734C49.9734 35.1653 56.0844 5.91243 63.5783 5.91243" fill="url(#paint0_linear_94_17486)"/>
</g>
<defs>
<linearGradient id="paint0_linear_94_17486" x1="44.6183" y1="0.5" x2="44.6183" y2="76.6929" gradientUnits="userSpaceOnUse">
<stop stop-color="#00609A"/>
<stop offset="1" stop-color="#1B3646"/>
</linearGradient>
<clipPath id="clip0_94_17486">
<rect width="87.708" height="76.8372" fill="white" transform="translate(0.667969 0.132812)"/>
</clipPath>
</defs>
</svg>
