<svg width="158" height="65" viewBox="0 0 158 65" fill="none" xmlns="http://www.w3.org/2000/svg">
<g clip-path="url(#clip0_94_17501)">
<path fill-rule="evenodd" clip-rule="evenodd" d="M32.672 63.836L32.4143 63.837C15.1551 63.837 1.16406 49.8075 1.16406 32.5005C1.16406 15.1935 15.1551 1.16406 32.4143 1.16406L32.6953 1.16504H125.846C142.987 1.30369 156.815 15.2797 156.815 32.5003C156.815 49.721 142.963 63.6971 125.823 63.8357H32.672V63.836Z" fill="white" stroke="white" stroke-width="2.3271"/>
<path fill-rule="evenodd" clip-rule="evenodd" d="M32.672 63.836L32.4143 63.837C15.1551 63.837 1.16406 49.8075 1.16406 32.5005C1.16406 15.1935 15.1551 1.16406 32.4143 1.16406L32.6953 1.16504H125.846C142.987 1.30369 156.815 15.2797 156.815 32.5003C156.815 49.721 142.963 63.6971 125.823 63.8357H32.672V63.836Z" fill="url(#paint0_linear_94_17501)"/>
<path fill-rule="evenodd" clip-rule="evenodd" d="M107.906 20.9675H108.6V18.3386C108.6 18.0204 108.902 17.2611 109.727 17.2611C110.348 17.2611 110.519 17.653 110.519 18.2V20.9678H111.213V18.3386C111.213 17.6856 111.646 17.2611 112.315 17.2611C112.993 17.2611 113.131 17.6775 113.131 18.2V20.9678H113.825V17.8732C113.825 16.9997 113.262 16.6484 112.421 16.6484C111.883 16.6484 111.385 16.9179 111.099 17.3671C110.927 16.8527 110.454 16.6484 109.94 16.6484C109.36 16.6484 108.886 16.8934 108.576 17.3671H108.56V16.7467H107.907V20.9675H107.906Z" fill="white"/>
<path fill-rule="evenodd" clip-rule="evenodd" d="M118.549 16.75H117.822L116.671 20.2688H116.655L115.471 16.75H114.695L116.263 20.9709H117.006L118.549 16.75Z" fill="white"/>
<path fill-rule="evenodd" clip-rule="evenodd" d="M119.465 20.9701H120.159V16.7493H119.465V20.9701ZM120.159 15.1406H119.465V15.9896H120.159V15.1406Z" fill="white"/>
<path fill-rule="evenodd" clip-rule="evenodd" d="M125.243 15.1406H124.549V17.3124H124.532C124.222 16.8144 123.601 16.651 123.169 16.651C121.879 16.651 121.242 17.6554 121.242 18.8473C121.242 20.0393 121.887 21.0679 123.185 21.0679C123.765 21.0679 124.304 20.8638 124.533 20.3984H124.549V20.9699H125.243V15.1406H125.243ZM121.977 18.8963C121.977 18.0718 122.295 17.2634 123.243 17.2634C124.197 17.2634 124.573 18.0309 124.573 18.8637C124.573 19.6557 124.214 20.456 123.283 20.456C122.385 20.456 121.977 19.6885 121.977 18.8963Z" fill="white"/>
<path fill-rule="evenodd" clip-rule="evenodd" d="M129.464 19.6286C129.341 20.1756 128.941 20.4534 128.37 20.4534C127.447 20.4534 127.031 19.8001 127.055 19.0652H130.215C130.256 18.0447 129.799 16.6484 128.304 16.6484C127.153 16.6484 126.32 17.5793 126.32 18.8447C126.361 20.1347 126.998 21.0653 128.345 21.0653C129.292 21.0653 129.962 20.5592 130.149 19.6283H129.464V19.6286ZM127.055 18.453C127.104 17.8081 127.537 17.2611 128.264 17.2611C128.95 17.2611 129.448 17.7917 129.48 18.453H127.055Z" fill="white"/>
<path fill-rule="evenodd" clip-rule="evenodd" d="M131.266 18.8611C131.266 20.094 131.976 21.0655 133.315 21.0655C134.654 21.0655 135.364 20.094 135.364 18.8611C135.364 17.6202 134.654 16.6484 133.315 16.6484C131.976 16.6484 131.266 17.6202 131.266 18.8611ZM132 18.8611C132 17.8323 132.588 17.2608 133.315 17.2608C134.041 17.2608 134.629 17.8323 134.629 18.8611C134.629 19.8819 134.041 20.4534 133.315 20.4534C132.588 20.4534 132 19.8819 132 18.8611Z" fill="white"/>
<path d="M137.481 20.0625H136.574V20.9686H137.481V20.0625Z" fill="white"/>
<path fill-rule="evenodd" clip-rule="evenodd" d="M138.898 20.9688H139.592V19.0909C139.592 18.0215 140.001 17.3846 141.119 17.3846V16.6497C140.368 16.6252 139.903 16.9601 139.568 17.6376H139.551V16.7477H138.898V20.9688Z" fill="white"/>
<path fill-rule="evenodd" clip-rule="evenodd" d="M145.616 16.75H144.921V19.1339C144.921 19.8933 144.513 20.4567 143.672 20.4567C143.142 20.4567 142.815 20.1218 142.815 19.6074V16.75H142.121V19.5259C142.121 20.4322 142.464 21.0688 143.574 21.0688C144.179 21.0688 144.652 20.8239 144.946 20.3014H144.962V20.9709H145.616V16.75Z" fill="white"/>
<path d="M58.6144 15.0446H59.0186L59.6384 16.0239H60.0141L59.3682 15.0194C59.718 14.9929 59.9602 14.8077 59.9602 14.4107C59.9602 13.9612 59.6918 13.75 59.1533 13.75H58.2656V16.0239H58.6147V15.0446H58.6144ZM58.6144 14.0405H59.0992C59.3417 14.0405 59.6107 14.0934 59.6107 14.3847C59.6107 14.7281 59.3415 14.7546 59.0453 14.7546H58.6142V14.0405H58.6144Z" fill="white"/>
<path d="M59.0445 16.897C60.1204 16.897 61.063 16.0242 61.063 14.8869C61.063 13.7501 60.1204 12.9297 59.0445 12.9297C57.9417 12.9297 56.9727 13.7501 56.9727 14.8869C56.9727 16.024 57.9417 16.897 59.0445 16.897ZM59.0445 13.2474C59.9589 13.2474 60.6595 13.9612 60.6595 14.8869C60.6595 15.8393 59.9589 16.5266 59.0445 16.5266C58.1289 16.5266 57.4033 15.839 57.4033 14.8869C57.4035 13.9612 58.1291 13.2474 59.0445 13.2474Z" fill="white"/>
<path d="M56.5519 43.8332C56.5519 45.0364 55.5755 46.0123 54.3727 46.0123C53.1698 46.0123 52.1953 45.0364 52.1953 43.8332C52.1953 42.6304 53.1698 41.6562 54.3727 41.6562C55.5755 41.6563 56.5519 42.6304 56.5519 43.8332Z" fill="white"/>
<path d="M83.5608 17.4012C80.3491 15.612 66.0615 19.6575 61.4769 35.1047C60.9372 35.2529 58.3444 35.9271 58.3444 35.9271L57.2109 38.98L61.2312 37.7537C61.2312 37.7537 60.79 45.1593 67.5315 45.3805C72.8253 45.1828 75.5943 37.6552 73.8987 32.3595C73.5758 32.5302 69.3454 34.5656 69.3454 34.5656C69.3454 34.5656 70.3255 40.3777 67.9727 41.089C67.2108 41.1865 66.3167 38.8599 67.1364 35.3747C78.3826 29.5273 85.5126 18.4968 83.5608 17.4012ZM79.0756 20.932C81.2317 20.7375 70.8649 31.7706 68.2164 32.3095C67.3593 31.8198 74.7857 21.9868 79.0756 20.932Z" fill="white"/>
<path d="M77.3833 31.5048V33.6864C77.3833 33.6864 80.2515 31.8232 80.472 32.1669C80.5447 33.1472 76.9191 41.4361 76.8449 42.6856C76.7709 43.4462 77.4818 46.3154 80.8384 44.8194C82.4823 44.1091 86.8882 40.4972 86.8882 40.4972C86.8882 40.4972 86.1783 42.34 86.4796 43.8132C86.7779 45.2868 88.6065 45.6748 90.2546 45.0646C91.9029 44.4532 93.7849 43.2003 94.5955 42.2199C94.4725 41.9003 94.0064 40.4296 94.0064 40.4296C94.0064 40.4296 92.5293 41.8236 92.1655 41.6418C91.8005 41.4591 96.3599 28.0967 96.3599 28.0967C96.3599 28.0967 91.6849 27.9156 91.2188 27.9156C90.4486 31.4259 86.0835 40.3311 83.0715 40.724C82.0395 40.6503 86.7231 30.2048 86.8962 29.0273C87.2389 27.4821 86.0835 26.7717 84.7129 27.0904C83.2672 27.5815 77.3833 31.5048 77.3833 31.5048Z" fill="white"/>
<path d="M109.503 27.764C109.503 27.764 108.936 29.1622 108.83 29.4033C108.239 28.3823 106.194 26.3927 101.972 29.0277C97.5644 31.8778 95.6814 36.7451 96.2744 41.9066C96.9194 46.1819 101.543 46.6914 104.661 43.0616C104.339 44.0042 101.031 54.1675 101.031 54.1675L106.167 54.1942L114.557 27.8711L109.503 27.764ZM103.873 40.481C103.147 40.8835 102.019 41.5546 101.859 39.0007C101.778 35.9899 104.201 32.624 104.664 32.0963C105.873 30.7256 107.382 30.7003 107.344 32.8711C107.184 35.3707 105.568 39.3231 103.873 40.481Z" fill="white"/>
<path d="M27.0393 45.0349C24.4714 42.3212 26.4686 37.3253 26.8992 32.8999C26.327 33.4716 20.6163 46.7471 15.4771 46.1737C10.9094 44.7497 11.4801 39.6086 12.9075 35.7549H20.3297C18.046 42.0349 21.1863 39.466 23.3282 35.4698C27.6108 26.762 27.8967 26.0487 32.6077 12.9141C35.3196 12.9141 38.0311 12.9141 40.745 12.9141C38.3184 20.338 36.0332 27.6184 35.0355 35.3267C35.0355 35.6118 35.1773 35.8975 35.4632 35.7549C37.1749 35.4698 46.5975 14.3434 47.4534 12.9141C49.8811 12.9141 52.7364 12.9141 55.304 12.9141C55.304 13.6279 46.5975 37.4676 48.0251 39.7511C48.7396 41.0357 49.7396 38.6101 50.5947 37.6097L51.8807 38.8953C49.3111 41.7515 46.3141 46.8885 42.0307 46.0331C41.4592 45.89 40.8883 45.6064 40.461 45.1767C36.0334 41.323 44.0284 27.3906 43.173 26.4761C42.9069 26.5058 42.6407 27.214 42.1723 28.1886C39.7445 33.1858 34.1801 46.3182 29.6089 46.3182C28.8966 46.3182 27.467 45.6061 27.0393 45.0349Z" fill="white"/>
<path d="M119.535 41.1193C129.052 36.1178 131.337 29.7729 128.407 27.9979C124.077 25.578 112.222 29.9069 113.566 41.7653C112.972 42.1141 111.734 42.7867 111.734 42.7867L112.597 45.1526C112.597 45.1526 114.344 44.1049 114.795 43.7918C120.852 48.7025 127.498 40.6505 127.498 40.6505L126.336 38.8606C126.336 38.8606 121.306 43.699 119.535 41.1193ZM120.797 33.859C122.168 31.4391 124.374 29.5573 125.449 30.3103C126.525 31.0636 124.346 34.881 119.22 38.9375C119.015 38.584 119.426 36.2795 120.797 33.859Z" fill="white"/>
<path d="M135.129 28.1844L140.641 28.0237C140.641 28.0237 132.898 34.1332 134.026 39.9078C134.916 43.4181 138.192 41.7083 139.995 37.7299C140.342 36.95 142.522 31.653 141.15 31.653C139.779 31.653 138.347 34.3689 138.347 34.3689L136.847 32.8633C136.847 32.8633 139.886 28.5335 143.345 27.3743C143.759 27.244 146.257 26.7335 146.286 30.3087C146.395 31.9756 144.595 41.1184 138.33 44.344C132.583 47.2992 130.061 43.7603 129.606 42.704C126.458 34.8882 135.129 28.1844 135.129 28.1844Z" fill="white"/>
</g>
<defs>
<linearGradient id="paint0_linear_94_17501" x1="78.9897" y1="1.16406" x2="78.9897" y2="63.837" gradientUnits="userSpaceOnUse">
<stop stop-color="#00609A"/>
<stop offset="1" stop-color="#1B3646"/>
</linearGradient>
<clipPath id="clip0_94_17501">
<rect width="157.979" height="65" fill="white"/>
</clipPath>
</defs>
</svg>
