<svg width="93" height="95" viewBox="0 0 93 95" fill="none" xmlns="http://www.w3.org/2000/svg">
<g clip-path="url(#clip0_94_17434)">
<path d="M70.0224 13.3688C70.2455 12.8214 69.7993 12.3061 69.7993 12.3061C69.7993 12.3061 66.2935 6.31628 53.9593 4.96374C47.3301 4.25527 38.3425 5.60781 32.032 9.05357C20.5584 15.2688 18.8373 25.5417 18.8373 25.5417C18.7736 25.7993 18.678 26.5722 18.9329 26.8943C19.1879 27.2163 19.5704 27.2163 20.0484 27.0553C24.0961 25.6705 36.1115 21.6451 43.6968 19.6163C54.5011 16.718 63.3932 14.9468 69.0663 13.9807C69.5125 13.8841 69.863 13.7553 70.0224 13.3688Z" fill="#92A5B0" fill-opacity="0.5"/>
<path d="M82.3557 61.7339C75.8858 76.4186 63.4879 86.6271 47.2018 86.8525C35.3776 87.0136 24.9239 82.9237 17.3704 75.7746L12.8128 77.739V70.5898C7.84092 63.8271 4.94065 55.2288 4.94065 45.5034C4.94065 20.5458 23.8402 0.901693 50.2295 0.901693C54.5322 0.901693 58.4204 1.57797 61.3526 2.25424C56.8269 0.805085 52.333 0 47.3293 0C19.0277 0 -0.03125 23.1864 -0.03125 47.1136C-0.03125 73.1661 20.2069 95 46.7556 95C72.125 95 85.7978 76.9339 90.196 66.0492L82.3557 61.7339Z" fill="url(#paint0_linear_94_17434)"/>
<path d="M75.7913 56.5787C79.5202 56.16 82.1018 54.6465 83.5041 53.2295C84.779 51.9414 85.0977 50.2024 85.0977 48.8821C85.1614 46.9499 85.0977 40.8956 85.0977 40.8956L75.2495 43.0533C75.2495 43.0533 75.2495 43.7939 75.2495 45.3719C75.2814 46.9177 76.0144 47.755 77.608 47.4651C78.1179 47.3685 78.8828 47.1431 78.8828 47.1431V49.0431C78.8828 48.9787 79.0422 50.1058 76.5562 50.5889C73.3054 51.1041 71.8393 49.0753 71.8074 45.5007C71.8712 41.6685 74.0065 39.4787 76.62 38.8668C79.5521 38.1905 81.2094 38.899 82.1655 39.0278C85.4164 39.5109 86.3407 34.5838 83.3766 33.4244C81.1775 32.5228 78.341 32.3617 75.632 32.9092C71.9986 33.6499 64.8914 36.7092 64.8595 46.66C64.8276 54.5821 70.5963 57.1583 75.7913 56.5787Z" fill="url(#paint1_linear_94_17434)"/>
<path d="M43.7578 65.0526C43.7578 65.0526 46.7856 63.9899 47.0405 63.9255C49.4627 63.0882 50.3551 61.6068 50.3551 59.095C50.3233 56.3577 50.3233 51.0119 50.3233 51.0119L57.3668 59.1916C58.5142 60.3831 59.9484 60.4797 61.2551 60.0933C62.5937 59.7068 63.741 58.4509 63.7729 56.6797C63.7729 50.7865 63.7729 36.3594 63.7729 36.3594C63.7729 36.3594 61.9562 36.7458 60.4583 37.1645C58.7373 37.6475 57.3987 38.7746 57.3987 41.7373C57.3987 42.7678 57.3987 48.7899 57.3987 48.7899C57.3987 48.7899 53.3829 43.7339 50.8013 41.1255C49.4309 39.7407 47.1362 40.578 47.1362 40.578L43.7578 41.6085V65.0526Z" fill="url(#paint2_linear_94_17434)"/>
<path d="M41.624 42.125C41.624 42.125 39.5205 42.7369 37.7994 43.3809C35.5684 44.186 34.2617 45.5064 34.2617 48.9199C34.2617 52.0759 34.2617 68.403 34.2617 68.403C34.2617 68.403 36.2059 67.7267 38.0544 67.0182C40.636 66.0199 41.624 64.6674 41.624 61.9301C41.624 59.5792 41.624 42.125 41.624 42.125Z" fill="url(#paint3_linear_94_17434)"/>
<path d="M31.1393 46.7566C29.1952 45.8549 27.5379 46.8532 26.8367 47.9481L20.8768 58.221V49.9448L13.8014 52.8753L13.7695 76.2549L18.7414 74.1617C18.7414 74.1617 19.7294 73.8719 20.3031 72.938C20.8449 72.0685 20.8131 70.6515 20.8131 70.6515V63.2447L26.3586 69.2024C27.5697 70.4905 29.8007 71.1346 31.7767 69.5244C33.5615 68.0753 33.2747 65.5956 32.2867 64.4685L27.251 59.3481C27.251 59.3481 31.6811 52.2634 32.4142 51.1041C33.3703 49.4939 32.8922 47.5617 31.1393 46.7566Z" fill="url(#paint4_linear_94_17434)"/>
<path d="M28.3673 74.2574C28.1124 74.8693 28.7179 75.4812 28.7179 75.4812C31.2676 78.7337 42.6456 82.8557 55.0116 79.8286C73.8793 75.2235 77.8632 61.7303 78.3094 59.8303C78.405 59.4439 78.4688 58.832 78.1182 58.4456C77.8314 58.1235 77.3852 58.1235 76.8115 58.2524C63.6806 61.3761 41.9126 68.1066 29.3235 73.549C28.7817 73.7744 28.5586 73.871 28.3673 74.2574Z" fill="#92A5B0" fill-opacity="0.5"/>
<path d="M17.1796 43.6034C17.1478 42.3152 16.1597 41.6067 14.4706 42.4762V46.6305C14.4706 46.6305 15.0124 46.3728 15.4267 46.1796C16.4466 45.6966 17.2115 44.8593 17.1796 43.6034ZM14.4387 39.8356C14.7574 39.7067 14.9805 39.6101 15.2355 39.4813C16.1597 39.0305 16.829 38.161 16.829 37.0661C16.829 35.8101 15.8092 35.4881 14.4387 36.1966C14.4387 36.2288 14.4387 39.8356 14.4387 39.8356ZM21.7053 42.9915C21.7691 46.2762 19.4425 48.0152 16.3828 49.2712L10.168 51.944V34.9084C10.168 34.9084 14.0881 33.2983 15.363 32.8152C18.9963 31.4627 21.1316 33.1051 21.1316 35.5525C21.1316 37.1949 20.4305 38.5796 18.9325 39.8034C20.3986 40.061 21.6735 41.2847 21.7053 42.9915Z" fill="url(#paint5_linear_94_17434)"/>
<path d="M33.4967 28.6303C33.4967 27.1812 32.5087 26.8269 31.3295 27.149C30.3734 27.4388 29.2579 27.8574 29.2579 27.8574V38.4524C29.2579 39.5151 29.0985 40.8354 27.7918 41.1575C26.8038 41.4151 26.3257 40.7388 26.3257 39.6761V31.0134C26.3257 29.5642 25.3377 29.1456 24.1585 29.532C22.8199 29.9829 22.055 30.3049 22.055 30.3049C22.055 30.3049 22.055 37.8083 22.055 40.8032C22.0231 44.3134 24.4453 46.0846 28.0786 44.9897C31.2976 44.0236 33.4649 42.188 33.4967 37.5185V28.6303Z" fill="url(#paint6_linear_94_17434)"/>
<path d="M68.1092 33.0083C69.0335 32.8151 69.6071 32.1388 69.6071 30.9795C69.6071 29.949 69.6071 29.1439 69.6071 29.1439L64.5715 30.271V27.2761C64.5715 27.2761 67.0575 26.7609 67.7267 26.5998C68.5873 26.4066 69.0335 25.9236 69.0335 24.9253C69.0335 23.9914 69.0335 23.1863 69.0335 23.1863L64.5715 24.1524V21.7693C64.5715 21.7693 66.8981 21.2863 68.1411 21.0287C69.1291 20.8354 69.4478 20.1592 69.4478 19.2253C69.4478 18.6134 69.4478 17.4219 69.4478 17.4219C67.2168 17.8083 62.978 18.6778 60.3327 19.2897L60.3008 34.8117C60.3008 34.8117 65.3364 33.6202 68.1092 33.0083Z" fill="url(#paint7_linear_94_17434)"/>
<path d="M38.914 32.362C38.914 32.362 41.4 31.0417 41.4 28.9806C41.3681 27.2095 39.7745 27.5959 38.9459 27.9179L38.914 32.362ZM38.9459 34.7772C38.9459 34.7772 38.9459 37.74 38.9459 38.9637C38.9459 40.0908 38.181 40.8959 37.2249 41.2823C37.2249 41.3145 37.2249 41.2501 37.2249 41.2823C36.4281 41.5722 34.707 42.1518 34.707 42.1518V26.1467C34.707 26.1467 38.2447 24.8908 40.3164 24.4078C43.5035 23.6349 45.7982 25.1162 45.7663 27.7569C45.7345 30.2688 44.364 31.7823 43.121 32.845L45.8619 35.4857C46.6906 36.323 46.7543 37.8044 45.8301 38.7061C45.2564 39.2535 43.7584 39.801 42.6111 38.5772C42.5792 38.5772 38.9459 34.7772 38.9459 34.7772Z" fill="url(#paint8_linear_94_17434)"/>
<path d="M74.6745 23.767C74.6745 23.767 77.1286 22.8331 77.0967 20.8365C77.0648 19.1619 75.4394 19.4517 74.6426 19.645L74.6745 23.767ZM70.5312 32.5263V17.1975C70.5312 17.1975 74.9613 16.3924 76.1087 16.2636C79.2958 15.845 81.4312 17.6484 81.3674 20.1602C81.3356 22.3823 79.9651 23.7348 78.7859 24.5399C78.7859 24.5399 80.9531 26.9873 81.5268 27.6636C82.2917 28.5331 82.2598 30.0467 81.1125 30.7873C79.997 31.4958 78.8496 31.1416 78.2122 30.4009L74.6745 26.1501C74.6745 26.1501 74.6745 28.7585 74.6745 29.8856C74.6745 31.0128 74.0052 31.85 72.8578 32.0755L70.5312 32.5263Z" fill="url(#paint9_linear_94_17434)"/>
<path d="M59.312 26.083L53.0334 27.5322C53.0334 27.5322 53.0334 28.2084 53.0334 29.3034C53.0334 30.1406 53.6071 30.6559 54.4357 30.4949C54.9457 30.3983 55.36 30.3017 55.36 30.3017V32.0728C55.36 32.7813 54.3401 33.2322 53.2565 33.2C51.7267 33.1356 50.898 31.944 50.8662 29.6898C50.898 26.7271 52.3004 24.9881 54.1808 24.5051C55.105 24.2474 55.9656 24.3762 56.6348 24.4728C58.2603 24.7305 59.1845 23.9576 59.2164 22.6051C59.2483 21.1559 57.9734 20.2542 55.2644 20.3508C49.3364 20.544 46.3086 24.8593 46.3086 29.9796C46.3086 35.2288 49.7188 37.5474 53.8621 36.8067C56.1887 36.3237 57.3679 35.5508 58.1647 34.8423C58.9614 34.1339 59.312 33.0712 59.312 32.1373V26.083Z" fill="url(#paint10_linear_94_17434)"/>
<path d="M34.5482 8.92188C27.6003 12.0134 22.9153 19.388 22.6603 22.4795C22.5647 23.7032 24.1901 23.8965 24.3495 22.5761C25.8155 16.9083 30.2775 11.5626 34.5482 8.92188Z" fill="white"/>
<path d="M57.527 14.2021C61.2559 13.2682 63.3275 13.1394 63.3594 11.4327C63.4232 8.59876 55.4554 5.31401 48.125 5.92588C55.5828 6.44113 60.0448 9.33944 60.0448 11.336C60.0767 12.6242 58.9612 13.7513 57.527 14.2021Z" fill="white"/>
<path d="M59.8203 76.6747C65.4296 74.4527 70.8159 70.1696 73.8118 63.7933C74.6723 61.9577 72.1863 60.9916 71.4852 63.1815C69.7322 67.7222 66.1627 73.0357 59.8203 76.6747Z" fill="white"/>
<path d="M88.0911 57.5128H88.8561C89.2704 57.5128 89.8122 57.5772 89.8122 58.0925C89.8122 58.6721 89.4297 58.7365 88.9198 58.7365H88.123L88.0911 57.5128ZM87.1669 61.4094H88.0593V59.445H88.633L89.7485 61.4094H90.7046L89.4935 59.3806C90.1628 59.3162 90.7046 58.9942 90.7046 58.1569C90.7046 57.1586 90.0672 56.7721 88.9198 56.7721H87.1669V61.4094ZM84.6172 59.0908C84.6172 61.6027 86.5932 63.245 88.8242 63.245C91.0552 63.245 93.0312 61.6349 93.0312 59.0908C93.0312 56.5789 91.0552 54.9688 88.8242 54.9688C86.5932 54.9688 84.6172 56.5789 84.6172 59.0908ZM85.7327 59.0908C85.7327 57.223 87.1031 55.8382 88.8242 55.8382C90.5134 55.8382 91.9157 57.1908 91.9157 59.0908C91.9157 60.9908 90.5134 62.3433 88.8242 62.3433C87.1031 62.3755 85.7327 60.9908 85.7327 59.0908Z" fill="url(#paint11_linear_94_17434)"/>
</g>
<defs>
<linearGradient id="paint0_linear_94_17434" x1="45.0824" y1="0" x2="45.0824" y2="95" gradientUnits="userSpaceOnUse">
<stop stop-color="#00609A"/>
<stop offset="1" stop-color="#1B3646"/>
</linearGradient>
<linearGradient id="paint1_linear_94_17434" x1="75.0144" y1="32.5938" x2="75.0144" y2="56.6569" gradientUnits="userSpaceOnUse">
<stop stop-color="#00609A"/>
<stop offset="1" stop-color="#1B3646"/>
</linearGradient>
<linearGradient id="paint2_linear_94_17434" x1="53.7654" y1="36.3594" x2="53.7654" y2="65.0526" gradientUnits="userSpaceOnUse">
<stop stop-color="#00609A"/>
<stop offset="1" stop-color="#1B3646"/>
</linearGradient>
<linearGradient id="paint3_linear_94_17434" x1="37.9428" y1="42.125" x2="37.9428" y2="68.403" gradientUnits="userSpaceOnUse">
<stop stop-color="#00609A"/>
<stop offset="1" stop-color="#1B3646"/>
</linearGradient>
<linearGradient id="paint4_linear_94_17434" x1="23.4214" y1="46.4062" x2="23.4214" y2="76.2549" gradientUnits="userSpaceOnUse">
<stop stop-color="#00609A"/>
<stop offset="1" stop-color="#1B3646"/>
</linearGradient>
<linearGradient id="paint5_linear_94_17434" x1="15.9373" y1="32.3281" x2="15.9373" y2="51.944" gradientUnits="userSpaceOnUse">
<stop stop-color="#00609A"/>
<stop offset="1" stop-color="#1B3646"/>
</linearGradient>
<linearGradient id="paint6_linear_94_17434" x1="27.7757" y1="27.0391" x2="27.7757" y2="45.3117" gradientUnits="userSpaceOnUse">
<stop stop-color="#00609A"/>
<stop offset="1" stop-color="#1B3646"/>
</linearGradient>
<linearGradient id="paint7_linear_94_17434" x1="64.954" y1="17.4219" x2="64.954" y2="34.8117" gradientUnits="userSpaceOnUse">
<stop stop-color="#00609A"/>
<stop offset="1" stop-color="#1B3646"/>
</linearGradient>
<linearGradient id="paint8_linear_94_17434" x1="40.6052" y1="24.2031" x2="40.6052" y2="42.1518" gradientUnits="userSpaceOnUse">
<stop stop-color="#00609A"/>
<stop offset="1" stop-color="#1B3646"/>
</linearGradient>
<linearGradient id="paint9_linear_94_17434" x1="76.2889" y1="16.2031" x2="76.2889" y2="32.5263" gradientUnits="userSpaceOnUse">
<stop stop-color="#00609A"/>
<stop offset="1" stop-color="#1B3646"/>
</linearGradient>
<linearGradient id="paint10_linear_94_17434" x1="52.8103" y1="20.3438" x2="52.8103" y2="36.9415" gradientUnits="userSpaceOnUse">
<stop stop-color="#00609A"/>
<stop offset="1" stop-color="#1B3646"/>
</linearGradient>
<linearGradient id="paint11_linear_94_17434" x1="88.8242" y1="54.9688" x2="88.8242" y2="63.245" gradientUnits="userSpaceOnUse">
<stop stop-color="#00609A"/>
<stop offset="1" stop-color="#1B3646"/>
</linearGradient>
<clipPath id="clip0_94_17434">
<rect width="93" height="95" fill="white"/>
</clipPath>
</defs>
</svg>
