<svg width="156" height="78" viewBox="0 0 156 78" fill="none" xmlns="http://www.w3.org/2000/svg">
<g clip-path="url(#clip0_94_17472)">
<path d="M155.118 0.1875H0.914062V77.8106H155.118V0.1875Z" fill="url(#paint0_linear_94_17472)" stroke="white" stroke-width="1.10239"/>
<path d="M136.986 45.3636C136.952 45.6403 136.848 46.3682 135.908 46.4627H127.653C126.713 46.3682 126.542 45.6403 126.507 45.3636V32.5083C126.541 32.2309 126.672 31.6414 127.612 31.5468H135.912C136.852 31.6414 136.952 32.2309 136.986 32.5083V45.3636ZM139.845 26.7033H123.648C121.215 26.9013 119.159 28.1464 118.885 30.9318V46.8475C119.159 49.6329 121.215 51.1086 123.648 51.3066H139.845C142.278 51.1086 144.334 49.6329 144.608 46.8475V30.9318C144.334 28.1464 142.278 26.9013 139.845 26.7033ZM74.2973 31.5468H67.0564V26.7033H89.16V31.5468H81.9191V51.3066H74.2973V31.5468ZM64.7702 31.5468V26.7033H44.9533V51.3066L65.0336 51.3013L65.0408 46.4631H52.5944L52.5956 41.1935H64.7701V36.3619H52.5956V31.5469H64.7701L64.7702 31.5468ZM108.977 35.3603C108.977 35.8928 108.845 36.3599 107.898 36.3599H99.0682V31.5306H107.909C108.985 31.5306 108.977 32.2405 108.977 32.6838V35.3603ZM111.088 41.7422C113.466 41.5501 115.836 39.9176 115.836 37.2364V31.1623C115.56 28.3899 113.498 26.8927 111.054 26.6953H91.4462L91.4468 51.3066H99.0682V41.7422H102.102L107.056 51.3066H115.821L109.921 41.7422H111.088H111.088ZM29.1765 51.3066L34.283 35.8526V51.3066H41.9048V26.7033H31.6156L26.6614 39.0053L21.7071 26.7033H11.418V51.3066H19.0397V35.8526L24.184 51.3066H29.1765Z" fill="#EFF5F8"/>
</g>
<defs>
<linearGradient id="paint0_linear_94_17472" x1="78.0158" y1="0.1875" x2="78.0158" y2="77.8106" gradientUnits="userSpaceOnUse">
<stop stop-color="#00609A"/>
<stop offset="1" stop-color="#1B3646"/>
</linearGradient>
<clipPath id="clip0_94_17472">
<rect width="154.512" height="77.9349" fill="white" transform="translate(0.757812 0.03125)"/>
</clipPath>
</defs>
</svg>
