<svg width="32" height="32" viewBox="0 0 32 32" fill="none" xmlns="http://www.w3.org/2000/svg">
<path d="M13 5.33854V29.3385H19V5.33854C19 3.87188 18.4 2.67188 16.6 2.67188H15.4C13.6 2.67188 13 3.87188 13 5.33854Z" fill="#FF7A57"/>
<path d="M29.3346 29.3359H2.66797C2.1213 29.3359 1.66797 28.8826 1.66797 28.3359C1.66797 27.7893 2.1213 27.3359 2.66797 27.3359H29.3346C29.8813 27.3359 30.3346 27.7893 30.3346 28.3359C30.3346 28.8826 29.8813 29.3359 29.3346 29.3359Z" fill="#002B45"/>
<path d="M4 13.3385V29.3385H9.33333V13.3385C9.33333 11.8719 8.8 10.6719 7.2 10.6719H6.13333C4.53333 10.6719 4 11.8719 4 13.3385Z" fill="#002B45"/>
<path d="M22.668 19.9948V29.3281H28.0013V19.9948C28.0013 18.5281 27.468 17.3281 25.868 17.3281H24.8013C23.2013 17.3281 22.668 18.5281 22.668 19.9948Z" fill="#002B45"/>
</svg>
