<svg width="32" height="32" viewBox="0 0 32 32" fill="none" xmlns="http://www.w3.org/2000/svg">
<path d="M24.1438 13.0703L13.7313 2.65781L12.4988 1.42531C12.088 1.01448 11.408 1.01448 10.9971 1.42531C10.5863 1.83615 10.5863 2.51615 10.9971 2.92698L12.2296 4.15948L4.25379 12.1353C3.34712 13.042 2.86545 13.9628 2.83712 14.8836C2.80879 15.8611 3.29045 16.8386 4.25379 17.8161L9.93462 23.497C11.833 25.3811 13.7313 25.3811 15.6155 23.497L24.1438 14.9686C24.4271 14.6853 24.5546 14.3028 24.5263 13.9345C24.5121 13.6228 24.3705 13.297 24.1438 13.0703Z" fill="#002B45"/>
<g filter="url(#filter0_i_94_17828)">
<path d="M22.6667 30.2266H4.25C3.66917 30.2266 3.1875 29.7449 3.1875 29.1641C3.1875 28.5832 3.66917 28.1016 4.25 28.1016H22.6667C23.2475 28.1016 23.7292 28.5832 23.7292 29.1641C23.7292 29.7449 23.2475 30.2266 22.6667 30.2266Z" fill="#FF7A57"/>
</g>
<g filter="url(#filter1_i_94_17828)">
<path d="M27.4125 18.9381C27.0442 18.5415 26.3642 18.5415 25.9958 18.9381C25.5567 19.4198 23.375 21.8706 23.375 23.7406C23.375 25.5823 24.8625 27.0698 26.7042 27.0698C28.5458 27.0698 30.0333 25.5823 30.0333 23.7406C30.0333 21.8848 27.8517 19.4198 27.4125 18.9381Z" fill="#FF7A57"/>
</g>
<defs>
<filter id="filter0_i_94_17828" x="3.1875" y="28.1016" width="20.541" height="2.125" filterUnits="userSpaceOnUse" color-interpolation-filters="sRGB">
<feFlood flood-opacity="0" result="BackgroundImageFix"/>
<feBlend mode="normal" in="SourceGraphic" in2="BackgroundImageFix" result="shape"/>
<feColorMatrix in="SourceAlpha" type="matrix" values="0 0 0 0 0 0 0 0 0 0 0 0 0 0 0 0 0 0 127 0" result="hardAlpha"/>
<feOffset/>
<feGaussianBlur stdDeviation="2"/>
<feComposite in2="hardAlpha" operator="arithmetic" k2="-1" k3="1"/>
<feColorMatrix type="matrix" values="0 0 0 0 1 0 0 0 0 0.208333 0 0 0 0 0 0 0 0 1 0"/>
<feBlend mode="normal" in2="shape" result="effect1_innerShadow_94_17828"/>
</filter>
<filter id="filter1_i_94_17828" x="23.375" y="18.6406" width="6.6582" height="8.42871" filterUnits="userSpaceOnUse" color-interpolation-filters="sRGB">
<feFlood flood-opacity="0" result="BackgroundImageFix"/>
<feBlend mode="normal" in="SourceGraphic" in2="BackgroundImageFix" result="shape"/>
<feColorMatrix in="SourceAlpha" type="matrix" values="0 0 0 0 0 0 0 0 0 0 0 0 0 0 0 0 0 0 127 0" result="hardAlpha"/>
<feOffset/>
<feGaussianBlur stdDeviation="2"/>
<feComposite in2="hardAlpha" operator="arithmetic" k2="-1" k3="1"/>
<feColorMatrix type="matrix" values="0 0 0 0 1 0 0 0 0 0.208333 0 0 0 0 0 0 0 0 1 0"/>
<feBlend mode="normal" in2="shape" result="effect1_innerShadow_94_17828"/>
</filter>
</defs>
</svg>
