<svg width="32" height="32" viewBox="0 0 32 32" fill="none" xmlns="http://www.w3.org/2000/svg">
<g filter="url(#filter0_i_94_17839)">
<path d="M22.5879 5.78062H22.1913C22.0496 4.66146 21.6388 3.76896 20.9871 3.10313C20.1371 2.25313 18.9046 1.82812 17.3179 1.82812H9.41292C6.22542 1.82812 4.46875 3.58479 4.46875 6.77229C4.46875 8.35896 4.89375 9.59146 5.74375 10.4415C6.59375 11.2915 7.82625 11.7165 9.41292 11.7165H17.3179C20.1513 11.7165 21.8513 10.314 22.1913 7.76396H22.5879C25.5487 7.76396 25.5487 8.16062 25.5487 10.7248V13.3598C25.5487 15.924 25.5487 16.3206 22.5879 16.3206H17.3179C13.0821 16.3206 12.4729 18.3323 12.3879 20.2873C11.1129 20.3723 9.73875 20.9673 9.73875 23.234V27.1865C9.73875 29.6373 11.3538 30.1473 12.6996 30.1473H14.0171C15.3629 30.1473 16.9779 29.6373 16.9779 27.1865V23.234C16.9779 20.9956 15.6321 20.3723 14.3571 20.2873C14.4279 18.8565 14.8387 18.2898 17.3038 18.2898H22.5737C27.1779 18.2898 27.5179 16.4198 27.5179 13.3456V10.7248C27.5321 7.65062 27.1921 5.78062 22.5879 5.78062Z" fill="#FF7A57"/>
</g>
<defs>
<filter id="filter0_i_94_17839" x="4.46875" y="1.82812" width="23.0488" height="28.3193" filterUnits="userSpaceOnUse" color-interpolation-filters="sRGB">
<feFlood flood-opacity="0" result="BackgroundImageFix"/>
<feBlend mode="normal" in="SourceGraphic" in2="BackgroundImageFix" result="shape"/>
<feColorMatrix in="SourceAlpha" type="matrix" values="0 0 0 0 0 0 0 0 0 0 0 0 0 0 0 0 0 0 127 0" result="hardAlpha"/>
<feOffset/>
<feGaussianBlur stdDeviation="2"/>
<feComposite in2="hardAlpha" operator="arithmetic" k2="-1" k3="1"/>
<feColorMatrix type="matrix" values="0 0 0 0 1 0 0 0 0 0.208333 0 0 0 0 0 0 0 0 1 0"/>
<feBlend mode="normal" in2="shape" result="effect1_innerShadow_94_17839"/>
</filter>
</defs>
</svg>
