<svg width="20" height="20" viewBox="0 0 20 20" fill="none" xmlns="http://www.w3.org/2000/svg">
<g opacity="0.9">
<path d="M10.0013 18.0365C9.74297 18.0365 9.49297 18.0031 9.28464 17.9281C6.1013 16.8365 1.04297 12.9615 1.04297 7.23646C1.04297 4.31979 3.4013 1.95312 6.3013 1.95312C7.70964 1.95312 9.0263 3.0113 10.0013 3.99463C10.9763 3.0113 12.293 1.95312 13.7013 1.95312C16.6013 1.95312 18.9596 4.32812 18.9596 7.23646C18.9596 12.9698 13.9013 16.8365 10.718 17.9281C10.5096 18.0031 10.2596 18.0365 10.0013 18.0365ZM6.3013 3.20312C4.09297 3.20312 2.29297 5.01146 2.29297 7.23646C2.29297 12.9281 7.76797 16.0948 9.69297 16.7531C9.84297 16.8031 10.168 16.8031 10.318 16.7531C12.2346 16.0948 17.718 12.9365 17.718 7.23646C17.718 5.01146 15.918 3.20312 13.7096 3.20312C12.443 3.20312 11.268 4.30296 10.5096 5.32796C10.2763 5.64463 9.74297 5.64463 9.50964 5.32796C8.73464 4.29463 7.56797 3.20312 6.3013 3.20312Z" fill="white"/>
<path fill-rule="evenodd" clip-rule="evenodd" d="M9.26114 18.0017C7.65833 17.4519 5.58822 16.2037 3.91805 14.3745C2.24707 12.5444 0.972656 10.1283 0.972656 7.24396C0.972656 4.28892 3.36204 1.89062 6.30099 1.89062C7.02267 1.89062 7.71675 2.16163 8.35028 2.55308C8.96267 2.93146 9.52241 3.42479 10.001 3.90295C10.4796 3.42479 11.0393 2.93146 11.6517 2.55308C12.2852 2.16163 12.9793 1.89062 13.701 1.89062C16.64 1.89062 19.0293 4.29733 19.0293 7.24396C19.0293 10.1324 17.7549 12.5485 16.0839 14.3776C14.4137 16.2058 12.3436 17.4519 10.7409 18.0017C10.5228 18.0801 10.2644 18.114 10.001 18.114C9.73757 18.114 9.4792 18.0801 9.26114 18.0017ZM10.7177 17.9356C13.901 16.844 18.9593 12.9773 18.9593 7.24396C18.9593 4.33563 16.601 1.96063 13.701 1.96063C12.3163 1.96063 11.0202 2.98356 10.0504 3.95254C10.0338 3.96909 10.0174 3.98562 10.001 4.00213C9.98462 3.98562 9.96815 3.96909 9.95159 3.95254C8.98174 2.98356 7.68568 1.96063 6.30099 1.96063C3.40099 1.96063 1.04266 4.32729 1.04266 7.24396C1.04266 12.969 6.10099 16.844 9.28432 17.9356C9.49266 18.0106 9.74266 18.044 10.001 18.044C10.2593 18.044 10.5093 18.0106 10.7177 17.9356ZM6.30099 3.28063C4.13169 3.28063 2.36266 5.05724 2.36266 7.24396C2.36266 10.0654 3.71928 12.2631 5.31991 13.8399C6.92124 15.4174 8.76183 16.3682 9.71501 16.6943C9.77939 16.7157 9.88916 16.7281 10.0052 16.7281C10.1211 16.7281 10.2309 16.7157 10.2953 16.6943C11.2445 16.3682 13.085 15.4194 14.6873 13.843C16.289 12.2673 17.6477 10.0696 17.6477 7.24396C17.6477 5.05724 15.8786 3.28063 13.7093 3.28063C13.0963 3.28063 12.5003 3.54697 11.9602 3.94502C11.4206 4.34277 10.942 4.86834 10.5656 5.3771C10.4334 5.55638 10.219 5.64296 10.0093 5.64296C9.7997 5.64296 9.58533 5.55643 9.45316 5.37724C9.06831 4.86415 8.58765 4.33862 8.04807 3.94194C7.50807 3.54496 6.91409 3.28063 6.30099 3.28063ZM9.50932 5.33546C9.74266 5.65213 10.276 5.65213 10.5093 5.33546C11.2677 4.31046 12.4427 3.21063 13.7093 3.21063C15.9177 3.21063 17.7177 5.01896 17.7177 7.24396C17.7177 12.944 12.2343 16.1023 10.3177 16.7606C10.1677 16.8106 9.84266 16.8106 9.69266 16.7606C7.76766 16.1023 2.29266 12.9356 2.29266 7.24396C2.29266 5.01896 4.09266 3.21063 6.30099 3.21063C7.56766 3.21063 8.73432 4.30213 9.50932 5.33546Z" fill="white"/>
</g>
</svg>
