<svg width="30" height="30" viewBox="0 0 30 30" fill="none" xmlns="http://www.w3.org/2000/svg">
<g filter="url(#filter0_i_94_68774)">
<path d="M23.3641 14.4125C22.6516 14.225 21.8141 14.125 20.8141 14.125C19.4266 14.125 18.9141 14.4625 18.2016 15C18.1641 15.025 18.1266 15.0625 18.0891 15.1L16.9016 16.3625C15.9016 17.4125 14.1016 17.425 13.1016 16.35L11.9141 15.1C11.8766 15.0625 11.8391 15.025 11.8016 15C11.0891 14.4625 10.5766 14.125 9.18906 14.125C8.18906 14.125 7.35156 14.225 6.63906 14.4125C3.66406 15.2125 3.66406 17.575 3.66406 19.65V20.8125C3.66406 23.95 3.66406 27.5 10.3516 27.5H19.6516C24.0891 27.5 26.3391 25.25 26.3391 20.8125V19.65C26.3391 17.575 26.3391 15.2125 23.3641 14.4125ZM17.9141 23H12.0891C11.6141 23 11.2266 22.6125 11.2266 22.125C11.2266 21.6375 11.6141 21.25 12.0891 21.25H17.9141C18.3891 21.25 18.7766 21.6375 18.7766 22.125C18.7766 22.6125 18.3891 23 17.9141 23Z" fill="#FF7A57"/>
<path d="M24.0133 8.025V12.65C23.9633 12.625 23.9008 12.6125 23.8508 12.6C22.9758 12.3625 21.9883 12.25 20.8133 12.25C18.8883 12.25 17.9883 12.8125 17.0633 13.5125C16.9383 13.6 16.8258 13.7125 16.7258 13.8125L15.5258 15.075C15.4133 15.2 15.2133 15.275 15.0008 15.275C14.7883 15.275 14.5883 15.2 14.4633 15.0625L13.2883 13.825C13.1758 13.7 13.0508 13.5875 12.9258 13.5C12.0258 12.8125 11.1133 12.25 9.18828 12.25C8.01328 12.25 7.02578 12.3625 6.15078 12.6C6.10078 12.6125 6.03828 12.625 5.98828 12.65V8.025C5.98828 5.4375 5.98828 2.5 11.5133 2.5H18.4883C24.0133 2.5 24.0133 5.4375 24.0133 8.025Z" fill="#FF7A57"/>
</g>
<defs>
<filter id="filter0_i_94_68774" x="0" y="0" width="30" height="30" filterUnits="userSpaceOnUse" color-interpolation-filters="sRGB">
<feFlood flood-opacity="0" result="BackgroundImageFix"/>
<feBlend mode="normal" in="SourceGraphic" in2="BackgroundImageFix" result="shape"/>
<feColorMatrix in="SourceAlpha" type="matrix" values="0 0 0 0 0 0 0 0 0 0 0 0 0 0 0 0 0 0 127 0" result="hardAlpha"/>
<feOffset/>
<feGaussianBlur stdDeviation="3.5"/>
<feComposite in2="hardAlpha" operator="arithmetic" k2="-1" k3="1"/>
<feColorMatrix type="matrix" values="0 0 0 0 1 0 0 0 0 0.208333 0 0 0 0 0 0 0 0 0.6 0"/>
<feBlend mode="normal" in2="shape" result="effect1_innerShadow_94_68774"/>
</filter>
</defs>
</svg>
