<svg width="30" height="30" viewBox="0 0 30 30" fill="none" xmlns="http://www.w3.org/2000/svg">
<g filter="url(#filter0_i_94_68789)">
<path d="M25.7734 10.5625C24.4609 4.7875 19.4234 2.1875 14.9984 2.1875C14.9984 2.1875 14.9984 2.1875 14.9859 2.1875C10.5734 2.1875 5.52341 4.775 4.21091 10.55C2.74841 17 6.69841 22.4625 10.2734 25.9C11.5984 27.175 13.2984 27.8125 14.9984 27.8125C16.6984 27.8125 18.3984 27.175 19.7109 25.9C23.2859 22.4625 27.2359 17.0125 25.7734 10.5625ZM14.9984 16.825C12.8234 16.825 11.0609 15.0625 11.0609 12.8875C11.0609 10.7125 12.8234 8.95 14.9984 8.95C17.1734 8.95 18.9359 10.7125 18.9359 12.8875C18.9359 15.0625 17.1734 16.825 14.9984 16.825Z" fill="#FF7A57"/>
</g>
<defs>
<filter id="filter0_i_94_68789" x="0" y="0" width="30" height="30" filterUnits="userSpaceOnUse" color-interpolation-filters="sRGB">
<feFlood flood-opacity="0" result="BackgroundImageFix"/>
<feBlend mode="normal" in="SourceGraphic" in2="BackgroundImageFix" result="shape"/>
<feColorMatrix in="SourceAlpha" type="matrix" values="0 0 0 0 0 0 0 0 0 0 0 0 0 0 0 0 0 0 127 0" result="hardAlpha"/>
<feOffset/>
<feGaussianBlur stdDeviation="3.5"/>
<feComposite in2="hardAlpha" operator="arithmetic" k2="-1" k3="1"/>
<feColorMatrix type="matrix" values="0 0 0 0 1 0 0 0 0 0.208333 0 0 0 0 0 0 0 0 0.6 0"/>
<feBlend mode="normal" in2="shape" result="effect1_innerShadow_94_68789"/>
</filter>
</defs>
</svg>
