<svg width="287" height="33" viewBox="0 0 287 33" fill="none" xmlns="http://www.w3.org/2000/svg">
<path fill-rule="evenodd" clip-rule="evenodd" d="M1.58008 3.22656H7.82858C8.61862 3.22656 9.33684 3.87277 9.33684 4.66257V10.622C9.33684 11.4118 8.61862 12.1298 7.75676 12.1298H1.58008C0.718218 12.2016 0 11.4836 0 10.6938V4.66257C0 3.87277 0.718218 3.22656 1.58008 3.22656Z" fill="#FF7A57"/>
<path fill-rule="evenodd" clip-rule="evenodd" d="M1.58008 13.3505H7.82858C8.69044 13.3505 9.40866 13.9967 9.40866 14.8583V20.8177C9.40866 21.6075 8.69044 22.3255 7.82858 22.3255H1.58008C0.718218 22.3255 0 21.6075 0 20.8177V14.8583C0 13.9967 0.718218 13.3505 1.58008 13.3505Z" fill="#FF7A57"/>
<path fill-rule="evenodd" clip-rule="evenodd" d="M1.58008 23.4743H7.82858C8.69044 23.4743 9.40866 24.1205 9.40866 24.9821V30.9416C9.40866 31.7314 8.69044 32.4494 7.82858 32.4494H1.58008C0.718218 32.4494 0 31.8032 0 30.9416V24.9821C0 24.1205 0.718218 23.4743 1.58008 23.4743Z" fill="#FF7A57"/>
<path fill-rule="evenodd" clip-rule="evenodd" d="M12.0661 13.3505H18.3146C19.1764 13.3505 19.8947 13.9967 19.8947 14.8583V20.8177C19.8947 21.6075 19.1764 22.3255 18.3146 22.3255H12.0661C11.2042 22.3255 10.486 21.6793 10.486 20.8177V14.8583C10.5578 13.9967 11.2042 13.3505 12.0661 13.3505Z" fill="#FF7A57"/>
<path fill-rule="evenodd" clip-rule="evenodd" d="M12.0661 23.4743H18.3146C19.1764 23.4743 19.8947 24.1205 19.8947 24.9821V30.9416C19.8947 31.7314 19.1764 32.4494 18.3146 32.4494H12.0661C11.2042 32.4494 10.486 31.8032 10.486 30.9416V24.9821C10.5578 24.1205 11.2042 23.4743 12.0661 23.4743Z" fill="#FF7A57"/>
<path fill-rule="evenodd" clip-rule="evenodd" d="M22.6239 23.4743H28.8724C29.7342 23.4743 30.4525 24.1205 30.4525 24.9821V30.9416C30.4525 31.7314 29.7342 32.4494 28.8724 32.4494H22.6239C21.762 32.4494 21.0438 31.8032 21.0438 30.9416V24.9821C21.0438 24.1205 21.762 23.4743 22.6239 23.4743Z" fill="#FF7A57"/>
<path fill-rule="evenodd" clip-rule="evenodd" d="M255.184 0.0390625H255.687C255.615 0.398066 255.543 0.685268 255.328 0.828869C255.112 1.04427 254.825 1.11607 254.466 1.11607C254.107 1.11607 253.82 1.04427 253.604 0.828869C253.389 0.613467 253.245 0.398066 253.245 0.0390625H253.748C253.82 0.254464 253.891 0.398066 253.963 0.469866C254.107 0.541667 254.25 0.613467 254.466 0.613467C254.681 0.613467 254.897 0.541667 254.969 0.469866C255.041 0.398066 255.112 0.254464 255.184 0.0390625ZM252.096 1.54688H252.814V6.50112L256.118 1.54688H256.908V7.79353H256.19V2.83929L252.886 7.79353H252.096V1.54688ZM238.665 1.54688H239.383V6.50112L242.687 1.54688H243.477V7.79353H242.759V2.83929L239.455 7.79353H238.665V1.54688ZM225.306 7.79353V1.54688H226.096V4.1317H229.328V1.54688H230.118V7.79353H229.328V4.8497H226.096V7.79353H225.306ZM213.384 5.20871H215.467L214.82 3.48549C214.605 2.98289 214.461 2.55208 214.389 2.19308C214.318 2.62388 214.174 2.98289 214.03 3.41369L213.384 5.20871ZM211.588 7.79353L213.958 1.54688H214.82L217.334 7.79353H216.4L215.682 5.92671H213.097L212.45 7.79353H211.588ZM198.876 1.54688H203.76V7.79353H202.97V2.26488H199.738V7.79353H198.948V1.54688H198.876ZM184.44 7.79353V1.54688H185.661L187.097 5.99851C187.241 6.42932 187.313 6.71652 187.384 6.93192C187.456 6.71652 187.6 6.35752 187.743 5.92671L189.252 1.54688H190.329V7.79353H189.611V2.55208L187.815 7.79353H187.097L185.302 2.48028V7.79353H184.44ZM171.153 4.7779C171.153 5.49591 171.368 6.14212 171.727 6.57292C172.158 7.00372 172.661 7.21912 173.235 7.21912C173.882 7.21912 174.385 7.00372 174.744 6.57292C175.175 6.14212 175.318 5.49591 175.318 4.7061C175.318 4.2035 175.246 3.77269 175.031 3.34189C174.887 2.98289 174.6 2.69569 174.313 2.48028C173.954 2.26488 173.595 2.19308 173.235 2.19308C172.661 2.19308 172.158 2.40848 171.727 2.76749C171.368 3.12649 171.153 3.77269 171.153 4.7779ZM170.363 4.7061C170.363 3.70089 170.65 2.83929 171.224 2.26488C171.799 1.69048 172.517 1.40327 173.379 1.40327C173.954 1.40327 174.456 1.54688 174.887 1.83408C175.318 2.12128 175.677 2.48028 175.965 2.98289C176.18 3.48549 176.324 4.0599 176.324 4.6343C176.324 5.28051 176.18 5.85491 175.965 6.35752C175.677 6.86012 175.318 7.21912 174.887 7.50633C174.456 7.79353 173.954 7.86533 173.379 7.86533C172.804 7.86533 172.302 7.72173 171.799 7.43453C171.368 7.14732 171.009 6.78832 170.793 6.28572C170.434 5.78311 170.363 5.28051 170.363 4.7061ZM158.368 1.54688H159.158V4.2753C159.517 4.2753 159.805 4.2035 159.948 4.0599C160.092 3.9163 160.308 3.55729 160.523 2.98289C160.667 2.55208 160.81 2.26488 160.954 2.12128C161.098 1.97768 161.241 1.83408 161.457 1.69048C161.672 1.54688 161.888 1.54688 162.103 1.54688C162.39 1.54688 162.606 1.54688 162.606 1.54688V2.26488C162.606 2.26488 162.534 2.26488 162.462 2.26488C162.39 2.26488 162.319 2.26488 162.319 2.26488C162.031 2.26488 161.888 2.33668 161.744 2.48028C161.6 2.62388 161.457 2.91109 161.313 3.27009C161.098 3.77269 160.954 4.1317 160.81 4.2753C160.667 4.4189 160.523 4.4907 160.308 4.6343C160.738 4.7779 161.098 5.13691 161.457 5.78311L162.749 7.86533H161.744L160.738 6.14212C160.451 5.63951 160.236 5.35231 160.02 5.20871C159.805 5.06511 159.589 4.9215 159.302 4.9215V7.86533H158.512V1.54688H158.368ZM134.523 5.20871H136.606L135.96 3.48549C135.744 2.98289 135.601 2.55208 135.529 2.19308C135.457 2.62388 135.313 2.98289 135.17 3.41369L134.523 5.20871ZM132.728 7.79353L135.098 1.54688H135.96L138.474 7.79353H137.54L136.822 5.92671H134.308L133.662 7.79353H132.728ZM120.015 1.54688H124.899V7.79353H124.109V2.26488H120.877V7.79353H120.087V1.54688H120.015ZM106.585 1.54688H111.469V7.79353H110.679V2.26488H107.447V7.79353H106.657V1.54688H106.585ZM93.2977 1.54688H94.1596L96.1706 5.35231L97.9661 1.54688H98.7562L96.4579 6.42932C96.1706 7.00372 95.9551 7.43453 95.7397 7.64993C95.5242 7.86533 95.3087 7.93713 94.9496 7.93713C94.7341 7.93713 94.4469 7.86533 94.1596 7.79353V7.07552C94.375 7.21912 94.5905 7.29093 94.8778 7.29093C95.0933 7.29093 95.2369 7.21912 95.3806 7.07552C95.5242 6.93192 95.6678 6.64472 95.8833 6.21392L93.2977 1.54688ZM81.8062 4.4907H83.3863C83.8891 4.4907 84.32 4.4189 84.5354 4.2035C84.7509 3.9881 84.8946 3.70089 84.8946 3.34189C84.8946 3.05469 84.8227 2.83929 84.6791 2.69569C84.5355 2.48028 84.3918 2.40848 84.1763 2.33668C84.0327 2.26488 83.8172 2.26488 83.3863 2.26488H81.8062V4.4907ZM80.9444 7.79353V1.54688H83.2427C83.6736 1.54688 83.9609 1.54688 84.1763 1.61868C84.4636 1.69048 84.7509 1.76228 84.9664 1.90588C85.1818 2.04948 85.3255 2.26488 85.4691 2.48028C85.6128 2.76749 85.6846 3.05469 85.6846 3.34189C85.6846 3.8445 85.541 4.3471 85.1818 4.7061C84.8227 5.06511 84.2482 5.28051 83.3863 5.28051H81.8062V7.79353H80.9444ZM69.0938 1.54688H73.1158V2.26488H69.9556V7.79353H69.1656V1.54688H69.0938Z" fill="white"/>
<path fill-rule="evenodd" clip-rule="evenodd" d="M264.16 2.16406H286.999V32.0331H278.955V20.4014H269.187L271.629 14.5138H279.027V8.98512H270.049C269.259 8.98512 268.828 10.0621 268.828 12.2879V31.9613H260.856V9.48772C260.856 7.47731 261.143 5.68229 261.79 4.24628C262.436 2.88207 263.226 2.16406 264.16 2.16406ZM242.039 32.0331V13.365H246.707L250.657 22.1246L254.536 13.365H259.132V31.9613H254.248V20.7604L250.657 28.8739L246.994 20.7604V31.9613H242.039V32.0331ZM226.453 13.365H240.674V31.9613H235.647V24.7812H229.542L231.05 21.1194H235.647V17.673H230.116C229.614 17.673 229.398 18.391 229.398 19.7552V32.0331H224.442V17.9602C224.442 16.6678 224.658 15.5908 225.017 14.7292C225.448 13.8676 225.951 13.365 226.453 13.365ZM207.492 26.5763V20.8322C207.492 19.6116 207.564 18.5346 207.78 17.6012C207.995 16.6678 208.282 15.878 208.642 15.3036C209.001 14.6574 209.36 14.2266 209.863 13.8676C210.293 13.5804 210.796 13.365 211.299 13.365H223.15V31.9613H218.194V17.673H214.1C213.525 17.673 213.095 17.8884 212.807 18.4628C212.52 19.0372 212.448 19.827 212.448 20.904V26.4327C212.448 28.0123 212.304 29.3765 211.945 30.3817C211.586 31.4587 211.084 31.9613 210.437 31.9613H206.487V27.8687C206.918 27.8687 207.205 27.7251 207.277 27.3661C207.421 27.0789 207.492 26.7917 207.492 26.5763ZM193.99 32.0331H189.034V13.365H193.99V32.0331ZM200.238 13.2932V18.5346C200.238 19.0372 200.167 19.3962 200.095 19.7552C200.023 20.1142 199.879 20.3296 199.736 20.545C199.592 20.7604 199.448 20.904 199.305 20.9758C199.161 21.0476 199.089 21.1194 199.017 21.1194H195.714L194.205 24.7812H199.017C199.448 24.7812 199.736 24.9966 199.951 25.4275C200.167 25.8583 200.238 26.4327 200.238 27.1507V31.9613H205.194V28.7303C205.194 28.0123 205.122 27.2943 204.979 26.5763C204.835 25.8583 204.691 25.2121 204.476 24.6376C204.26 24.0632 204.045 23.5606 203.758 23.1298C203.47 22.699 203.255 22.4118 202.968 22.2682C203.255 21.981 203.542 21.622 203.758 21.1912C204.045 20.7604 204.26 20.3296 204.476 19.7552C204.691 19.2526 204.835 18.6064 204.979 18.032C205.122 17.3858 205.122 16.7396 205.122 15.9498V13.2214H200.238V13.2932ZM187.67 13.365H175.604C175.029 13.365 174.526 13.5804 174.023 14.083C173.521 14.5856 173.09 15.2318 172.731 16.0216C172.372 16.8114 172.084 17.8166 171.869 18.9654C171.653 20.1142 171.581 21.3348 171.581 22.6272C171.581 23.9196 171.653 25.1402 171.869 26.2891C172.084 27.4379 172.372 28.4431 172.731 29.2329C173.09 30.0945 173.521 30.7407 174.023 31.2433C174.526 31.7459 175.029 31.9613 175.604 31.9613H186.09L187.67 27.8687H179.123C178.836 27.8687 178.548 27.7251 178.261 27.4379C177.974 27.1507 177.758 26.7917 177.543 26.3609C177.327 25.8583 177.184 25.3557 177.04 24.7094C176.896 24.0632 176.824 23.417 176.824 22.699C176.824 21.263 177.04 20.0424 177.471 19.109C177.902 18.1756 178.476 17.673 179.051 17.673H186.018L187.67 13.365ZM177.399 24.7812H183.935L185.299 21.1194H178.907L177.399 24.7812ZM159.372 17.673H164.83C165.046 17.673 165.261 17.8166 165.405 18.1756C165.548 18.5346 165.62 18.8936 165.62 19.3244C165.62 19.7552 165.548 20.1142 165.405 20.4732C165.261 20.8322 165.118 20.9758 164.83 20.9758H161.239L159.731 24.6376H167.2C168.206 24.6376 168.924 24.135 169.499 23.058C170.073 22.0528 170.361 20.7604 170.361 19.2526C170.361 17.6012 170.145 16.1652 169.642 15.0164C169.14 13.8676 168.35 13.2932 167.2 13.2932H154.56V31.8895H159.444V17.673H159.372ZM137.61 26.5763V20.8322C137.61 19.6116 137.682 18.5346 137.897 17.6012C138.113 16.6678 138.4 15.878 138.759 15.3036C139.118 14.6574 139.477 14.2266 139.98 13.8676C140.411 13.5804 140.914 13.365 141.416 13.365H153.267V31.9613H148.311V17.673H144.217C143.643 17.673 143.212 17.8884 142.925 18.4628C142.637 19.0372 142.565 19.827 142.565 20.904V26.4327C142.565 28.0123 142.422 29.3765 142.063 30.3817C141.704 31.4587 141.201 31.9613 140.554 31.9613H136.604V27.8687C137.035 27.8687 137.322 27.7251 137.394 27.3661C137.538 27.0789 137.61 26.7917 137.61 26.5763ZM119.439 13.365V31.9613H132.582C133.085 31.9613 133.444 31.7459 133.803 31.3869C134.162 31.0279 134.45 30.5253 134.665 29.9509C134.881 29.3765 135.024 28.7303 135.168 27.9405C135.24 27.1507 135.311 26.4327 135.311 25.6429C135.311 24.2068 135.024 23.058 134.45 22.2682C133.875 21.4784 133.157 21.0476 132.295 21.0476H123.461V17.6012H133.157L134.881 13.2932H119.439V13.365ZM129.925 27.9405H123.389V24.7812H129.925C130.14 24.7812 130.356 24.9249 130.499 25.2839C130.643 25.5711 130.643 25.9301 130.643 26.3609C130.643 26.7199 130.571 27.0789 130.428 27.4379C130.356 27.7251 130.14 27.8687 129.925 27.9405ZM108.378 27.8687H111.179C111.826 27.8687 112.328 27.3661 112.759 26.3609C113.19 25.3557 113.406 24.135 113.406 22.6272C113.406 21.9092 113.334 21.1912 113.262 20.6168C113.119 20.0424 112.975 19.468 112.759 19.0372C112.544 18.6064 112.328 18.2474 112.041 18.032C111.754 17.7448 111.467 17.673 111.179 17.673H108.378C108.091 17.673 107.804 17.8166 107.516 18.1038C107.229 18.391 107.014 18.75 106.798 19.1808C106.583 19.6116 106.439 20.186 106.295 20.8322C106.152 21.4784 106.08 22.1246 106.08 22.8426C106.08 24.3504 106.295 25.4993 106.726 26.5045C107.229 27.4379 107.732 27.8687 108.378 27.8687ZM114.196 32.0331H105.29C104.715 32.0331 104.213 31.8177 103.71 31.3151C103.207 30.8125 102.776 30.1663 102.417 29.3047C102.058 28.4431 101.771 27.4379 101.555 26.2891C101.34 25.1402 101.268 23.776 101.268 22.4118C101.268 21.1194 101.412 19.8988 101.627 18.8218C101.843 17.7448 102.13 16.8114 102.489 15.9498C102.848 15.16 103.279 14.5138 103.782 14.083C104.284 13.6522 104.787 13.4368 105.362 13.4368H114.196C114.77 13.4368 115.273 13.6522 115.704 14.083C116.207 14.5138 116.566 15.16 116.925 15.9498C117.284 16.7396 117.571 17.673 117.787 18.75C118.002 19.827 118.074 21.0476 118.074 22.34C118.074 23.6324 118.002 24.8531 117.787 26.0019C117.571 27.1507 117.284 28.2277 116.925 29.0893C116.566 29.9509 116.135 30.6689 115.632 31.1715C115.201 31.7459 114.699 32.0331 114.196 32.0331ZM99.9033 13.365H88.34C87.7654 13.365 87.2627 13.5804 86.7599 14.083C86.2572 14.5856 85.8262 15.16 85.4671 16.0216C85.108 16.8114 84.8207 17.8166 84.6053 18.8936C84.3898 20.0424 84.318 21.1912 84.318 22.4836C84.318 23.776 84.3898 24.9966 84.6053 26.1455C84.8207 27.2943 85.108 28.2995 85.4671 29.1611C85.8262 30.0227 86.2572 30.6689 86.7599 31.1715C87.2627 31.6741 87.7654 31.9613 88.34 31.9613H98.3232L99.9751 27.8687H91.2129C90.5665 27.8687 90.0637 27.3661 89.6328 26.3609C89.2019 25.3557 88.9864 24.135 88.9864 22.699C88.9864 21.263 89.2019 20.0424 89.6328 19.109C90.0637 18.1756 90.5665 17.673 91.2129 17.673H98.2514L99.9033 13.365ZM73.1856 27.8687H75.9867C76.633 27.8687 77.1358 27.3661 77.5667 26.3609C77.9977 25.3557 78.2131 24.135 78.2131 22.6272C78.2131 21.9092 78.1413 21.1912 78.0695 20.6168C77.9258 20.0424 77.7822 19.468 77.5667 19.0372C77.3513 18.6064 77.1358 18.2474 76.8485 18.032C76.5612 17.7448 76.2739 17.673 75.9867 17.673H73.1856C72.8983 17.673 72.611 17.8166 72.3237 18.1038C72.0364 18.391 71.821 18.75 71.6055 19.1808C71.39 19.6116 71.2464 20.186 71.1028 20.8322C70.9591 21.4784 70.8873 22.1246 70.8873 22.8426C70.8873 24.3504 71.1028 25.4993 71.5337 26.5045C72.0364 27.4379 72.5392 27.8687 73.1856 27.8687ZM79.0032 32.0331H70.0973C69.5227 32.0331 69.0199 31.8177 68.5172 31.3151C68.0144 30.8125 67.5835 30.1663 67.2244 29.3047C66.8653 28.4431 66.578 27.4379 66.3625 26.2891C66.1471 25.1402 66.0752 23.776 66.0752 22.4118C66.0752 21.1194 66.2189 19.8988 66.4343 18.8218C66.6498 17.7448 66.9371 16.8114 67.2962 15.9498C67.6553 15.16 68.0862 14.5138 68.589 14.083C69.0918 13.6522 69.5945 13.4368 70.1691 13.4368H79.075C79.6496 13.4368 80.1523 13.6522 80.5832 14.083C81.086 14.5138 81.4451 15.16 81.8042 15.9498C82.1633 16.7396 82.4506 17.673 82.6661 18.75C82.8815 19.827 82.9534 21.0476 82.9534 22.34C82.9534 23.6324 82.8815 24.8531 82.6661 26.0019C82.4506 27.1507 82.1633 28.2277 81.8042 29.0893C81.4451 29.9509 81.0142 30.6689 80.5114 31.1715C80.0805 31.7459 79.5777 32.0331 79.0032 32.0331ZM36.8438 32.0331V2.16406H44.385L50.7054 16.237L56.9539 2.16406H64.2797V32.0331H56.5229V14.0112L50.7054 27.0071L44.816 14.0112V32.0331H36.8438Z" fill="white"/>
</svg>
