<svg width="271" height="31" viewBox="0 0 271 31" fill="none" xmlns="http://www.w3.org/2000/svg">
<path fill-rule="evenodd" clip-rule="evenodd" d="M1.48649 3.07812H7.36486C8.10811 3.07812 8.78378 3.68606 8.78378 4.42909V10.0356C8.78378 10.7786 8.10811 11.4541 7.2973 11.4541H1.48649C0.675676 11.5217 0 10.8462 0 10.1032V4.42909C0 3.68606 0.675676 3.07812 1.48649 3.07812Z" fill="#FF7A57"/>
<path fill-rule="evenodd" clip-rule="evenodd" d="M1.48649 12.6025H7.36486C8.17568 12.6025 8.85135 13.2104 8.85135 14.021V19.6275C8.85135 20.3705 8.17568 21.046 7.36486 21.046H1.48649C0.675676 21.046 0 20.3705 0 19.6275V14.021C0 13.2104 0.675676 12.6025 1.48649 12.6025Z" fill="#FF7A57"/>
<path fill-rule="evenodd" clip-rule="evenodd" d="M1.48649 22.1268H7.36486C8.17568 22.1268 8.85135 22.7347 8.85135 23.5453V29.1518C8.85135 29.8948 8.17568 30.5703 7.36486 30.5703H1.48649C0.675676 30.5703 0 29.9624 0 29.1518V23.5453C0 22.7347 0.675676 22.1268 1.48649 22.1268Z" fill="#FF7A57"/>
<path fill-rule="evenodd" clip-rule="evenodd" d="M11.3514 12.6025H17.2297C18.0405 12.6025 18.7162 13.2104 18.7162 14.021V19.6275C18.7162 20.3705 18.0405 21.046 17.2297 21.046H11.3514C10.5405 21.046 9.86487 20.4381 9.86487 19.6275V14.021C9.93244 13.2104 10.5405 12.6025 11.3514 12.6025Z" fill="#FF7A57"/>
<path fill-rule="evenodd" clip-rule="evenodd" d="M11.3514 22.1268H17.2297C18.0405 22.1268 18.7162 22.7347 18.7162 23.5453V29.1518C18.7162 29.8948 18.0405 30.5703 17.2297 30.5703H11.3514C10.5405 30.5703 9.86487 29.9624 9.86487 29.1518V23.5453C9.93244 22.7347 10.5405 22.1268 11.3514 22.1268Z" fill="#FF7A57"/>
<path fill-rule="evenodd" clip-rule="evenodd" d="M21.2838 22.1268H27.1622C27.973 22.1268 28.6487 22.7347 28.6487 23.5453V29.1518C28.6487 29.8948 27.973 30.5703 27.1622 30.5703H21.2838C20.473 30.5703 19.7973 29.9624 19.7973 29.1518V23.5453C19.7973 22.7347 20.473 22.1268 21.2838 22.1268Z" fill="#FF7A57"/>
<path fill-rule="evenodd" clip-rule="evenodd" d="M240.068 0.078125H240.541C240.473 0.415963 240.405 0.686233 240.203 0.821368C240 1.02407 239.73 1.09164 239.392 1.09164C239.054 1.09164 238.784 1.02407 238.581 0.821368C238.378 0.618666 238.243 0.415963 238.243 0.078125H238.716C238.784 0.280828 238.851 0.415963 238.919 0.48353C239.054 0.551098 239.189 0.618666 239.392 0.618666C239.595 0.618666 239.797 0.551098 239.865 0.48353C239.932 0.415963 240 0.280828 240.068 0.078125ZM237.162 1.49704H237.838V6.15921L240.946 1.49704H241.689V7.37542H241.014V2.71326L237.905 7.37542H237.162V1.49704ZM224.527 1.49704H225.203V6.15921L228.311 1.49704H229.054V7.37542H228.378V2.71326L225.27 7.37542H224.527V1.49704ZM211.959 7.37542V1.49704H212.703V3.92948H215.743V1.49704H216.486V7.37542H215.743V4.60515H212.703V7.37542H211.959ZM200.743 4.94299H202.703L202.095 3.32137C201.892 2.8484 201.757 2.44299 201.689 2.10515C201.622 2.51056 201.486 2.84839 201.351 3.2538L200.743 4.94299ZM199.054 7.37542L201.284 1.49704H202.095L204.459 7.37542H203.581L202.905 5.61867H200.473L199.865 7.37542H199.054ZM187.095 1.49704H191.689V7.37542H190.946V2.17272H187.905V7.37542H187.162V1.49704H187.095ZM173.514 7.37542V1.49704H174.662L176.014 5.68623C176.149 6.09164 176.216 6.36191 176.284 6.56461C176.351 6.36191 176.486 6.02407 176.622 5.61867L178.041 1.49704H179.054V7.37542H178.378V2.44299L176.689 7.37542H176.014L174.324 2.37542V7.37542H173.514ZM161.014 4.53758C161.014 5.21326 161.216 5.82137 161.554 6.22677C161.959 6.63218 162.432 6.83488 162.973 6.83488C163.581 6.83488 164.054 6.63218 164.392 6.22677C164.797 5.82137 164.932 5.21326 164.932 4.47002C164.932 3.99704 164.865 3.59164 164.662 3.18623C164.527 2.8484 164.257 2.57812 163.986 2.37542C163.649 2.17272 163.311 2.10515 162.973 2.10515C162.432 2.10515 161.959 2.30785 161.554 2.64569C161.216 2.98353 161.014 3.59164 161.014 4.53758ZM160.27 4.47002C160.27 3.52407 160.541 2.71326 161.081 2.17272C161.622 1.63218 162.297 1.36191 163.108 1.36191C163.649 1.36191 164.122 1.49704 164.527 1.76731C164.932 2.03758 165.27 2.37542 165.541 2.8484C165.743 3.32137 165.878 3.86191 165.878 4.40245C165.878 5.01056 165.743 5.5511 165.541 6.02407C165.27 6.49704 164.932 6.83488 164.527 7.10515C164.122 7.37542 163.649 7.44299 163.108 7.44299C162.568 7.44299 162.095 7.30785 161.622 7.03758C161.216 6.76731 160.878 6.42948 160.676 5.9565C160.338 5.48353 160.27 5.01056 160.27 4.47002ZM148.986 1.49704H149.73V4.06461C150.068 4.06461 150.338 3.99704 150.473 3.86191C150.608 3.72677 150.811 3.38894 151.014 2.8484C151.149 2.44299 151.284 2.17272 151.419 2.03758C151.554 1.90245 151.689 1.76731 151.892 1.63218C152.095 1.49704 152.297 1.49704 152.5 1.49704C152.77 1.49704 152.973 1.49704 152.973 1.49704V2.17272C152.973 2.17272 152.905 2.17272 152.838 2.17272C152.77 2.17272 152.703 2.17272 152.703 2.17272C152.432 2.17272 152.297 2.24029 152.162 2.37542C152.027 2.51056 151.892 2.78083 151.757 3.11867C151.554 3.59164 151.419 3.92948 151.284 4.06461C151.149 4.19975 151.014 4.26731 150.811 4.40245C151.216 4.53758 151.554 4.87542 151.892 5.48353L153.108 7.44299H152.162L151.216 5.82137C150.946 5.34839 150.743 5.07812 150.541 4.94299C150.338 4.80785 150.135 4.67272 149.865 4.67272V7.44299H149.122V1.49704H148.986ZM126.554 4.94299H128.514L127.905 3.32137C127.703 2.8484 127.568 2.44299 127.5 2.10515C127.432 2.51056 127.297 2.84839 127.162 3.2538L126.554 4.94299ZM124.865 7.37542L127.095 1.49704H127.905L130.27 7.37542H129.392L128.716 5.61867H126.351L125.743 7.37542H124.865ZM112.905 1.49704H117.5V7.37542H116.757V2.17272H113.716V7.37542H112.973V1.49704H112.905ZM100.27 1.49704H104.865V7.37542H104.122V2.17272H101.081V7.37542H100.338V1.49704H100.27ZM87.7703 1.49704H88.5811L90.473 5.07812L92.1622 1.49704H92.9054L90.7432 6.09164C90.473 6.63218 90.2703 7.03758 90.0676 7.24029C89.8649 7.44299 89.6622 7.51056 89.3243 7.51056C89.1216 7.51056 88.8514 7.44299 88.5811 7.37542V6.69975C88.7838 6.83488 88.9865 6.90245 89.2568 6.90245C89.4595 6.90245 89.5946 6.83488 89.7297 6.69975C89.8649 6.56461 90 6.29434 90.2027 5.88894L87.7703 1.49704ZM76.9595 4.26731H78.4459C78.9189 4.26731 79.3243 4.19975 79.527 3.99704C79.7297 3.79434 79.8649 3.52407 79.8649 3.18623C79.8649 2.91596 79.7973 2.71326 79.6622 2.57812C79.527 2.37542 79.3919 2.30785 79.1892 2.24029C79.0541 2.17272 78.8514 2.17272 78.4459 2.17272H76.9595V4.26731ZM76.1487 7.37542V1.49704H78.3108C78.7162 1.49704 78.9865 1.49704 79.1892 1.56461C79.4595 1.63218 79.7297 1.69975 79.9324 1.83488C80.1351 1.97002 80.2703 2.17272 80.4054 2.37542C80.5405 2.64569 80.6081 2.91596 80.6081 3.18623C80.6081 3.65921 80.473 4.13218 80.1351 4.47002C79.7973 4.80785 79.2568 5.01056 78.4459 5.01056H76.9595V7.37542H76.1487ZM65 1.49704H68.7838V2.17272H65.8108V7.37542H65.0676V1.49704H65Z" fill="#002B45"/>
<path fill-rule="evenodd" clip-rule="evenodd" d="M248.515 2.07812H270.002V30.1777H262.434V19.2351H253.245L255.542 13.6962H262.502V8.4951H254.056C253.313 8.4951 252.907 9.50831 252.907 11.6023V30.1102H245.407V8.96793C245.407 7.07661 245.678 5.38793 246.286 4.03699C246.894 2.7536 247.637 2.07812 248.515 2.07812ZM227.705 30.1777V12.6155H232.096L235.813 20.8562L239.461 12.6155H243.786V30.1102H239.191V19.5728L235.813 27.2057L232.367 19.5728V30.1102H227.705V30.1777ZM213.042 12.6155H226.421V30.1102H221.691V23.3555H215.948L217.367 19.9106H221.691V16.6683H216.488C216.015 16.6683 215.813 17.3438 215.813 18.6272V30.1777H211.151V16.9385C211.151 15.7226 211.353 14.7094 211.691 13.8989C212.096 13.0883 212.569 12.6155 213.042 12.6155ZM195.205 25.0442V19.6404C195.205 18.4921 195.272 17.4789 195.475 16.6008C195.678 15.7226 195.948 14.9796 196.286 14.4393C196.624 13.8313 196.961 13.426 197.434 13.0883C197.84 12.8181 198.313 12.6155 198.786 12.6155H209.934V30.1102H205.272V16.6683H201.421C200.88 16.6683 200.475 16.8709 200.205 17.4113C199.934 17.9517 199.867 18.6947 199.867 19.7079V24.9091C199.867 26.3951 199.732 27.6785 199.394 28.6242C199.056 29.6374 198.583 30.1102 197.975 30.1102H194.259V26.26C194.664 26.26 194.934 26.1249 195.002 25.7872C195.137 25.517 195.205 25.2468 195.205 25.0442ZM182.502 30.1777H177.84V12.6155H182.502V30.1777ZM188.38 12.5479V17.4789C188.38 17.9517 188.313 18.2894 188.245 18.6272C188.178 18.9649 188.042 19.1676 187.907 19.3702C187.772 19.5728 187.637 19.7079 187.502 19.7755C187.367 19.843 187.299 19.9106 187.232 19.9106H184.124L182.705 23.3555H187.232C187.637 23.3555 187.907 23.5581 188.11 23.9634C188.313 24.3687 188.38 24.9091 188.38 25.5845V30.1102H193.042V27.0706C193.042 26.3951 192.975 25.7196 192.84 25.0442C192.705 24.3687 192.569 23.7608 192.367 23.2204C192.164 22.68 191.961 22.2072 191.691 21.8019C191.421 21.3966 191.218 21.1264 190.948 20.9913C191.218 20.7211 191.488 20.3834 191.691 19.9781C191.961 19.5728 192.164 19.1676 192.367 18.6272C192.569 18.1543 192.705 17.5464 192.84 17.006C192.975 16.3981 192.975 15.7902 192.975 15.0472V12.4804H188.38V12.5479ZM176.556 12.6155H165.205C164.664 12.6155 164.191 12.8181 163.718 13.2909C163.245 13.7638 162.84 14.3717 162.502 15.1147C162.164 15.8577 161.894 16.8034 161.691 17.8842C161.488 18.9649 161.421 20.1132 161.421 21.3291C161.421 22.5449 161.488 23.6932 161.691 24.774C161.894 25.8547 162.164 26.8004 162.502 27.5434C162.84 28.354 163.245 28.9619 163.718 29.4347C164.191 29.9075 164.664 30.1102 165.205 30.1102H175.069L176.556 26.26H168.515C168.245 26.26 167.975 26.1249 167.705 25.8547C167.434 25.5845 167.232 25.2468 167.029 24.8415C166.826 24.3687 166.691 23.8959 166.556 23.2879C166.421 22.68 166.353 22.0721 166.353 21.3966C166.353 20.0457 166.556 18.8974 166.961 18.0192C167.367 17.1411 167.907 16.6683 168.448 16.6683H175.002L176.556 12.6155ZM166.894 23.3555H173.042L174.326 19.9106H168.313L166.894 23.3555ZM149.934 16.6683H155.069C155.272 16.6683 155.475 16.8034 155.61 17.1411C155.745 17.4789 155.813 17.8166 155.813 18.2219C155.813 18.6272 155.745 18.9649 155.61 19.3026C155.475 19.6404 155.34 19.7755 155.069 19.7755H151.691L150.272 23.2204H157.299C158.245 23.2204 158.921 22.7475 159.461 21.7343C160.002 20.7887 160.272 19.5728 160.272 18.1543C160.272 16.6008 160.069 15.2498 159.596 14.1691C159.124 13.0883 158.38 12.5479 157.299 12.5479H145.407V30.0426H150.002V16.6683H149.934ZM129.461 25.0442V19.6404C129.461 18.4921 129.529 17.4789 129.732 16.6008C129.934 15.7226 130.205 14.9796 130.542 14.4393C130.88 13.8313 131.218 13.426 131.691 13.0883C132.096 12.8181 132.569 12.6155 133.042 12.6155H144.191V30.1102H139.529V16.6683H135.678C135.137 16.6683 134.732 16.8709 134.461 17.4113C134.191 17.9517 134.124 18.6947 134.124 19.7079V24.9091C134.124 26.3951 133.988 27.6785 133.651 28.6242C133.313 29.6374 132.84 30.1102 132.232 30.1102H128.515V26.26C128.921 26.26 129.191 26.1249 129.259 25.7872C129.394 25.517 129.461 25.2468 129.461 25.0442ZM112.367 12.6155V30.1102H124.732C125.205 30.1102 125.542 29.9075 125.88 29.5698C126.218 29.2321 126.488 28.7592 126.691 28.2189C126.894 27.6785 127.029 27.0706 127.164 26.3275C127.232 25.5845 127.299 24.9091 127.299 24.166C127.299 22.8151 127.029 21.7343 126.488 20.9913C125.948 20.2483 125.272 19.843 124.461 19.843H116.151V16.6008H125.272L126.894 12.5479H112.367V12.6155ZM122.232 26.3275H116.083V23.3555H122.232C122.434 23.3555 122.637 23.4906 122.772 23.8283C122.907 24.0985 122.907 24.4362 122.907 24.8415C122.907 25.1792 122.84 25.517 122.705 25.8547C122.637 26.1249 122.434 26.26 122.232 26.3275ZM101.961 26.26H104.596C105.205 26.26 105.678 25.7872 106.083 24.8415C106.488 23.8959 106.691 22.7476 106.691 21.3291C106.691 20.6536 106.624 19.9781 106.556 19.4377C106.421 18.8974 106.286 18.357 106.083 17.9517C105.88 17.5464 105.678 17.2087 105.407 17.006C105.137 16.7359 104.867 16.6683 104.596 16.6683H101.961C101.691 16.6683 101.421 16.8034 101.151 17.0736C100.88 17.3438 100.678 17.6815 100.475 18.0868C100.272 18.4921 100.137 19.0325 100.002 19.6404C99.8668 20.2483 99.7992 20.8562 99.7992 21.5317C99.7992 22.9502 100.002 24.0309 100.407 24.9766C100.88 25.8547 101.353 26.26 101.961 26.26ZM107.434 30.1777H99.056C98.5154 30.1777 98.0424 29.9751 97.5695 29.5023C97.0965 29.0294 96.6911 28.4215 96.3532 27.6109C96.0154 26.8004 95.7451 25.8547 95.5424 24.774C95.3397 23.6932 95.2722 22.4098 95.2722 21.1264C95.2722 19.9106 95.4073 18.7623 95.61 17.7491C95.8127 16.7359 96.083 15.8577 96.4208 15.0472C96.7586 14.3042 97.1641 13.6962 97.637 13.2909C98.11 12.8857 98.583 12.683 99.1235 12.683H107.434C107.975 12.683 108.448 12.8857 108.853 13.2909C109.326 13.6962 109.664 14.3042 110.002 15.0472C110.34 15.7902 110.61 16.6683 110.813 17.6815C111.015 18.6947 111.083 19.843 111.083 21.0589C111.083 22.2747 111.015 23.423 110.813 24.5038C110.61 25.5845 110.34 26.5977 110.002 27.4083C109.664 28.2189 109.259 28.8943 108.786 29.3672C108.38 29.9075 107.907 30.1777 107.434 30.1777ZM93.9884 12.6155H83.11C82.5695 12.6155 82.0965 12.8181 81.6235 13.2909C81.1505 13.7638 80.7451 14.3042 80.4073 15.1147C80.0695 15.8577 79.7992 16.8034 79.5965 17.8166C79.3938 18.8974 79.3262 19.9781 79.3262 21.194C79.3262 22.4098 79.3938 23.5581 79.5965 24.6389C79.7992 25.7196 80.0695 26.6653 80.4073 27.4758C80.7451 28.2864 81.1505 28.8943 81.6235 29.3672C82.0965 29.84 82.5695 30.1102 83.11 30.1102H92.5019L94.0559 26.26H85.8127C85.2046 26.26 84.7316 25.7872 84.3262 24.8415C83.9208 23.8959 83.7181 22.7475 83.7181 21.3966C83.7181 20.0457 83.9208 18.8974 84.3262 18.0192C84.7316 17.1411 85.2046 16.6683 85.8127 16.6683H92.4343L93.9884 12.6155ZM68.8533 26.26H71.4884C72.0965 26.26 72.5695 25.7872 72.9749 24.8415C73.3803 23.8959 73.583 22.7476 73.583 21.3291C73.583 20.6536 73.5154 19.9781 73.4478 19.4377C73.3127 18.8974 73.1776 18.357 72.9749 17.9517C72.7722 17.5464 72.5695 17.2087 72.2992 17.006C72.0289 16.7359 71.7587 16.6683 71.4884 16.6683H68.8533C68.583 16.6683 68.3127 16.8034 68.0424 17.0736C67.7722 17.3438 67.5695 17.6815 67.3668 18.0868C67.1641 18.4921 67.0289 19.0325 66.8938 19.6404C66.7587 20.2483 66.6911 20.8562 66.6911 21.5317C66.6911 22.9502 66.8938 24.0309 67.2992 24.9766C67.7722 25.8547 68.2451 26.26 68.8533 26.26ZM74.3262 30.1777H65.9478C65.4073 30.1777 64.9343 29.9751 64.4614 29.5023C63.9884 29.0294 63.583 28.4215 63.2451 27.6109C62.9073 26.8004 62.637 25.8547 62.4343 24.774C62.2316 23.6932 62.1641 22.4098 62.1641 21.1264C62.1641 19.9106 62.2992 18.7623 62.5019 17.7491C62.7046 16.7359 62.9749 15.8577 63.3127 15.0472C63.6505 14.3042 64.056 13.6962 64.5289 13.2909C65.0019 12.8857 65.4749 12.683 66.0154 12.683H74.3938C74.9343 12.683 75.4073 12.8857 75.8127 13.2909C76.2857 13.6962 76.6235 14.3042 76.9614 15.0472C77.2992 15.7902 77.5695 16.6683 77.7722 17.6815C77.9749 18.6947 78.0424 19.843 78.0424 21.0589C78.0424 22.2747 77.9749 23.423 77.7722 24.5038C77.5695 25.5845 77.2992 26.5977 76.9614 27.4083C76.6235 28.2189 76.2181 28.8943 75.7451 29.3672C75.3397 29.9075 74.8668 30.1777 74.3262 30.1777ZM34.6641 30.1777V2.07812H41.7587L47.7046 15.3174L53.583 2.07812H60.4749V30.1777H53.1776V13.2234L47.7046 25.4494L42.1641 13.2234V30.1777H34.6641Z" fill="#002B45"/>
</svg>
