<svg width="191" height="58" viewBox="0 0 191 58" fill="none" xmlns="http://www.w3.org/2000/svg">
<path d="M87 49.4462H81.0462V46.2615H80.9077C80.3538 47.0923 79.3846 47.9231 77.8615 48.7538C76.3385 49.5846 74.8154 50 73.1538 50C69.4154 50 66.2308 48.7538 63.7385 46.1231C61.2462 43.4923 60 40.3077 60 36.5692C60 32.8308 61.2462 29.6462 63.7385 27.0154C66.2308 24.3846 69.4154 23 73.1538 23C74.9538 23 76.6154 23.4154 78 24.1077C79.3846 24.8 80.3538 25.6308 80.7692 26.3231H80.9077V23.5538H87V49.4462ZM80.7692 36.4308C80.7692 34.4923 80.0769 32.6923 78.5538 31.1692C77.1692 29.6462 75.3692 28.9538 73.4308 28.9538C71.4923 28.9538 69.6923 29.6462 68.3077 31.1692C66.9231 32.6923 66.0923 34.3538 66.0923 36.4308C66.0923 38.5077 66.7846 40.3077 68.3077 41.6923C69.6923 43.2154 71.4923 43.9077 73.4308 43.9077C75.3692 43.9077 77.1692 43.2154 78.5538 41.6923C80.0769 40.3077 80.7692 38.5077 80.7692 36.4308Z" fill="#2B2A29"/>
<path d="M105.985 49.6926C104.185 49.6926 102.523 49.284 101.138 48.6031C99.7538 47.786 98.7846 47.1051 98.3692 46.4241H98.2308V58H92V23.5447H97.9539V26.677H98.0923C98.6462 25.8599 99.6154 25.0428 101.138 24.2257C102.662 23.4086 104.185 23 105.985 23C109.723 23 112.769 24.2257 115.262 26.8132C117.754 29.4008 119 32.5331 119 36.2101C119 39.8872 117.754 43.0195 115.262 45.607C112.769 48.3307 109.585 49.6926 105.985 49.6926ZM112.769 36.2101C112.769 34.3035 112.077 32.5331 110.554 31.035C109.169 29.537 107.369 28.856 105.431 28.856C103.492 28.856 101.692 29.537 100.308 31.035C98.7846 32.5331 98.0923 34.1673 98.0923 36.2101C98.0923 38.2529 98.7846 40.0233 100.308 41.3852C101.831 42.8833 103.492 43.5642 105.431 43.5642C107.369 43.5642 109.169 42.8833 110.554 41.3852C112.077 40.0233 112.769 38.2529 112.769 36.2101Z" fill="#2B2A29"/>
<path d="M151 49H144.696V33.8449H144.556L139.049 49H133.726L127.744 34.262H127.604V49H122V23H129.565L136.13 40.3187H136.271L142.594 23H150.86V49H151Z" fill="#2B2A29"/>
<path d="M182 36.3622C182 40.0816 180.629 43.25 178.025 46.0051C175.421 48.6224 172.269 50 168.569 50C164.868 50 161.579 48.6224 158.975 46.0051C156.371 43.3878 155 40.2194 155 36.5C155 32.7806 156.371 29.6122 158.975 26.9949C161.579 24.3776 164.731 23 168.431 23C172.132 23 175.284 24.3776 177.888 26.9949C180.629 29.4745 182 32.6429 182 36.3622ZM175.695 36.3622C175.695 34.4337 175.01 32.6429 173.503 31.1276C172.132 29.6122 170.35 28.9235 168.431 28.9235C166.513 28.9235 164.731 29.6122 163.36 31.1276C161.99 32.6429 161.168 34.2959 161.168 36.3622C161.168 38.4286 161.853 40.2194 163.36 41.5969C164.731 43.1122 166.513 43.801 168.431 43.801C170.35 43.801 172.132 43.1122 173.503 41.5969C175.01 40.2194 175.695 38.4286 175.695 36.3622Z" fill="#2B2A29"/>
<path d="M16.4992 8.01241C11.8071 16.2099 6.83894 24.5441 2.14683 32.7416C0.628791 35.2008 -0.889245 38.7531 0.628791 42.8519C2.00882 46.2675 5.1829 48.5901 7.66696 48.8634H31.8175L37.8897 37.6601H11.393L24.6414 14.7071L44.6518 49L51 37.6601L34.0256 8.55891C30.7135 2.5474 20.7773 0.0881479 16.4992 8.01241Z" fill="#009640"/>
</svg>
