<svg width="143" height="39" viewBox="0 0 143 39" fill="none" xmlns="http://www.w3.org/2000/svg">
<path d="M94.4724 23.7158H86.171L90.3288 14.1266L94.4724 23.7158ZM93.3028 0.0571638L93.2814 0H87.7328L72.0499 34.1911L72.0071 34.284L72 39H79.5598L82.6764 31.7974H97.9599L101.069 39H109V34.3197L93.3028 0.0571638Z" fill="#00247D"/>
<path d="M59.7071 19.3071L70.3929 4.91609L70.4143 4.89465V0H62.7357L51.6 15.4128H47.4071V0H38V39H47.4071V23.9731H51.6857L63.0929 38.9643L63.1214 39H71V34.234L59.7071 19.3071Z" fill="#00247D"/>
<path d="M14.1754 23.7158L18.3253 14.1266L22.4752 23.7158H14.1754ZM21.3058 0.0571638L21.2844 0H15.7369L0.0499133 34.1911L0.0142609 34.284L0 39H7.56543L10.6814 31.7974H25.962L29.0709 39H37V34.3197L21.3058 0.0571638Z" fill="#00247D"/>
<path d="M120.172 8.08153H129.079C131.642 8.08153 133.884 10.5253 133.884 13.312C133.884 16.2059 131.6 18.5568 128.8 18.5568H120.172V8.08153ZM129.622 0H111V39H120.172V26.6312H129.921C136.245 26.6312 143 23.137 143 13.312C143 3.48699 135.792 0 129.622 0Z" fill="#00247D"/>
</svg>
