<svg width="151" height="39" viewBox="0 0 151 39" fill="none" xmlns="http://www.w3.org/2000/svg">
<path d="M149.894 0H137.376L127.423 14.6503H124.306V0H114V39H124.306V23.7435H127.423L138.231 39H151L136.27 19.1969L149.894 0Z" fill="#1C388D"/>
<path d="M23.7 14.6503H10.3V0H0V39H10.3V23.693H12.55V23.7435H23.7V39H34V0H23.7V14.6503Z" fill="#1C388D"/>
<path d="M57.455 0H47.5797L36 39H46.6774L48.5823 32.3821H62.4679L64.473 39H75L65.3252 7.17358C64.1221 3.18264 61.5656 0 57.455 0ZM50.7378 24.7034L55.5 7.83031H55.6003L60.3625 24.7034H50.7378Z" fill="#1C388D"/>
<path d="M104.36 19.399V18.9948C109.452 18.136 110.401 14.9534 110.401 10.0026C110.401 1.46503 105.908 0 98.2693 0H78V39H98.469C106.607 39 111 37.6865 111 28.1891C111 23.2889 110.101 19.8031 104.36 19.399ZM88.2844 8.53756H96.9213C99.8169 8.53756 100.116 9.54793 100.116 11.8718C100.116 14.9028 99.2678 15.6101 96.0227 15.6101H88.2345V8.53756H88.2844ZM96.0227 30.4624H88.2345V22.8342H96.9713C99.7171 22.9352 100.716 23.592 100.716 26.522C100.766 29.7047 99.3676 30.4624 96.0227 30.4624Z" fill="#1C388D"/>
</svg>
