<svg width="24" height="25" viewBox="0 0 24 25" fill="none" xmlns="http://www.w3.org/2000/svg">
<path d="M3.55985 15.0616L14.3629 4.26181C14.721 3.90407 15.2066 3.70312 15.7129 3.70312C16.2191 3.70312 16.7047 3.90407 17.0629 4.26181L20.4399 7.63681C20.7977 7.99485 20.9987 8.48027 20.9987 8.9864C20.9987 9.49254 20.7977 9.97796 20.4399 10.336L9.63585 21.1388C9.2777 21.4965 8.79213 21.6975 8.28585 21.6975C7.77957 21.6975 7.294 21.4965 6.93585 21.1388L3.55885 17.7628C3.20101 17.4048 3 16.9193 3 16.4132C3 15.9071 3.20101 15.4216 3.55885 15.0636L3.55985 15.0616ZM7.67985 14.3188L8.96185 13.0372L10.7849 14.8607C10.8559 14.9315 10.9402 14.9878 11.033 15.0261C11.1258 15.0644 11.2252 15.0841 11.3256 15.084C11.4259 15.0839 11.5253 15.064 11.618 15.0255C11.7107 14.987 11.7949 14.9307 11.8659 14.8597C11.9368 14.7886 11.993 14.7043 12.0313 14.6116C12.0696 14.5188 12.0893 14.4195 12.0892 14.3191C12.0891 14.2188 12.0693 14.1194 12.0308 14.0267C11.9923 13.9341 11.9359 13.8499 11.8649 13.779L10.0409 11.9575L11.2569 10.7429L12.4049 11.8875C12.5103 11.9993 12.6471 12.0767 12.7972 12.1094C12.9474 12.1422 13.104 12.1288 13.2464 12.0711C13.3889 12.0134 13.5106 11.9141 13.5956 11.7861C13.6806 11.658 13.725 11.5073 13.7229 11.3537C13.7217 11.2517 13.7001 11.1509 13.6594 11.0573C13.6187 10.9638 13.5597 10.8793 13.4859 10.8089L12.3379 9.6622L13.6199 8.37959L15.4439 10.203C15.5873 10.3462 15.7818 10.4265 15.9846 10.4264C16.1873 10.4262 16.3816 10.3455 16.5249 10.202C16.6681 10.0586 16.7484 9.86416 16.7482 9.6615C16.748 9.45883 16.6673 9.26454 16.5239 9.12136L14.6989 7.29791L15.7129 6.28621C15.76 6.24248 15.7978 6.1897 15.8241 6.13101C15.8504 6.07233 15.8645 6.00894 15.8657 5.94466C15.8669 5.88039 15.8551 5.81653 15.831 5.75692C15.8069 5.69731 15.771 5.64317 15.7255 5.59774C15.68 5.55231 15.6258 5.51653 15.5661 5.49254C15.5065 5.46855 15.4426 5.45685 15.3783 5.45812C15.314 5.4594 15.2506 5.47363 15.1919 5.49997C15.1333 5.52631 15.0805 5.56421 15.0369 5.61141L4.90985 15.7364C4.8282 15.8274 4.78454 15.9462 4.78785 16.0684C4.79117 16.1906 4.84121 16.3069 4.92768 16.3934C5.01415 16.4798 5.13047 16.5298 5.25271 16.5332C5.37496 16.5365 5.49382 16.4928 5.58485 16.4112L6.59685 15.3995L7.74685 16.5452C7.81654 16.621 7.90087 16.682 7.99475 16.7245C8.08863 16.7669 8.19013 16.79 8.29315 16.7922C8.39617 16.7944 8.49856 16.7758 8.59419 16.7374C8.68981 16.699 8.77668 16.6417 8.84958 16.5689C8.92247 16.4961 8.97988 16.4093 9.01835 16.3137C9.05682 16.2182 9.07556 16.1158 9.07344 16.0128C9.07131 15.9099 9.04837 15.8084 9.006 15.7145C8.96362 15.6206 8.90268 15.5362 8.82685 15.4665L7.67885 14.3188V14.3198L7.67985 14.3188Z" fill="#002B45"/>
</svg>
