<svg width="32" height="32" viewBox="0 0 32 32" fill="none" xmlns="http://www.w3.org/2000/svg">
<path d="M29.0824 5.25215C27.3357 9.61215 23.3491 15.3055 19.5491 19.0255C19.0024 15.5855 16.2557 12.8922 12.7891 12.4122C16.5224 8.59882 22.2557 4.55882 26.6291 2.79882C27.4024 2.50548 28.1757 2.73215 28.6557 3.21215C29.1624 3.71882 29.4024 4.47882 29.0824 5.25215Z" fill="#002B45"/>
<path d="M18.3735 20.1199C18.1068 20.3466 17.8402 20.5733 17.5735 20.7866L15.1868 22.6933C15.1868 22.6533 15.1735 22.5999 15.1735 22.5466C14.9868 21.1199 14.3202 19.7999 13.2402 18.7199C12.1468 17.6266 10.7868 16.9599 9.29349 16.7733C9.25349 16.7733 9.20016 16.7599 9.16016 16.7599L11.0935 14.3199C11.2802 14.0799 11.4802 13.8533 11.6935 13.6133L12.6002 13.7333C15.4668 14.1333 17.7735 16.3866 18.2268 19.2399L18.3735 20.1199Z" fill="#002B45"/>
<g filter="url(#filter0_i_94_74908)">
<path d="M13.9077 23.4944C13.9077 24.9611 13.3477 26.3611 12.281 27.4144C11.4677 28.2411 10.3743 28.8011 9.04099 28.9611L5.77432 29.3211C3.98765 29.5211 2.45432 27.9877 2.65432 26.1877L3.01432 22.9077C3.33432 19.9877 5.77432 18.1211 8.36099 18.0677C8.61432 18.0544 8.89432 18.0677 9.16099 18.0944C10.2943 18.2411 11.3877 18.7611 12.3077 19.6677C13.201 20.5611 13.7077 21.6144 13.8543 22.7211C13.881 22.9877 13.9077 23.2411 13.9077 23.4944Z" fill="#FF7A57"/>
</g>
<defs>
<filter id="filter0_i_94_74908" x="2.63672" y="18.0625" width="11.2705" height="11.2762" filterUnits="userSpaceOnUse" color-interpolation-filters="sRGB">
<feFlood flood-opacity="0" result="BackgroundImageFix"/>
<feBlend mode="normal" in="SourceGraphic" in2="BackgroundImageFix" result="shape"/>
<feColorMatrix in="SourceAlpha" type="matrix" values="0 0 0 0 0 0 0 0 0 0 0 0 0 0 0 0 0 0 127 0" result="hardAlpha"/>
<feOffset/>
<feGaussianBlur stdDeviation="2"/>
<feComposite in2="hardAlpha" operator="arithmetic" k2="-1" k3="1"/>
<feColorMatrix type="matrix" values="0 0 0 0 1 0 0 0 0 0.208333 0 0 0 0 0 0 0 0 1 0"/>
<feBlend mode="normal" in2="shape" result="effect1_innerShadow_94_74908"/>
</filter>
</defs>
</svg>
