<svg width="18" height="18" viewBox="0 0 18 18" fill="none" xmlns="http://www.w3.org/2000/svg">
<g clip-path="url(#clip0_159_19059)">
<path d="M9.09444 4.85701L8.41346 0.3195C8.38646 0.135 8.22819 0 8.04295 0C8.03919 0 8.03469 0 8.03019 0C7.83968 0.00601172 7.68443 0.153738 7.66945 0.343512L7.34095 4.28326C7.3207 4.52626 6.88944 4.52626 6.86919 4.28326L6.54146 0.343512C6.52494 0.149238 6.36294 0 6.16796 0C5.97295 0 5.81021 0.149238 5.79446 0.343512L5.46596 4.28326C5.44571 4.52626 5.01444 4.52626 4.99419 4.28326L4.66643 0.343512C4.65068 0.154512 4.49543 0.00675 4.30492 0C4.30042 0 4.29666 0 4.29293 0C4.10769 0 3.94942 0.135 3.92242 0.3195L3.24218 4.85701C3.04193 6.18676 3.76344 7.45875 4.97992 7.98901L4.40093 16.104C4.36644 16.5923 4.53744 17.0775 4.87118 17.436C5.20418 17.7945 5.67595 18 6.16645 18H6.16943C6.6592 18 7.1317 17.7945 7.46544 17.436C7.79918 17.0775 7.97018 16.5922 7.93569 16.104L7.3567 7.98901C8.57321 7.45875 9.29469 6.18676 9.09444 4.85701Z" fill="#154673"/>
<path d="M14.634 0.0684202C14.535 -0.00206814 14.4075 -0.0185916 14.2927 0.0211702C14.2605 0.0324202 11.043 1.21441 11.043 4.87442C11.043 7.50917 11.9002 8.83966 12.3825 9.37966L11.9025 9.85965C11.841 9.92114 11.8027 10.0014 11.7945 10.0876L11.2012 16.0209C11.1502 16.5256 11.316 17.0311 11.6564 17.4076C11.997 17.7842 12.4852 17.9994 12.9922 17.9994C13.9845 17.9994 14.7922 17.1917 14.7922 16.1994V0.37442C14.793 0.252147 14.7337 0.138908 14.634 0.0684202Z" fill="#154673"/>
</g>
<defs>
<clipPath id="clip0_159_19059">
<rect width="18" height="18" fill="white"/>
</clipPath>
</defs>
</svg>
