<svg width="18" height="18" viewBox="0 0 18 18" fill="none" xmlns="http://www.w3.org/2000/svg">
<path d="M12 0H6.00001C5.17272 0 4.5 0.672715 4.5 1.50001V16.5C4.5 17.3273 5.17272 18 6.00001 18H12C12.8273 18 13.5 17.3273 13.5 16.5V1.50001C13.5 0.672715 12.8273 0 12 0ZM9 16.5C7.75927 16.5 6.75 15.4907 6.75 14.25C6.75 13.0093 7.75927 12 9 12C10.2407 12 11.25 13.0093 11.25 14.25C11.25 15.4907 10.2407 16.5 9 16.5ZM9 11.25C7.75927 11.25 6.75 10.2407 6.75 9C6.75 7.75927 7.75927 6.75 9 6.75C10.2407 6.75 11.25 7.75927 11.25 9C11.25 10.2407 10.2407 11.25 9 11.25ZM9 6.00001C7.75927 6.00001 6.75 4.99075 6.75 3.75001C6.75 2.50928 7.75927 1.50001 9 1.50001C10.2407 1.50001 11.25 2.50928 11.25 3.75001C11.25 4.99071 10.2407 6.00001 9 6.00001Z" fill="#154673"/>
</svg>
