<svg width="18" height="18" viewBox="0 0 18 18" fill="none" xmlns="http://www.w3.org/2000/svg">
<path d="M14.8334 15.6V0.75H3.16668V15.6H1.5V17.25H16.5V15.6H14.8334ZM8.16668 2.40001H9.83336V4.05002H8.16668V2.40001ZM8.16668 5.7H9.83336V7.35001H8.16668V5.7ZM8.16668 8.99998H9.83336V10.65H8.16668V8.99998ZM6.5 10.65H4.83332V8.99998H6.5V10.65ZM6.5 7.35001H4.83332V5.7H6.5V7.35001ZM6.5 4.04998H4.83332V2.40001H6.5V4.04998ZM10.6667 15.6H7.33336V13.95C7.33336 13.0425 8.08336 12.3 9.00004 12.3C9.91672 12.3 10.6667 13.0425 10.6667 13.95V15.6ZM13.1667 10.65H11.5V8.99998H13.1667V10.65ZM13.1667 7.35001H11.5V5.7H13.1667V7.35001ZM13.1667 4.04998H11.5V2.40001H13.1667V4.04998Z" fill="#154673"/>
</svg>
