<svg width="18" height="18" viewBox="0 0 18 18" fill="none" xmlns="http://www.w3.org/2000/svg">
<path d="M15.3609 6.87084H14.8272L12.4376 2.47595C12.3239 2.26683 12.0579 2.18727 11.8434 2.29803C11.6289 2.4089 11.5473 2.66829 11.661 2.87741L13.8323 6.87078H4.23144L6.40281 2.87744C6.51651 2.66832 6.43483 2.40893 6.22038 2.29806C6.00596 2.18719 5.73991 2.26683 5.62621 2.47598L3.23655 6.87084H2.63909C2.011 6.87084 1.5 7.36909 1.5 7.98158C1.5 8.59404 2.011 9.09231 2.63909 9.09231H2.67071C2.67167 9.09843 2.6724 9.10457 2.67352 9.11068L3.59004 14.1219C3.7624 15.0641 4.59991 15.748 5.58147 15.748H12.4822C13.4638 15.748 14.3014 15.0641 14.4737 14.1219L15.3902 9.11071C15.3914 9.10434 15.3922 9.09794 15.3932 9.09157C16.0064 9.07477 16.5 8.5835 16.5 7.98161C16.5 7.36909 15.989 6.87084 15.3609 6.87084ZM7.12117 14.2904C7.09648 14.2945 7.0719 14.2964 7.04767 14.2964C6.83702 14.2964 6.65096 14.1483 6.61483 13.939L5.96667 10.1866C5.92636 9.9532 6.08769 9.73211 6.32705 9.6928C6.56617 9.65355 6.79314 9.81082 6.83345 10.0442L7.48161 13.7966C7.52187 14.03 7.36053 14.2511 7.12117 14.2904ZM9.42051 13.8678C9.42051 14.1045 9.22373 14.2964 8.98103 14.2964C8.73831 14.2964 8.54155 14.1045 8.54155 13.8678V10.1154C8.54155 9.87872 8.73833 9.68686 8.98103 9.68686C9.22376 9.68686 9.42051 9.87875 9.42051 10.1154V13.8678ZM11.9648 10.1866L11.3166 13.939C11.2805 14.1483 11.0944 14.2964 10.8838 14.2964C10.8595 14.2964 10.835 14.2945 10.8103 14.2904C10.5709 14.2511 10.4096 14.03 10.4499 13.7966L11.0981 10.0442C11.1384 9.81082 11.3654 9.65375 11.6045 9.6928C11.8438 9.73211 12.0051 9.9532 11.9648 10.1866Z" fill="#154673"/>
</svg>
