<svg width="18" height="18" viewBox="0 0 18 18" fill="none" xmlns="http://www.w3.org/2000/svg">
<path d="M16.8945 4.61914V13.6737C17.5305 13.5052 18.0008 12.9249 18.0008 12.2367V6.05612C18.0008 5.36786 17.5305 4.78757 16.8945 4.61914Z" fill="#154673"/>
<path d="M14.2998 3.41992H13.9514C13.1317 3.41992 12.4648 4.0868 12.4648 4.90643V13.3858C12.4648 14.2055 13.1317 14.8723 13.9514 14.8723H14.2998C15.1194 14.8723 15.7863 14.2055 15.7863 13.3858V4.90643C15.7863 4.08677 15.1194 3.41992 14.2998 3.41992Z" fill="#154673"/>
<path d="M11.3571 7.30664H6.64258V10.9339H11.3571V7.30664Z" fill="#154673"/>
<path d="M0 5.76322V11.9437C0 12.632 0.47025 13.2123 1.10623 13.3807V4.32617C0.47025 4.49464 0 5.07496 0 5.76322Z" fill="#154673"/>
<path d="M4.04777 3.12695H3.6994C2.87973 3.12695 2.21289 3.79383 2.21289 4.61346V13.0928C2.21289 13.9125 2.87977 14.5793 3.6994 14.5793H4.04777C4.86743 14.5793 5.53428 13.9124 5.53428 13.0928V4.61346C5.53424 3.7938 4.8674 3.12695 4.04777 3.12695Z" fill="#154673"/>
</svg>
