<svg width="18" height="18" viewBox="0 0 18 18" fill="none" xmlns="http://www.w3.org/2000/svg">
<g clip-path="url(#clip0_159_19092)">
<path d="M7.41797 16.3828C8.2917 16.3828 9 15.6745 9 14.8008C9 13.927 8.2917 13.2188 7.41797 13.2188C6.54424 13.2188 5.83594 13.927 5.83594 14.8008C5.83594 15.6745 6.54424 16.3828 7.41797 16.3828Z" fill="#154673"/>
<path d="M13.7461 16.3828C14.6198 16.3828 15.3281 15.6745 15.3281 14.8008C15.3281 13.927 14.6198 13.2188 13.7461 13.2188C12.8724 13.2188 12.1641 13.927 12.1641 14.8008C12.1641 15.6745 12.8724 16.3828 13.7461 16.3828Z" fill="#154673"/>
<path d="M0.527341 2.67187H2.79856C2.82792 2.77758 5.49661 12.3861 5.32762 11.7778C5.39097 12.0059 5.59902 12.164 5.8359 12.164H15.328C15.5634 12.164 15.7704 12.008 15.8353 11.7814L17.9798 4.39859C18.0251 4.23948 17.9932 4.06848 17.8938 3.93615C17.7939 3.80431 17.6379 3.72655 17.4726 3.72655H4.18589L3.70749 2.00341C3.64414 1.77528 3.43608 1.61719 3.1992 1.61719H0.527341C0.235862 1.61719 0 1.85305 0 2.14453C0 2.43601 0.235862 2.67187 0.527341 2.67187ZM13.2187 10.0546H7.94527C7.65379 10.0546 7.41793 9.81877 7.41793 9.5273C7.41793 9.23582 7.65379 8.99996 7.94527 8.99996H13.2187C13.5102 8.99996 13.746 9.23582 13.746 9.5273C13.746 9.81877 13.5102 10.0546 13.2187 10.0546ZM6.89059 6.89059H14.2734C14.5648 6.89059 14.8007 7.12645 14.8007 7.41793C14.8007 7.70941 14.5648 7.94527 14.2734 7.94527H6.89059C6.59911 7.94527 6.36325 7.70941 6.36325 7.41793C6.36325 7.12645 6.59911 6.89059 6.89059 6.89059Z" fill="#154673"/>
</g>
<defs>
<clipPath id="clip0_159_19092">
<rect width="18" height="18" fill="white"/>
</clipPath>
</defs>
</svg>
